<!--?xml version="1.0" encoding="utf-8"?-->
<!-- Generator: Adobe Illustrator 21.0.2, SVG Export Plug-In . SVG Version: 6.00 Build 0)  -->
<svg version="1.1" id="Layer_1" xmlns="http://www.w3.org/2000/svg" xmlns:xlink="http://www.w3.org/1999/xlink" x="0px" y="0px" width="750px" height="600px" viewBox="0 0 750 600" style="" xml:space="preserve">
<style type="text/css">
	.st0{fill:none;stroke:#00ADBB;stroke-width:9;stroke-miterlimit:10;}
	.st1{fill:none;stroke:#FF5000;stroke-width:8;stroke-miterlimit:10;}
	.st2{fill:none;stroke:#C227B9;stroke-width:3;stroke-miterlimit:10;}
	.st3{fill:none;stroke:#C227B9;stroke-width:7;stroke-miterlimit:10;}
	.st4{fill:none;stroke:#65CBC9;stroke-width:4;stroke-miterlimit:10;}
	.st5{fill:none;stroke:#00ADBB;stroke-width:11;stroke-miterlimit:10;}
	.st6{fill:none;stroke:#C227B9;stroke-width:6;stroke-miterlimit:10;}
	.st7{fill:none;stroke:#65CBC9;stroke-width:9;stroke-miterlimit:10;}
	.st8{fill:none;stroke:#7C2582;stroke-width:4;stroke-miterlimit:10;}
	.st9{fill:none;stroke:#C227B9;stroke-width:10;stroke-miterlimit:10;}
</style>
<g>
	<g>
		<path class="st0 sIESQceU_0" d="M415.4,354c-1.1,0-2.1-0.2-3.1-0.6c-4.4-1.7-5.6-6.3-6.8-11.2c-0.6-2.2-1.2-4.5-2.1-6.9v0
			c-5.4-14-4.5-28.3,2.4-41.5c9.4-18,30-33.2,52.6-38.7c0.9-0.2,1.8-0.4,2.8-0.7c8.7-2.1,20.6-4.9,25.1-12.3c1-1.7,1.6-3.9,2.2-6.1
			c0.1-0.5,0.3-1.1,0.4-1.6c2.4-8.6,6.5-16,12.6-22.4c9.4-9.9,18.4-16.2,26.8-18.8c4.9-1.5,9.2-1.2,12.9,1c5,3,8.4,9.3,10.4,19.3
			c0.8,4.2,1.4,8.5,2,12.6c0.3,2.3,0.6,4.7,1,7c0.2,1.6,0.8,3.6,1.4,5.7c1.9,6.5,4.3,14.7-0.9,20.9c-3.7,4.4-9.6,5.4-14,6.1
			c-6.6,1.1-13.3,1.7-19.8,2.3c-8.4,0.8-17,1.6-25.3,3.4c-8.2,1.8-10.7,4-10.9,4.6c0,0.2,0.3,1.1,2.5,2.8c3.9,3.1,8.5,5.3,13.3,7.6
			c5.4,2.6,10.9,5.3,15.7,9.4c1.1,0.9,2.5,2.3,3.3,4.2c1.5,3.5,1.8,8.9-5.2,14.9c-3.9,3.3-8.8,5.9-12.1,7.6c-0.5,0.3-1,0.5-1.4,0.7
			c-14.4,7.7-26.4,8.9-34.6,3.5c-6.9-4.6-9.8-2.3-18.6,6.1c-4.3,4.1-9.6,9.3-16.9,14.1C423.9,351.9,419.1,354,415.4,354z"></path>
	</g>
	<g>
		<g>
			<path class="st1 sIESQceU_1" d="M385,364.2c-2.2,0-4.1-0.5-6-1.3c-4.8-2.3-9.6-7.4-13.7-14.9c-2.6-4.7-3.3-9.6-3.7-14.7
				c-0.7-7.3-1.2-15.2-1.5-23.9c-0.1-3.4,0-6.3,1.1-9.7c1.7-5.2,4.6-10.3,7.4-15c3-5,6.5-10.1,10.5-15.2
				c7.9-9.9,15.8-16.2,24.8-19.7c7.3-2.9,14.6-4.4,23.3-5.9c3.5-0.6,7.3-1.3,11-2.4c7.1-2.2,13.8-5.8,19.6-10.4c2.8-2.3,5-4.6,6.9-7
				c1.9-2.6,3.3-5.3,4.8-8.3c0.3-0.5,0.5-1,0.8-1.5l0,0c2.1-4.1,3.9-6.9,5.8-9.2c4-4.6,8.4-7.1,11.4-8.6c0.9-0.4,1.7-0.8,2.5-1.1
				c2.6-1.1,5.6-2.2,9.3-3.6c6.9-2.5,15-5.2,23.4-6.8c8.7-1.6,16.1,0.6,22.1,6.4c3.3,3.2,6.1,7.1,8.4,11.9c1.8,3.8,2.5,8.1,3.2,12.3
				c0.2,1.4,0.5,2.9,0.7,4.3c0.8,3.8,2.1,7.6,3.9,11.2c1.3,2.5,3,5.1,4.9,7.9c0.5,0.7,0.9,1.3,1.3,2l0.3,0.4l0.1,0.5
				c0.2,0.7,1.4,2.4,2.2,3.4c1.1,1.6,2.2,3,2.7,4.4l0.2,0.5c1.4,3.9,2.9,7.8,2.1,12.1c-0.1,0.5-0.3,1.5-1,2.5
				c-0.9,1.2-2.1,1.8-3.1,2.2c-4.8,1.8-10.3,2.1-15.1,2.3l-0.9,0c-0.7,0-1.4,0.1-2,0.1c-2.3,0.1-5.2,0.3-7.2,1.2
				c-0.8,0.4-1.5,0.9-2.3,1.4c-0.2,0.2-0.4,0.3-0.7,0.4c-6.9,4.6-15.4,7-22.8,6.6c-2.7-0.2-5.2-0.6-7.6-1.1c-3.2-0.6-6.2-1.2-9.3-1
				c-1.9,0.1-3.9,0.7-4.8,1.5c-0.7,0.6-1.1,1.1-1.5,1.7c-0.6,1-1.2,2.1-1.9,3.3c-0.4,0.8-0.9,1.6-1.3,2.4c-1.6,2.8-1.4,3.7-1.4,3.7
				c0.2,0.6,0.9,1.5,4.6,2.9c0.3,0.1,0.8,0.3,1.3,0.4c0.2,0,0.4,0.1,0.6,0.2c3.4,0.9,6.9,1.6,10,2.1l0.4,0.1
				c3.1,0.5,6.6,1.1,9.8,3.2c1.8,1.2,3.2,2.7,4.4,4l0.1,0.1c4.2,4.6,8.6,9.6,12.7,15.3c0.5,0.6,0.8,1.2,1.2,1.7
				c1.1,1.7,2.2,3.8,2.2,6.3c0,3.5-1.7,6.3-5,8.4c-1.7,1-3.5,1.9-5.5,2.9c-1,0.5-1.9,0.9-3,1.4c-2,1-4.2,2.1-6.3,3.2
				c-4.2,2.1-8.5,4.4-12.4,6.1c-0.7,0.3-3.3,1.4-5.5,1.1c-0.7-0.1-1.6-0.3-2.5-1.1c-0.8-0.7-4.8-1.1-7.5-1.4
				c-3.3-0.4-7-0.8-10.1-1.7c-0.8-0.3-1.6-0.6-2.3-0.9c-1.5-0.6-2.8-1.2-4.3-1.1c-0.8,0-1.6,0.2-2.5,0.5l0,0
				c-0.6,0.1-1.2,0.3-1.7,0.4c-1.4,0.4-2.7,0.7-4.1,1c-0.3,0.1-0.6,0.1-0.9,0.2c-1.2,0.3-2.7,0.8-4.6,0.4c-1.2-0.2-2.5-0.8-3.7-1.8
				c-1.2-0.9-2.4-1.8-3.4-2.6c-3.2-2.5-5.7-4.5-7.4-5.3c-1.3-0.6-2.3-1.1-5.3-0.4c-1.2,0.3-2.7,1-4.1,1.8c-4.6,2.4-9.7,5.7-15,9.1
				c-4.5,3-9.2,6-14.5,9.1c-1.2,0.7-2.3,1.3-3.4,1.9l-0.8,0.4C395.4,362,389.7,364.2,385,364.2z"></path>
		</g>
	</g>
	<g>
		<path class="st2 sIESQceU_2" d="M353.2,373.4c-1.6,0-3-0.1-4.5-0.4c-4-0.8-14.1-3.7-20.7-13.5c-3.4-5.1-3.8-10.9-4.1-16.5l0-0.8
			c-0.7-10.7-2.1-20.7-4-29c-0.9-3.8-1.4-7-0.3-11.2c1.5-5.8,4.5-11.4,7.3-16.9c0.3-0.6,0.6-1.1,0.9-1.6c3.3-6.4,7.1-12.9,11.3-19.5
			c6.2-9.7,14.5-20.3,28.3-25c8.4-2.9,17.1-3.9,25.6-4.9c1.1-0.1,2.1-0.3,3.2-0.4c4-0.5,9.2-1.3,14.3-2.9c8-2.6,16-7.5,24.4-14.9
			c3.6-3.1,6.6-6.1,9.2-9.2c2.7-3.2,5-6.5,7.2-9.8c0.4-0.6,0.9-1.3,1.3-1.9h0c2.3-3.4,5-6.9,8.1-9.3c5.2-4,10.8-4.8,14.6-5.1
			c1-0.1,2-0.1,2.9-0.1c1.4,0,2.9,0,4.4,0.1c2.1,0,4.2,0.1,6.6,0c5.8-0.1,12.3-0.8,19.3-1.6c2.8-0.3,5.8-0.6,8.7-0.9
			c9.4-0.9,17.5,0.8,25,5.4c3.9,2.4,8.4,5.5,12.1,10.8c2.9,4.2,3.9,9.8,4.7,15.1c0.3,2.1,0.7,4.2,1.2,6.2c1.2,5.2,3.5,10.2,6.9,15
			c2.7,3.8,6.3,7.5,9.7,11.1l1.1,1.1l0.1,0.3c0.2,1,2.9,3.5,4.7,5.1c1.8,1.6,3.3,3,3.9,4c0.5,0.9,1,1.7,1.5,2.6
			c2.3,3.8,4.5,7.4,5,11.6c0.1,0.6,0.2,1.5-0.3,2.5c-0.7,1.2-2,1.6-3.1,1.9c-5.8,1.4-12.1,1.3-18.1,1.2c-0.9,0-1.7,0-2.6,0
			c-0.9,0-1.8,0-2.7,0c-3.8,0-7.8,0.2-10.4,2.1c-1.1,0.8-2,1.8-2.8,2.8c-0.2,0.2-0.4,0.5-0.6,0.7c-5.5,6.4-16.4,12.6-27.4,11
			c-3.5-0.5-6.7-1.7-9.8-2.8c-4.1-1.5-8-2.9-12.4-2.9c-3.2,0-6.3,1.3-7.5,3.1c-0.8,1.1-0.9,2.2-0.9,3.5c0,1.6,0.2,3.1,0.4,4.7
			c0.2,1.5,0.3,3.1,0.4,4.8c0.1,2.9,0.5,6.1,2.4,7.4c2,1.5,4.9,1.8,9.6,2.4l0.6,0.1c0.6,0.1,1.3,0.1,1.9,0.1c0.3,0,0.6,0,0.9,0
			c4.2,0.2,8.4,0.2,12.9,0.1l1.2,0c3.8,0,9.1-0.1,12.9,2.8c2.2,1.6,3.5,3.8,4.6,5.8c4.2,7.1,8.6,14.7,12.7,23
			c0.3,0.6,0.7,1.5,1.1,2.4c0.9,2.1,1.8,4.7,1.2,7.2c-0.8,3.7-3.4,6.1-8,7.2c-1.1,0.3-2.3,0.5-3.5,0.8c-2.8,0.6-5.8,1.3-9,2.5
			c-5.3,1.9-10.8,4.4-16.1,6.9c-3.6,1.7-6.9,3.2-10.2,4.6c-1.9,0.8-4.6,1.4-6.2,0.4c-0.8-0.4-1.2-1.1-1.3-1.8
			c-0.6-3.7-6.2-5.6-12.1-7.6c-3.8-1.3-7.8-2.6-10.8-4.6c-0.8-0.5-1.5-1.1-2.2-1.6c-2.2-1.7-4.2-3.2-6.9-3.1c-1.4,0-2.7,0.5-4,1.1
			c-2.5,1-4.8,2.1-7,3.2l-0.4,0.2c-0.5,0.2-1,0.6-1.5,0.9c-1.2,0.8-2.7,1.7-4.7,1.6c-1.7-0.1-3.1-1-4-1.8
			c-6.4-5.3-10.1-10.6-12.1-14.1c-0.1-0.2-0.2-0.4-0.3-0.6c-1.2-2.2-2.3-4.2-6.2-4.4c-1.8-0.1-4.1,0.5-6.2,1.3
			c-9.4,3.2-19,8.7-29.3,14.5c-3.6,2-7.3,4.1-11.1,6.2c-1.3,0.7-2.6,1.4-3.9,2c-0.6,0.3-1.1,0.6-1.7,0.9
			C367.4,370.8,359.7,373.4,353.2,373.4z"></path>
	</g>
	<g>
		<path class="st3 sIESQceU_3" d="M509.7,401.3c-1.7,0-3.3-0.4-4.5-1.5c-1.2-1.1-1.8-2.5-1.7-4.1c0.2-5.1-5.1-8-14-12.2
			c-4.7-2.2-9.5-4.5-13.1-7.6c-0.9-0.8-1.7-1.6-2.5-2.4c-2.5-2.5-4.6-4.7-7.5-4.6c-1.4,0-3,0.7-4.4,1.5c-3.3,1.6-6.3,3.5-9,5.3
			c-0.5,0.3-1.1,0.8-1.6,1.3c-1.5,1.4-3.6,3.3-6.9,3.3c-2.1,0-4.3-0.9-6.3-2.5c-9.7-8.4-12.5-17.4-13.3-20.9
			c-0.1-0.4-0.2-0.7-0.2-1.1c-0.8-3.9-1.5-6.4-5.1-7.3c-1.9-0.5-4.6,0-7.1,0.7c-13.7,3.4-27.5,10.7-42,18.4
			c-2.9,1.5-5.8,3.1-8.8,4.6c-1.6,0.8-3.2,1.6-4.7,2.4c-0.7,0.4-1.5,0.7-2.2,1.1c-16.3,8.3-27.1,11.3-37.3,10.6
			c-7.6-0.5-21.6-3-29.7-13.5c-4.7-6-4.9-13.4-5.2-19.9c0-0.6,0-1.1-0.1-1.7c-0.5-12.2-2.7-23.9-6.4-33.7c-1.5-4.2-3.1-8.5-1.8-14.3
			c1.5-6.6,4.6-13,7.5-19.2c0.6-1.2,1.1-2.4,1.7-3.5c3.6-7.7,7.6-15.6,12.3-24.1c4.6-8.4,8.7-14.2,13.3-19
			c6-6.2,12.6-10.3,20.4-12.7c9.2-2.8,18.7-3.5,27.9-4.3c2.3-0.2,4.8-0.4,7.1-0.6c4.7-0.4,10.9-1.2,16.8-3.3
			c10.8-3.7,19.8-11.1,28-18.6c4.3-3.9,7.9-7.4,11.1-10.8c3-3.3,5.9-6.7,8.6-10c0.9-1.1,1.8-2.2,2.7-3.2l0,0
			c3.1-3.6,6.7-7.7,11.2-10.2c5.6-3.1,12-3.8,19.5-2.3c1.2,0.3,2.4,0.5,3.5,0.9c1.4,0.4,2.7,0.8,4.1,1.2c2.7,0.8,5.5,1.7,8.5,2.4
			c9.7,2.1,21.8,1.9,32.5,1.5c10.9-0.4,21.2,1.3,30.4,5.1c6.1,2.5,12.1,5.2,16.8,10.8c4.5,5.3,5.7,12.4,6.8,19.3
			c0.4,2.6,0.9,5.3,1.5,7.8c1.6,6.2,4.6,12,9.4,17.6c4.2,5,9.8,9.6,14.7,13.7l0.8,0.6l0.1,0.7c0.8,1.1,4.5,3.8,6.5,5.3
			c2.9,2.2,4.6,3.4,5.4,4.5c0.8,1.1,1.7,2.1,2.5,3.2c3.5,4.3,7.1,8.8,8.7,14.2c0.3,0.8,0.8,2.6-0.1,4.4c-1.2,2.5-4.2,3-5.1,3.1
			c-7.2,1.1-14.6,0.8-21.8,0.4c-1.5-0.1-3-0.1-4.5-0.2c-1.1,0-2.2-0.1-3.4-0.1c-4.3-0.1-9.1,0-11.8,2.3c-1.1,1-1.9,2.3-2.7,3.7
			c-0.2,0.4-0.4,0.7-0.6,1.1c-5.4,8.8-17.1,17-29.6,17c-1.8,0-3.5-0.2-5.3-0.5c-4.6-0.9-8.7-2.8-12.6-4.7c-4.8-2.3-9.4-4.5-14.5-4.6
			c-3.3-0.1-6.6,1.4-7.5,3.2c-0.5,1.1-0.3,2.3,0.1,3.8c0.7,2.4,1.6,4.8,2.6,7.2c0.7,1.9,1.5,3.9,2.2,5.9c1.3,3.8,2.8,7.5,5.6,8.6
			c2.5,1,5.7,0.9,9.7,0.7c1.3-0.1,2.7-0.1,4.2-0.2c0.7,0,1.5-0.1,2.4-0.2c0.4,0,0.8-0.1,1.3-0.1c4.5-0.4,8.9-0.9,13.6-1.5
			c1.4-0.2,2.8-0.3,4.3-0.5c5.9-0.7,12.6-1.1,17.6,3c3,2.4,4.5,5.8,5.7,8.5c4.3,9.6,8.8,19.9,13,30.9c0.3,0.9,0.8,2.1,1.2,3.3
			c0.9,2.9,1.8,6.6,0.6,10.2c-1.8,5.3-6.2,8.3-13.3,8.9c-1,0.1-2,0.2-3,0.3c-4.3,0.4-8.7,0.7-13.5,2.1c-7.4,2.1-14.9,5.5-22.2,8.7
			c-3.8,1.7-7.8,3.5-11.6,5C513.4,400.9,511.5,401.3,509.7,401.3z M508.8,395.7C508.8,395.7,508.8,395.7,508.8,395.7L508.8,395.7z"></path>
	</g>
	<g>
		<path class="st4 sIESQceU_4" d="M513.3,425.9c-1.8,0-3.4-0.4-4.4-1.6c-0.8-0.9-1.2-2.1-1-3.5c1.2-9.7-8-14.8-17.7-20.2
			c-5.4-3-10.9-6.1-14.8-10.1c-0.9-1-1.8-2-2.7-3c-3-3.6-6.1-7.3-10.6-7.1c-2.2,0.1-4.4,1.2-6.2,2.2c-4.3,2.4-8.1,5.2-10.9,7.4
			c-0.8,0.6-1.5,1.3-2.2,2.1c-1.7,1.8-3.6,3.9-6.8,4.1c-2,0.1-4.3-0.8-6.1-2.5c-7.7-6.9-12.7-16.4-13.3-25.6c0-0.4-0.1-0.9-0.1-1.3
			c-0.3-5.1-0.7-10.9-6.7-13.2c-2.8-1.1-6.4-0.6-9.8,0.1c-18.6,3.5-36.5,12.7-55.5,22.3c-2.2,1.1-4.4,2.2-6.6,3.4
			c-2,1-3.9,1.9-5.8,2.9c-0.8,0.4-1.6,0.8-2.4,1.2c-17.2,8.4-30.5,12.4-43.3,13c-3.6,0.2-10.9,0.1-18.5-1.9
			c-7.7-2-13.6-5.5-17.6-10.3c-5.2-6.2-5.3-13.9-5.5-21.4c0-0.8,0-1.6,0-2.4c-0.4-14.1-3.6-28.1-9-39.6l0-0.1
			c-2.3-4.9-4.3-9.1-3.1-15.3c1.4-7.1,4.6-14.1,7.7-20.9c0.8-1.8,1.6-3.6,2.4-5.3c3.8-8.9,8.1-18.3,13.1-28.6
			c7.7-15.9,17.5-31.3,36.9-36.7c10-2.8,20.3-3.3,30.3-3.7c3.4-0.2,6.8-0.3,10.2-0.6c8.4-0.6,14.6-1.8,20.3-3.8
			c12.4-4.5,22.6-13.4,32.8-23c5.2-4.9,9.4-8.9,13.1-12.7c2.9-3,5.7-6,8.5-8.9c1.9-2,3.8-4,5.7-6l0.7,0.7l-0.7-0.7
			c3.7-3.9,8.1-8.2,13.2-10.3c6.4-2.7,13.8-2.4,21.9,1c1.3,0.5,2.6,1.1,3.8,1.8c1.5,0.8,3,1.6,4.4,2.3c3.2,1.7,6.4,3.5,10,4.9
			c11.9,4.7,26.5,5.5,37.9,5.6c12.5,0.1,24,1.7,34.3,4.6l0.8,0.2c6.8,1.9,13.8,3.9,19.4,9.6c5.5,5.6,6.8,13.8,8.1,21.8
			c0.5,3.2,1.1,6.6,1.9,9.7c2.1,7.8,6.2,14.8,12.7,21.7c5.6,5.9,12.5,11,19.1,15.8l0.3,0.2l0.1,0.4c0.4,1.2,6.4,5.1,9.6,7.2
			c3.3,2.1,5.3,3.5,6.1,4.3c0.9,1,1.8,1.9,2.7,2.9c5,5.3,9.8,10.2,12.6,16.6c0.3,0.8,1,2.2,0.3,3.7c-0.9,2.1-3.6,2.4-4.5,2.4
			c-8.2,0.9-16.7,0.2-25-0.4c-2.1-0.2-4.2-0.3-6.2-0.4c-1.5-0.1-2.8-0.2-4.1-0.2c-5.6-0.2-11.8-0.2-15.5,3.4
			c-1.6,1.5-2.5,3.5-3.4,5.5c-0.2,0.5-0.4,0.9-0.6,1.4c-3.2,6.6-9,12.6-15.8,16.4c-7.4,4.2-15.5,5.6-22.8,3.9
			c-5.3-1.2-10-3.8-14.6-6.3c-5.9-3.3-11.5-6.4-18.1-6.6c-4.3-0.1-9.5,1.7-10.8,5.5c-0.8,2.4,0.1,4.8,1,6.8
			c1.7,3.7,3.6,7.3,5.6,10.7c1.1,2,2.2,4,3.3,6.1c2.6,4.9,5.7,10.3,10.9,11.8c4,1.1,8.2,0.4,13.2-0.4c1.8-0.3,3.7-0.6,5.7-0.9
			c1-0.1,2-0.3,3.1-0.5c0.5-0.1,1-0.2,1.5-0.3c4.7-0.8,9.5-1.7,14.2-2.6c2.5-0.5,5-1,7.6-1.4c7.2-1.3,14.5-2,19.6,2.4
			c3.1,2.7,4.5,6.6,5.7,9.8c4.3,12.1,8.9,25.1,13.2,38.6c0.3,1.1,0.8,2.5,1.2,3.9c0.8,3.2,1.5,7.3,0,11.1c-2.2,5.3-7.3,8-15.5,8.3
			c-1.5,0-3,0.1-4.5,0.1c-5.3,0-10.7,0.1-16.6,1.5c-9.7,2.3-19.2,6.5-28.4,10.5c-4.4,1.9-9,3.9-13.4,5.6
			C516.8,425.5,514.9,425.9,513.3,425.9z"></path>
	</g>
	<g>
		<path class="st5 sIESQceU_5" d="M516.8,455.1c-3.1,0-5.9-0.9-7.7-3.2c-1-1.2-2-3.4-1.5-6.7c1.7-10-6-15.5-18.9-23.5c-6.4-3.9-13-8-17.6-13.4
			c-1.1-1.2-2.1-2.6-3.1-3.9c-3.8-5-6.4-8.1-10.1-8c-2,0.1-4.1,1.3-5.9,2.4c-3.8,2.3-7.7,5.2-12.3,9.2c-0.7,0.6-1.4,1.5-2.2,2.4
			c-2,2.5-4.8,5.9-9.8,6.3c-3.2,0.3-6.6-1-9.4-3.6c-9.5-8.7-15.1-21.2-14.9-33.5c0-0.5,0-1,0-1.5c0.2-7.4-0.1-12.9-5.1-15.2
			c-2.6-1.2-6.3-0.9-9.9-0.3c-22.5,3.4-43.9,13.9-66.6,25.2c-1.8,0.9-3.7,1.8-5.5,2.7c-2.5,1.2-5.1,2.5-7.6,3.6l-2.1,1
			c-21.4,10.2-36.8,15-51.5,15.9c-15.1,0.9-35.3-0.5-46.2-12.5c-6.9-7.6-6.9-17.4-6.9-26c0-1,0-2.1,0-3.1
			c-0.2-15.5-4.2-31-11.1-43.6l-0.2-0.4c-3-5.4-6-11-4.6-19c1.4-8.2,4.9-16.2,8.3-23.9c1-2.4,2-4.6,2.9-6.9
			c4.3-10.7,9.1-21.9,14.1-33.2c8.5-19.3,19.6-38.1,43.1-44.2c11.3-2.9,22.9-3.2,34-3.5c4.3-0.1,8.7-0.2,12.9-0.5
			c9.2-0.5,16.3-1.9,22.4-4.1c13.7-5.1,24.8-15.7,35.6-26l2.8-2.7c4.2-4,8.5-8.1,12.7-12.2c1.6-1.6,3.2-3.1,4.8-4.7
			c4-3.9,8.1-7.9,12.2-11.8l2.7,2.9l-2.7-2.9c4.7-4.4,10.3-9.3,16.9-11.5c8.5-2.8,18.1-1.4,27.8,4.2c1.5,0.9,3,1.8,4.5,2.8
			c1.7,1.2,3.4,2.4,5,3.5c3.6,2.6,7,5.1,10.9,7.1c10.2,5.5,23.5,8.4,41.7,9.3c15.4,0.7,28.4,2.1,39.5,4.2c0.6,0.1,1.2,0.2,1.9,0.4
			c7.8,1.5,16.7,3.2,23.8,9.7c7.5,6.9,9.2,17,10.7,26.8c0.6,3.9,1.2,7.6,2.2,11.1c2.3,8.5,7.2,16.3,14.8,23.7
			c6.6,6.5,14.9,12.1,22.9,17.3l1.5,1l0.1,0.9c1.8,1.6,7.7,5.1,11,7c4.2,2.5,6.4,3.8,7.5,4.8c0.6,0.5,1.2,1.1,1.8,1.6
			c6.9,6.3,14.1,12.8,18.5,21.4c0.5,1,1.9,3.8,0.7,6.7c-1.1,2.7-3.7,4.3-7.7,4.5c-9.6,0.7-19.3-0.2-28.6-1.1
			c-2.7-0.3-5.5-0.5-8.3-0.7c-1.7-0.1-3.2-0.2-4.7-0.3c-6.3-0.3-12.6-0.2-15.9,3.2c-1.4,1.5-2.3,3.6-3.1,5.9
			c-0.2,0.6-0.4,1.1-0.7,1.7c-3.5,8.6-10.4,16.5-18.9,21.7c-9.3,5.6-19.5,7.4-28.7,5c-6.6-1.7-12.2-5.1-17.7-8.4
			c-6.5-3.9-12.6-7.7-19.6-8c-4.5-0.2-8.8,1.9-9.6,4.6c-0.5,1.8,0.3,3.8,1.7,6.3c2.8,5,5.8,9.7,9.1,14.6c1.2,1.9,2.5,3.8,3.7,5.7
			c3.5,5.5,7.7,11.4,13.4,12.6c4.5,1,9.4-0.2,15-1.6c2.2-0.5,4.5-1.1,6.9-1.6c1.2-0.2,2.4-0.5,3.6-0.8c0.6-0.1,1.2-0.3,1.7-0.4
			c4.8-1.1,9.6-2.3,14.4-3.4c3.6-0.9,7.4-1.8,11.2-2.7c5.7-1.3,17.6-4.1,25.5,2.9c4.2,3.8,5.8,9,7,13.2c4.4,14.7,9,30.3,13.5,46.5
			c0.4,1.3,0.8,3.1,1.2,4.8c0.9,4.2,1.6,9.7-0.9,14.9c-4.5,9.3-14.4,10.8-22,10.5c-1,0-2-0.1-3-0.2c-7.2-0.4-14.1-0.8-21.7,0.8
			c-11.4,2.3-22.6,7.2-33.5,11.9c-5.1,2.2-10.4,4.5-15.6,6.5C521.4,454.6,519,455.1,516.8,455.1z M515.3,447.2L515.3,447.2
			L515.3,447.2z M515.1,447L515.1,447L515.1,447z"></path>
	</g>
	<g>
		<g>
			<path class="st6 sIESQceU_6" d="M520.2,480.5c-3.2,0-6.2-1-7.9-3.4c-0.9-1.2-1.8-3.4-1.1-6.7c1.3-6.5-0.2-11.9-4.8-17.3
				c-4.3-5-10.9-9.4-17.3-13.6c-7.2-4.8-14.6-9.7-19.5-15.9c-1.1-1.4-2.2-3-3.3-4.5c-3.8-5.4-7.4-10.5-12.7-10.4
				c-2.6,0.1-5.3,1.6-7.5,3.1c-4.6,2.9-9.1,6.5-14.2,11.3c-0.9,0.9-1.8,2-2.7,3.2c-2.2,3-5,6.6-10.1,7.2c-3.3,0.4-6.8-1-9.7-3.6
				c-10.3-9.6-16.1-24.3-15.1-38.5c0-0.5,0.1-1,0.1-1.5c0.7-9.7,0.8-17.3-6-20.9c-3.4-1.8-7.9-1.5-12.3-1
				c-26.9,3.2-52,15.3-78.5,28.2c-1.6,0.8-3.1,1.5-4.7,2.3c-3.7,1.8-7.4,3.5-10.9,5.2l-0.1,0c-16.9,7.9-36.9,16.3-58,18.3
				c-10.1,1-19.1,1-26.9-0.1c-11.7-1.6-20.5-5.4-26.2-11.4c-7.6-8-7.5-18.6-7.4-28c0-1.3,0-2.5,0-3.7c-0.1-17.5-5-35.1-13.7-49.3
				l-0.3-0.5c-3.7-6-7.2-11.7-5.8-20.3c1.4-8.9,5.1-17.6,8.6-26c1.2-2.9,2.4-5.6,3.4-8.4c4.7-12.1,9.7-24.8,15-37.7
				c9-22,20.9-43.2,46.7-49.5c12.2-3,24.8-3.1,36.9-3.1c5.2,0,10.5,0,15.7-0.3c10.4-0.5,18.6-2,25.7-4.6
				c14.8-5.6,26.7-17.3,38.2-28.5c0.8-0.7,1.5-1.5,2.3-2.2c4.9-4.8,10.3-9.9,17.1-16.3c6.2-5.8,12.8-12,19.8-18.1
				c5.6-4.9,11.7-9.8,19.1-11.8c12-3.2,23.3,2.2,30.6,7.3c1.6,1.1,3.3,2.4,4.9,3.7c1.9,1.5,3.8,3.1,5.6,4.7
				c3.9,3.3,7.8,6.7,12.2,9.6c11.7,7.6,26.6,11.8,47.2,13.4c2.5,0.2,4.9,0.4,7.4,0.5c13,0.9,25.2,1.8,36.5,3.3
				c0.9,0.1,1.8,0.2,2.8,0.3c8.8,1.1,18.7,2.3,26.5,8.9c8.6,7.3,10.4,18.7,12.2,29.7c0.7,4.4,1.4,8.9,2.6,13
				c2.8,9.9,8.7,18.9,17.9,27.5c8.2,7.6,18.4,14,27.3,19.4l1.3,0.8l0.1,0.8c2,1.8,10.1,6.3,14.2,8.6c4.5,2.5,7,3.9,8.1,4.8
				c8.6,6.9,18.3,14.8,24.4,25.4c0.6,1.1,2.1,3.7,1.1,6.5c-1,2.6-3.6,4-7.6,4.2c-10.6,0.5-21.3-0.6-31.6-1.8
				c-3.4-0.4-7-0.7-10.4-1.1c-1.9-0.2-3.7-0.3-5.5-0.4c-7.6-0.5-15.2-0.3-19.2,4.1c-1.8,2-2.7,4.7-3.7,7.5c-0.2,0.7-0.5,1.3-0.7,2
				c-3.6,10-11,19.1-20.4,25.1c-10.2,6.5-21.5,8.5-31.7,5.7c-7.3-2-13.6-6.1-19.8-10.1c-7.5-4.9-14.6-9.5-22.9-10
				c-5.1-0.3-11.3,2.1-12.3,6.5c-0.6,2.7,0.7,5.4,2.7,8.7c4.1,6.7,8.8,13.1,13.4,19.4c1.1,1.6,2.3,3.1,3.4,4.7
				c4.8,6.7,10.6,13.9,18.3,15.2c6,1,12.2-0.9,18.8-2.9c2.5-0.8,5.1-1.6,7.8-2.2c1.4-0.4,2.9-0.7,4.4-1.2c0.6-0.2,1.3-0.3,1.9-0.5
				c4.8-1.3,9.7-2.7,14.4-4c4.9-1.4,10-2.8,15-4.2c9.7-2.6,20.5-4.4,28,2.5c4.5,4.1,6,10,7.2,14.7c4.4,17.2,9.1,35.6,13.7,54.3
				c0.4,1.6,0.9,3.5,1.2,5.5c0.8,4.7,1.4,10.7-1.4,16.1c-5.2,9.9-16.4,11.1-24.8,10.4c-1.1-0.1-2.2-0.2-3.2-0.3
				c-8.7-0.8-16.9-1.6-26,0.1c-13.5,2.5-26.7,8.1-39.5,13.6c-5.7,2.4-11.7,5-17.5,7.2C525,480,522.5,480.5,520.2,480.5z"></path>
		</g>
	</g>
	<g>
		<path class="st7 sIESQceU_7" d="M523.7,507.2c-3.8,0-7.3-1.2-9.3-4.1c-1.4-2.1-1.8-4.7-1.1-7.8c1.7-7.7,0.1-14.3-5-20.6
			c-4.8-6-12.3-11.2-19.5-16.2c-8-5.6-16.3-11.4-21.8-18.7c-1.2-1.7-2.4-3.4-3.6-5.2c-4.2-6.4-8.2-12.5-14.2-12.3
			c-2.7,0.1-5.3,1.5-8.4,3.6c-5.1,3.4-10.2,7.6-15.9,13.3c-1,1-2,2.3-3,3.8c-2.5,3.5-5.6,7.8-11.4,8.6c-3.8,0.5-7.8-1-11.1-4.1
			c-11.6-10.8-17.6-27.9-15.8-44.5c0.1-0.5,0.1-1,0.2-1.5c1-9.2,2.3-20.6-6-25.4c-3.8-2.2-8.9-2-13.8-1.6c-31,3-61,17.2-89.9,30.9
			l-4.1,1.9c-3.7,1.8-7.8,3.6-12.4,5.8c-18.8,8.7-41.2,17.9-65.1,20.9c-29.7,3.7-50.3,0-61.1-11c-8.6-8.7-8.4-20.6-8.2-31
			c0-1.5,0.1-2.9,0.1-4.4c0-19.4-5.7-38.7-16.1-54.4l-0.5-0.7c-4.4-6.6-8.5-12.8-7.1-22.4c1.5-9.7,5.4-19.3,9.1-28.6
			c1.4-3.4,2.7-6.6,3.9-9.8c5-13.5,10.4-27.7,16-42.2c4.3-11.1,9.7-23.9,18.1-34.4c8.9-11.2,19.8-18.1,33.2-21.2
			c13.4-3.2,27.1-3,40.4-2.8c6,0.1,12.2,0.1,18.2-0.1c11.6-0.4,20.7-2.1,28.6-5.1c15.9-6.1,28.5-18.7,40.8-30.9
			c1.3-1.3,2.5-2.5,3.8-3.8c5.9-5.9,12.3-12,19-18.1c8.1-7.4,15.5-13.8,22.7-19.7v0c6.4-5.2,13.4-10.5,21.8-12.3
			c7.6-1.7,19.8-1.2,34.5,10.5c1.8,1.4,3.6,3,5.4,4.7c2.1,1.9,4.2,4,6.2,5.9c4.2,4.1,8.5,8.4,13.3,11.9c12.8,9.6,29.4,15,52,17.3
			c10.2,1,20.4,1.6,30.3,2.3c6.3,0.4,12.3,0.8,18.2,1.2c1.2,0.1,2.3,0.2,3.5,0.3c9.9,0.7,21.1,1.4,30,8.5c10,8,12.1,20.9,14.1,33.3
			c0.8,4.9,1.6,10,2.9,14.6c3.2,11.1,9.9,21.1,20.7,30.6c9.8,8.6,22,15.9,31.5,21.2l1.6,0.9l0,0.8c2.5,2,12.1,7.1,16.9,9.6
			c5,2.6,7.6,4,8.7,4.8c12.4,9,22,17.2,28.9,28.2c0.8,1.2,2.6,4.2,1.4,7.4c-0.8,2.1-2.9,4.6-8.7,4.8c-11.7,0.3-23.4-1.1-34.8-2.4
			c-4.1-0.5-8.4-1-12.6-1.4c-2.2-0.2-4.2-0.4-6.1-0.5c-8.5-0.6-17.1-0.5-21.4,4.7c-2,2.3-2.9,5.4-3.9,8.8c-0.2,0.8-0.5,1.5-0.7,2.3
			c-6.2,19.5-26.1,37.2-47.6,37.2c-3.5,0-7-0.5-10.6-1.5c-8.3-2.3-15.3-7.2-22.2-11.9c-8.3-5.7-16.2-11.1-25.5-11.7
			c-5.8-0.4-12.7,2.5-13.6,7.5c-0.6,3.1,1,6.3,3.6,10.2c5.7,8.5,12.2,16.7,18.4,24.7c0.8,1,1.6,2,2.4,3c6,7.6,13.2,15.9,22.4,17.2
			c7.2,1,14.4-1.5,22.1-4.2c2.8-1,5.7-2,8.6-2.8c1.6-0.5,3.3-1,4.9-1.5c0.8-0.2,1.5-0.5,2.3-0.7c4.3-1.3,8.8-2.7,13-4
			c6.6-2.1,13.4-4.2,20.2-6.2c4.4-1.3,10.2-2.8,15.9-3c6.5-0.1,11.9,1.7,15.8,5.3c5.1,4.7,6.7,11.8,7.8,16.9
			c4.5,19.7,9.3,40.8,14,62.2c0.4,1.9,0.9,4.1,1.2,6.3c0.8,5.3,1.3,12.2-2.1,18.3c-6.3,11.2-19.2,12.2-28.9,11.1
			c-1.2-0.1-2.4-0.3-3.6-0.4c-10-1.2-19.4-2.3-29.8-0.6c-15.5,2.6-30.6,9-45.2,15.1c-6.4,2.7-13,5.5-19.5,7.9
			C529.1,506.7,526.3,507.2,523.7,507.2z"></path>
	</g>
	<g>
		<path class="st8 sIESQceU_8" d="M527.2,531.2c-3.5,0-6.7-1-8.2-3.5c-1.1-1.8-1.3-4-0.7-6.8c2.3-9.8,0.5-18.2-5.7-26.3
			c-5.5-7.2-14-13.4-22.2-19.3c-8.7-6.3-17.8-12.9-23.5-20.9c-1.3-1.8-2.5-3.8-3.8-5.8c-4.8-7.7-9.9-15.6-18.1-15.4
			c-3.9,0.1-7.5,2.3-10.8,4.6c-5.9,4-11.6,9-18,15.6c-1.3,1.3-2.4,3-3.6,4.7c-2.7,4-5.5,8-10.7,8.8c-3.4,0.5-7.2-0.9-10.2-3.8
			c-12.2-11.5-18.2-30-15.6-48.1l0.2-1.5c1.5-10.9,3.6-25.9-7.2-32.5c-4.9-3-11.4-3-17.1-2.5c-35.5,2.7-69.1,18.5-101.7,33.7l-4,1.9
			c-4.1,1.9-9,4.2-13.7,6.3c-36.6,16.8-57.4,21.3-71.4,23.3c-32.9,4.8-55.4,1.6-66.8-9.6c-8.8-8.7-8.5-20.5-8.2-31.9
			c0-1.6,0.1-3.3,0.1-5c0.2-21.8-6.6-43.5-19-61.2l-0.7-1c-5-7-9.2-13-7.9-22.6c1.4-10.2,5.5-20.5,9.5-30.4c1.6-3.9,3-7.6,4.4-11.3
			c5.3-15,11-30.7,16.9-46.8c4.4-12.2,10.2-26.2,19-37.5c9.3-11.9,20.7-19.3,34.9-22.5c14.3-3.2,29-2.9,43.3-2.5
			c6.8,0.2,13.8,0.3,20.7,0.1c13.2-0.4,23.4-2.2,32.3-5.7c17.5-6.8,31.2-20.7,44.4-34.1c1.7-1.8,3.5-3.5,5.2-5.2
			c6.7-6.7,13.7-13.3,20.9-19.8c8.8-7.8,17.1-14.8,25.4-21.2l0,0c6.6-5.1,14.4-10.8,23.3-12.4c15.4-2.8,29.2,6.9,36.1,13
			c1.8,1.6,3.7,3.4,5.8,5.5c2.3,2.3,4.5,4.7,6.7,7c4.6,5,9.4,10.2,14.8,14.5c14.5,11.9,33,18.8,58.3,21.8
			c14.7,1.8,29.5,2.3,43.8,2.8c3.2,0.1,6.4,0.2,9.6,0.4c1.4,0.1,2.8,0.1,4.2,0.1c10.7,0.3,22.8,0.6,32,7.6
			c10.6,8.1,12.8,21.8,14.9,35.1c0.9,5.6,1.8,11.4,3.3,16.7c3.7,12.8,11.7,24.3,24.3,35.1c11.5,9.8,25.4,17.6,36.2,23.4l0.5,0.3
			l0,0.4c1.2,1.8,14.2,8.3,21.2,11.9c4.4,2.2,7.9,4,9,4.7c10.4,6.9,23.5,16.6,32.7,30.3c1.2,1.7,2.2,3.8,1.5,5.9
			c-0.8,2.3-3.2,3.4-7.2,3.5c-12.6,0.2-25.3-1.5-37.6-3c-4.8-0.6-9.9-1.3-14.8-1.8c-2.5-0.3-4.7-0.5-6.9-0.6
			c-10.2-0.8-20.5-0.6-26,6.2c-2.5,3.1-3.6,7.1-4.7,11c-0.2,0.9-0.5,1.7-0.7,2.6c-4.2,14.3-14.6,27.2-28,34.5
			c-10.7,5.9-22.4,7.4-32.9,4.3c-8.8-2.6-16.4-8-23.8-13.3c-9.5-6.8-18.5-13.2-29.6-14c-7.7-0.5-16.6,3.4-17.8,10.7
			c-0.8,4.9,2.2,9.6,5,13.6c7.7,10.8,16.3,21.2,24.8,31.3l0.2,0.3c7.5,9,16.6,18.7,28.3,20.1c9,1.1,18-2.4,26.7-5.7
			c3-1.2,6.2-2.4,9.3-3.4c2-0.6,4.1-1.3,6.1-2l1.9-0.6c4.3-1.4,8.7-2.9,12.9-4.3c7.9-2.6,16-5.4,24.1-8c4.8-1.5,11-3.3,17.1-3.5
			c6.6-0.2,11.8,1.5,15.7,5.1c5,4.7,6.5,11.9,7.7,17.7c4.6,22.3,9.4,46,14.2,70c0.4,2.2,0.9,4.5,1.2,6.9c0.8,5.5,1.2,12.6-2.4,18.7
			c-5.3,9-15.5,12.5-30.2,10.5c-1.2-0.2-2.5-0.4-3.7-0.5c-11.6-1.7-22.5-3.2-34.7-1.4c-17.8,2.7-35,9.9-51.6,16.9
			c-7,2.9-14.3,6-21.4,8.6C532.3,530.7,529.7,531.2,527.2,531.2z"></path>
	</g>
	<g>
		<path class="st9 sIESQceU_9" d="M530.5,560.3c-3.6,0-7.1-0.9-9.6-3.2c-2.1-1.9-4.3-5.5-2.8-11.8c2.6-10.3,0.8-19.1-5.5-27.7
			c-5.8-7.9-15-14.8-23.9-21.4c-9.8-7.3-19.9-14.9-26.3-24.3c-1.4-2.1-2.8-4.4-4.2-6.6c-5-8.3-9.8-16.1-17.2-16.1
			c-0.1,0-0.2,0-0.4,0c-3.6,0.1-7.1,2.3-10.5,4.6c-6.3,4.5-12.5,9.9-19.4,17.3c-1.3,1.3-2.4,3.1-3.6,5c-2.9,4.5-6.6,10.1-13.6,11.2
			c-4.6,0.7-9.6-1.1-13.5-4.9c-7.1-6.8-12.4-15.8-15.3-26.2c-2.7-9.6-3.3-20-1.7-30l0.2-1.4c2-12.5,4.5-28-6.1-34.9
			c-4.7-3.1-11.1-3.1-17.2-2.7c-39.3,2.5-76.5,19.7-112.5,36.3c-6,2.8-12.2,5.6-18.3,8.4c-22.7,10.2-49.8,21.3-79.2,26.1
			c-37.7,6.1-63.6,2.9-76.8-9.7c-10.6-10.2-10.2-24.3-9.7-36.7c0.1-1.9,0.1-3.7,0.2-5.5c0.3-23.2-7.1-46.3-21-64.9l-0.9-1.2
			c-5.7-7.7-11.1-14.9-9.6-26.4c1.5-11.4,5.9-22.6,10.2-33.5c1.7-4.4,3.3-8.5,4.8-12.6l17.8-51.3c4.7-13.7,10.9-29.3,20.6-42
			c10.4-13.6,23.3-22,39.6-25.5c15.8-3.4,31.9-2.9,47.5-2.3c7.5,0.3,15.3,0.5,22.9,0.3l0,0c14.1-0.4,25-2.3,34.4-5.9
			c18.2-7.1,32.5-21.9,46.4-36.2c2.1-2.2,4.3-4.4,6.5-6.6c15.9-16.1,33.2-31.1,51.4-44.5c8-5.9,16.7-11.8,27.1-13.4
			c18.3-2.7,34.1,9.3,41.9,16.7c5,4.7,9.5,9.9,13.8,15c4.9,5.7,10,11.6,15.6,16.5c31.1,27.4,76.8,27.7,117.1,28l2.7,0
			c1.6,0,3.2,0,4.9,0c12.2-0.1,26-0.2,36.9,7.8c12.8,9.3,15.3,25.1,17.7,40.3c1,6.1,2,12.4,3.6,18c8.6,29.4,38.4,47.9,66.3,62.1l2,1
			l0,0.8c3.6,2.5,16.5,8.8,22.9,11.9c5.3,2.6,8.3,4.1,9.5,4.8c16.7,10.3,29.1,21.4,37.8,33.8c1,1.4,3.5,5,2.1,8.9
			c-0.9,2.6-3.4,5.6-10.5,5.6c-13.9,0-27.7-1.9-41.1-3.7c-8-1.1-16.3-2.2-24.4-2.9c-10.5-0.9-21-0.8-26.3,5.9c-2.4,3-3.4,7-4.4,11.3
			c-0.2,1-0.5,1.9-0.7,2.9c-4.5,16.8-16.4,31.9-31.8,40.4c-12.4,6.9-25.9,8.6-38.1,4.9c-10.1-3.1-18.6-9.4-27-15.5
			c-10.1-7.4-19.7-14.5-31.1-15.3c-7.3-0.5-15.7,3.2-16.6,9.6c-0.6,4.6,2.5,9.3,5.5,13.4c8.6,11.8,18.2,22.9,28.9,35
			c8.4,9.6,18.5,20,30.9,21.2c9.7,1,19.4-3,28.9-6.9c3.3-1.4,6.8-2.8,10.2-4c7.2-2.5,14.6-5.1,21.7-7.6c9.2-3.3,18.6-6.6,28-9.8
			c12.6-4.3,28.4-7.9,38.8,2c6.1,5.9,7.8,14.7,9,21.1l14.5,77.9c1.9,10.4,3.4,21.2-2.1,30.2c-6.6,10.8-19.2,15-36.7,12.3
			c-1.4-0.2-2.9-0.5-4.3-0.7c-12.7-2-24.6-3.9-37.6-2.1c-19.6,2.8-38.4,10.6-56.7,18.3c-7.7,3.2-15.7,6.5-23.5,9.4
			C537.1,559.6,533.8,560.3,530.5,560.3z"></path>
	</g>
</g>
<style>.sIESQceU_0{stroke-dasharray:564 566;stroke-dashoffset:565;animation:sIESQceU_draw_0 11200ms linear 0ms infinite,sIESQceU_fade 11200ms linear 0ms infinite;}.sIESQceU_1{stroke-dasharray:720 722;stroke-dashoffset:721;animation:sIESQceU_draw_1 11200ms linear 0ms infinite,sIESQceU_fade 11200ms linear 0ms infinite;}.sIESQceU_2{stroke-dasharray:916 918;stroke-dashoffset:917;animation:sIESQceU_draw_2 11200ms linear 0ms infinite,sIESQceU_fade 11200ms linear 0ms infinite;}.sIESQceU_3{stroke-dasharray:1155 1157;stroke-dashoffset:1156;animation:sIESQceU_draw_3 11200ms linear 0ms infinite,sIESQceU_fade 11200ms linear 0ms infinite;}.sIESQceU_4{stroke-dasharray:1383 1385;stroke-dashoffset:1384;animation:sIESQceU_draw_4 11200ms linear 0ms infinite,sIESQceU_fade 11200ms linear 0ms infinite;}.sIESQceU_5{stroke-dasharray:1649 1651;stroke-dashoffset:1650;animation:sIESQceU_draw_5 11200ms linear 0ms infinite,sIESQceU_fade 11200ms linear 0ms infinite;}.sIESQceU_6{stroke-dasharray:1880 1882;stroke-dashoffset:1881;animation:sIESQceU_draw_6 11200ms linear 0ms infinite,sIESQceU_fade 11200ms linear 0ms infinite;}.sIESQceU_7{stroke-dasharray:2129 2131;stroke-dashoffset:2130;animation:sIESQceU_draw_7 11200ms linear 0ms infinite,sIESQceU_fade 11200ms linear 0ms infinite;}.sIESQceU_8{stroke-dasharray:2363 2365;stroke-dashoffset:2364;animation:sIESQceU_draw_8 11200ms linear 0ms infinite,sIESQceU_fade 11200ms linear 0ms infinite;}.sIESQceU_9{stroke-dasharray:2629 2631;stroke-dashoffset:2630;animation:sIESQceU_draw_9 11200ms linear 0ms infinite,sIESQceU_fade 11200ms linear 0ms infinite;}@keyframes sIESQceU_draw{100%{stroke-dashoffset:0;}}@keyframes sIESQceU_fade{0%{stroke-opacity:1;}96.42857142857143%{stroke-opacity:1;}100%{stroke-opacity:0;}}@keyframes sIESQceU_draw_0{7.142857142857142%{stroke-dashoffset: 565}48.8095238095238%{ stroke-dashoffset: 0;}100%{ stroke-dashoffset: 0;}}@keyframes sIESQceU_draw_1{9.457671957671957%{stroke-dashoffset: 721}51.12433862433862%{ stroke-dashoffset: 0;}100%{ stroke-dashoffset: 0;}}@keyframes sIESQceU_draw_2{11.772486772486774%{stroke-dashoffset: 917}53.43915343915343%{ stroke-dashoffset: 0;}100%{ stroke-dashoffset: 0;}}@keyframes sIESQceU_draw_3{14.087301587301587%{stroke-dashoffset: 1156}55.753968253968246%{ stroke-dashoffset: 0;}100%{ stroke-dashoffset: 0;}}@keyframes sIESQceU_draw_4{16.402116402116405%{stroke-dashoffset: 1384}58.06878306878307%{ stroke-dashoffset: 0;}100%{ stroke-dashoffset: 0;}}@keyframes sIESQceU_draw_5{18.71693121693122%{stroke-dashoffset: 1650}60.383597883597886%{ stroke-dashoffset: 0;}100%{ stroke-dashoffset: 0;}}@keyframes sIESQceU_draw_6{21.03174603174603%{stroke-dashoffset: 1881}62.698412698412696%{ stroke-dashoffset: 0;}100%{ stroke-dashoffset: 0;}}@keyframes sIESQceU_draw_7{23.346560846560845%{stroke-dashoffset: 2130}65.0132275132275%{ stroke-dashoffset: 0;}100%{ stroke-dashoffset: 0;}}@keyframes sIESQceU_draw_8{25.66137566137566%{stroke-dashoffset: 2364}67.32804232804233%{ stroke-dashoffset: 0;}100%{ stroke-dashoffset: 0;}}@keyframes sIESQceU_draw_9{27.976190476190478%{stroke-dashoffset: 2630}69.64285714285714%{ stroke-dashoffset: 0;}100%{ stroke-dashoffset: 0;}}</style></svg>
