<!--?xml version="1.0" encoding="utf-8"?-->
<!-- Generator: Adobe Illustrator 21.0.2, SVG Export Plug-In . SVG Version: 6.00 Build 0)  -->
<svg version="1.1" id="_x31_9" xmlns="http://www.w3.org/2000/svg" xmlns:xlink="http://www.w3.org/1999/xlink" x="0px" y="0px" width="750px" height="600px" viewBox="0 0 750 600" style="" xml:space="preserve">
<style type="text/css">
	.st0{fill:none;stroke:#FF5000;stroke-width:10;stroke-miterlimit:10;}
	.st1{fill:none;stroke:#B21E28;stroke-width:9;stroke-miterlimit:10;}
	.st2{fill:none;stroke:#7C2582;stroke-width:6;stroke-miterlimit:10;}
	.st3{fill:none;stroke:#1D4F90;stroke-width:3;stroke-miterlimit:10;}
	.st4{fill:none;stroke:#65CBC9;stroke-width:4;stroke-miterlimit:10;}
	.st5{fill:none;stroke:#FF5000;stroke-width:5;stroke-miterlimit:10;}
	.st6{fill:none;stroke:#65CBC9;stroke-width:2;stroke-miterlimit:10;}
	.st7{fill:none;stroke:#1D4F90;stroke-width:2;stroke-miterlimit:10;}
	.st8{fill:none;stroke:#C227B9;stroke-width:4;stroke-miterlimit:10;}
	.st9{fill:none;stroke:#7C2582;stroke-width:3;stroke-miterlimit:10;}
	.st10{fill:none;stroke:#00ADBB;stroke-width:6;stroke-miterlimit:10;}
	.st11{fill:none;stroke:#65CBC9;stroke-width:3;stroke-miterlimit:10;}
</style>
<g>
	<g>
		<path class="st0 RdXxAQmc_0" d="M510,408.2c-2.3,0-5.2-0.1-8.9-0.4c-7-0.4-16.4-1.3-28.1-2.5c-20.4-2.1-41.4-4.7-44.4-5.2
			c-10.5-1.7-19.8-4.6-26.8-8.4c-10.6-5.7-13-11.9-13.3-16.1c-0.5-9.2,8.2-16.3,26-21.3l0,0c3.1-0.9,3.8-2.3,2.8-11.4
			c-0.6-5.9-1.4-12.6,3-17.3c2.8-3,6.9-4.5,12.5-4.4c11.7,0.2,16.8,12.4,21.4,23.2c3.4,8.1,6.9,16.5,12.1,18.5
			c2.3,0.9,5.2,0.6,8.8-1c5.4-2.4,10.4-6.9,15.2-11.2c7.6-6.8,15.4-13.9,25.4-12.9c7.5,0.8,14.4,5.9,21.7,16
			c7.1,9.9,11.3,17.7,8.2,23.7c-2.9,5.8-10,5.8-16.8,5.8c-7.3,0-12.7,0.3-15.3,3.3c0.6,0.9,1.7,2.3,2.4,3.2
			c2.9,3.7,7.9,9.9,3.4,15.6C517.8,407.5,515.7,408.2,510,408.2z"></path>
	</g>
	<g>
		<g>
			<path class="st1 RdXxAQmc_1" d="M465.4,420.5c-2.4,0-4.9-0.4-7.5-1.1c-8.6-2.3-15.4-5.3-21.5-7.9c-1.7-0.7-3.2-1.4-4.8-2
				c-4.2-1.8-6.7-1.5-8.1-1.2c-6.4,1.4-11.7,0-16.9-1.4c-11.8-3.1-22-8.7-27.9-15.1c-11.5-12.4-5-22.4,2.8-30.5
				c11.8-12.3,16.6-27,20.5-46.8c0.2-0.9,0.3-1.8,0.4-2.7c0.7-5,1.7-11.9,10.8-14.3c2.3-0.6,10.5-1.7,19.1,10.4
				c1.8,2.5,3.5,5.6,5.4,8.8c2.7,4.7,5.7,9.9,8.4,12.7c2,2,3.5,2.7,5.3,3.6c0.6,0.3,1.1,0.6,1.7,0.9c2.9,1.5,7.2,0.4,11.7-0.9
				c5.5-1.7,11.1-3,16.6-4.1c1.7-0.3,3.4-0.7,5.2-1.2c3.4-0.8,7-1.6,10.7-2c0.6-0.1,1.3-0.1,1.9-0.2c6.5-0.8,14.6-1.7,24,2.8
				c8.1,3.9,11.7,11,15.1,18.6c5.1,11.7,6.1,18.8,3.1,23.7c-3.3,5.3-9.6,5.7-15.7,6.1c-7.3,0.4-12.3,1.1-15.1,5.4
				c0.2,0.9,1.4,2.9,2.2,4.1c2.3,3.7,5.8,9.3,1.9,14.3c-2.5,3.2-7.4,4.7-13.6,6.7c-3.1,1-6.3,2-9.3,3.2c-4.7,2-9.1,4-14.8,7.2
				C473.5,419.4,469.6,420.5,465.4,420.5z"></path>
		</g>
	</g>
	<g>
		<path class="st2 RdXxAQmc_2" d="M465,434.6c-2.4,0-5.2-0.5-8.5-1.6c-9.9-3.5-17.3-8.4-23.8-12.8c-2.4-1.6-4.8-3.2-7.1-4.6
			c-4.7-2.9-7.4-2.7-10.8-1.5c-7.7,2.8-13.9,1.6-20.7-0.2c-14.3-3.8-26.9-11.2-33.8-19.9c-11.7-14.8-3.6-25,4.9-35.7
			c3-3.8,3.2-8.9,3.4-14.3l0-0.9c0.3-7.6,2-14.6,5.1-20.7c4.6-8.9,9.5-19.1,11.4-27.9c0.5-2.1,0.4-4.4,0.4-6.7
			c0-5.5,0-12.3,7.1-15.9l0,0c9.4-4.8,20.1,8.1,22.2,10.7c2.4,3.1,4.5,6.4,6.5,9.6c1.9,3,3.6,5.8,5.7,8.4c1.8,2.3,3.7,4.8,5.9,6.3
			c2,1.3,5.4,1.5,9.6,0.4c3.9-1,7.5-2.7,11.4-4.6c2.8-1.3,5.7-2.7,8.8-3.8c2.4-0.9,4.4-1.3,6.2-1.4c3.5-0.2,6.2,1.8,8.1,3.2
			c0.3,0.2,0.6,0.5,0.9,0.7c2.1,1.5,4.4,2.7,6.9,3.7c5.2,2.1,10.8,3.1,16.6,4.1c6.5,1.2,13.3,2.4,19.7,5.2
			c10.3,4.6,15.3,11.9,15.6,23c4.8,9.1,6,15.3,3.8,20c-2.7,5.8-9.4,7.2-16.5,8.6c-7.2,1.5-14.6,3-18.3,8.8c-0.6,0.9,0.6,3.4,1.5,5.5
			c1.6,3.6,3.8,8.6,0.5,12.8c-3.2,4.1-7.3,6.7-11.4,9.3c-2.1,1.3-4,2.6-5.8,4c-4.4,3.5-6.8,8.6-9.4,14.1c-1,2.1-2,4.2-3.1,6.3
			C476.6,429.9,472.6,434.6,465,434.6z"></path>
	</g>
	<g>
		<path class="st3 RdXxAQmc_3" d="M466.1,447.5c-2.7,0-5.7-0.7-9.2-2.1c-11-4.5-18.6-10.9-26-17.1c-3.1-2.6-6-5-9.1-7.4
			c-6.5-4.8-10.5-4.4-15.7-2.1c-8.1,3.6-14.4,3-23.2,0.8c-16.4-4.3-31.2-13.4-38.7-23.9c-10.7-14.9-4.3-23.8,4.6-36.2
			c0.8-1.2,1.7-2.4,2.6-3.6c4-5.7,4.5-10.1,1.7-14.4c-5.6-8.7-6.3-20.2-1.8-29.3c2.2-4.4,4.9-8.6,7.5-12.7c3-4.7,6.1-9.5,8.4-14.7
			c1.6-3.6,2.8-6.8,3.5-9.8c0.8-3.5,0.4-7.3-0.1-11.1c-0.7-6.2-1.5-12.7,4-16.6l0,0c8.1-5.7,20.4,8.2,22.8,11.1
			c2.7,3.2,5,6.7,7.3,10.1c1.7,2.5,3.5,5.2,5.4,7.6l0.4,0.6c2.6,3.4,5.3,6.9,8.9,9.2c5.9,3.7,12.9-0.9,18.3-5.2l0.7-0.6
			c6.4-5.1,12.4-9.9,20.2-12.9c2.7-1,4.9-1.4,6.7-1.3c5.1,0.4,6,5.2,6.5,8.1c0.1,0.8,0.3,1.8,0.5,2c0.3,0.2,0.5,0.7,0.8,1.6
			c0.1,0.3,0.2,0.6,0.3,0.8c2.8,4.7,9.8,13.2,25.5,17.3c1.7,0.4,3.4,0.8,5,1.2c5.3,1.3,10.8,2.6,16,4.8c12.3,5.2,17,13.2,14.9,25.8
			c3.5,7.9,4.2,13.5,2.3,17.7c-2.5,5.4-8.9,7.3-15.8,9.4c-7.2,2.2-15.3,4.6-19.9,11.4c-1.5,2.3-0.7,5.2,0.2,8.3
			c1,3.5,2,7.2-0.4,10.3c-2.8,3.6-6.2,6.9-9.5,10.1c-2.1,2-4.2,4.1-6.2,6.2c-3.5,3.7-5.7,7-6.5,11.5c-0.6,3.7-0.6,7.6-0.6,11.4
			c0,4.2,0,8.6-0.8,12.9c-0.9,4.5-3,7.7-6,9.4C470.1,447,468.2,447.5,466.1,447.5z M471.1,277.3L471.1,277.3L471.1,277.3z"></path>
	</g>
	<g>
		<g>
			<path class="st4 RdXxAQmc_4" d="M467.2,463.8c-3.2,0-6.9-0.9-11.1-2.8c-12.7-5.6-21-13.9-29.1-21.8c-3.6-3.5-7-6.9-10.8-10.1
				c-7.1-5.9-11.1-5.5-17.5-2.3c-10.1,5-17.2,4.5-27.8,1.9c-19.3-5-36.8-16.2-45.5-29.2c-5.4-8-7.1-15.1-5.4-22.2
				c1.5-6.4,5.4-12.2,10-18.8c1.5-2.2,3.1-4.5,4.7-7c2.5-3.9,4.8-9.7,1.3-14.6c-1.3-1.8-2.7-3.5-4.1-5.1c-2.9-3.3-5.8-6.8-7.6-11.4
				c-3.1-8.1-1.5-16.7,4.7-25.7c1.7-2.4,3.5-5,5.5-7.7c7.4-10.1,15.8-21.5,18.3-32.3c1-4.3,0-9.4-0.9-14.4c-1.5-7.6-3-15.4,2.9-20.5
				l0,0c8.9-7.8,23.6,7.4,27.9,12.3c2.1,2.3,4.4,5.6,7.1,9.4c6.6,9.1,15.6,21.6,23,22.8c4.4,0.7,6.9-2.5,9.6-5.8
				c1.1-1.4,2.2-2.7,3.4-3.7c1.4-1.2,3.1-3,5.1-5.1c5.3-5.7,12.7-13.6,22.4-17.3c3.4-1.3,6.1-1.8,8.3-1.4c7.3,1.2,6.9,10.5,6.7,15
				c0,0.8-0.1,1.8,0,2.1c1.1,7.4,6.9,14.5,13.9,22.4c5.3,6,13,8.1,21.9,10.6c5,1.4,10.3,2.8,15.8,5.1c7.7,3.1,12.8,7.1,15.4,12.1
				c2.7,5.1,3,11.4,0.9,19.1c6.8,20.4-5.2,25.2-16.9,29.9c-7.2,2.9-14.7,5.9-19.4,12.5c-1.5,2.2-1.2,4.9-0.8,8
				c0.4,3.6,0.9,7.6-1.8,11.1c-2.2,2.8-4.8,5.6-7.5,8.6c-7.2,7.9-15.5,16.8-15.3,25c0.1,5.8,1.4,10.8,2.8,16.2
				c1.6,6,3.2,12.2,3,19.8c-0.2,6.5-2.3,11.3-6.2,13.7C472.1,463.2,469.8,463.8,467.2,463.8z"></path>
		</g>
	</g>
	<g>
		<g>
			<path class="st5 RdXxAQmc_5" d="M468.9,479.7c-3.7,0-8-1.1-12.9-3.4c-14.3-6.7-23.4-16.8-32.3-26.5c-3.9-4.3-8-8.8-12.4-12.8
				c-7.8-7.1-12.2-6.6-19.8-2.6c-10.7,5.7-18.4,6.4-32.1,2.9c-22.3-5.7-42.2-18.9-52-34.4c-12.7-19.8-4.4-31.9,5.1-45.8
				c2.1-3.1,4.3-6.4,6.5-9.9c1.4-2.3,4.4-8.1,2.5-13.4c-1.2-3.3-4.6-5.9-7.8-8.4c-1.7-1.3-3.5-2.7-5-4.1
				c-11.8-11.7-12.8-27.5-2.6-41.2c2.3-3.1,4.9-6.3,7.7-9.8c9-11.2,19.3-23.8,22.2-35.8c1.3-5.1-0.3-11.5-1.8-17.7
				c-2.2-8.8-4.4-17.9,1.6-24.1l0,0c2-2,4.4-3.1,7.3-3c8.8,0.1,19.5,10.3,25,16.3c2.3,2.5,5,6.1,8.1,10.3
				c7.8,10.5,18.5,24.9,27.2,25.2c5.3,0.2,8.3-4.6,11.3-9.2c1.1-1.8,2.2-3.5,3.4-4.9c1.2-1.4,2.7-3.4,4.4-5.6
				c6.1-8.2,14.5-19.4,26.1-24c4-1.6,7.2-2,9.8-1.4c8.7,2.1,6.8,14.8,5.9,21c-0.2,1.1-0.3,2-0.3,2.5c-0.6,10.5,6.4,20.4,13.8,30.9
				c6.1,8.7,15.3,11.4,27,14.9c4.9,1.5,10.1,3,15.4,5.1c9.2,3.6,15.1,8.3,17.9,14.1c2.9,6,2.7,13.2-0.5,22.1
				c4.4,20-7.9,26.2-19.9,32.1c-7.1,3.5-14.4,7.2-19.3,13.8c-1.7,2.3-1.8,5.1-1.9,8.3c-0.1,3.6-0.3,7.7-3.1,11.3
				c-1.8,2.3-3.8,4.7-5.9,7.2c-9.1,10.8-19.5,23.1-17.6,34.6c1.1,7.1,3.5,13.2,6,19.7c3,7.9,6.1,16,6.9,25.9
				c0.6,8.3-1.6,14.6-6.1,17.8C474.5,478.9,471.9,479.7,468.9,479.7z"></path>
		</g>
	</g>
	<g>
		<path class="st6 RdXxAQmc_6" d="M471.7,493.5c-3.9,0-8.5-1.3-13.8-3.9c-15.5-7.6-25.3-19.3-34.8-30.6c-4.4-5.3-9-10.7-14.1-15.7
			c-9.4-9.2-15.2-8.4-24.5-3.2c-11.9,6.7-20,7.6-34.8,3.8c-24.3-6.2-46.8-21.3-57.3-38.6c-6-9.7-7.8-18.1-5.9-26.6
			c1.8-7.6,6.5-14.6,11.6-22.1c2.7-4,5.5-8.1,8.1-12.6c4.9-8.6,4.7-15.5-0.7-21.2c-2.3-2.4-5-4.3-7.7-6.1c-1.5-1-3.1-2.1-4.6-3.3
			c-8.8-7-14.1-14.2-15.8-21.5c-2.2-10,3.8-19.1,8.5-25.1c2.8-3.6,6.2-7.5,9.7-11.5c10.9-12.5,23.2-26.6,26.6-40.5
			c1.6-6.5-0.6-14.4-2.8-22c-2.8-10-5.5-19.4,0-25.8l0.5,0.5l-0.5-0.5c1.7-2,3.9-3,6.6-3.1c0.1,0,0.2,0,0.3,0
			c8.3,0,19.2,9.5,26.9,17.5c2.5,2.6,5.5,6.6,9,11.1c9.3,12.2,22,28.9,33,28.5c7.5-0.2,11.4-7.5,14.8-14c1.1-2.1,2.2-4.1,3.3-5.7
			c1.2-1.7,2.4-3.7,3.9-6c6.2-9.9,15.7-24.8,28.6-29.9c4.2-1.7,7.5-2.1,9.9-1.4c8.2,2.5,5.1,17.4,3.6,24.6c-0.2,1.1-0.4,2.1-0.5,2.8
			c-2.1,13.8,5.6,26.7,13.7,40.3l0.4,0.6c7.3,12.2,19.2,15.9,33,20.1c4.9,1.5,9.9,3,15.1,5.1c10.5,4.1,16.8,9.2,19.5,15.6
			c2.6,6.2,1.8,13.9-2.4,23.5c2.1,18.6-9.5,25.5-21.7,32.8c-7.1,4.2-14.4,8.6-19.8,15.5c-2.3,2.9-2.9,6.2-3.5,9.6
			c-0.6,3.5-1.3,7.1-3.9,10.4c-1.3,1.7-2.7,3.4-4.2,5.3c-11.5,14.3-24.5,30.4-20.5,46.4c2.1,8.5,5.7,16.1,9.1,23.5
			c4.5,9.6,9.1,19.5,10.7,31.4c1.3,9.4-0.5,16.5-5.2,19.9C477.2,492.8,474.7,493.5,471.7,493.5z"></path>
	</g>
	<g>
		<g>
			<path class="st7 RdXxAQmc_7" d="M474.6,512.8c-5.3,0-11-2.2-15.6-4.5c-17.2-8.7-27.7-22.2-38-35.2c-4.9-6.2-9.9-12.6-15.6-18.5
				c-10.2-10.5-16.3-9.6-26.8-3.5c-13.5,7.9-22.7,9-39.1,4.9c-27.1-6.9-52.2-24-63.8-43.7c-14.1-23.7-4.6-37.7,6.4-53.9
				c3.2-4.7,6.5-9.6,9.6-15.1c6.1-11,4.3-19.7-5.5-26.4c-2-1.4-4.1-2.7-6.1-4.1c-7.7-5-15-9.7-20.5-17.7c-8.3-12-6.7-25.6,4.5-39.4
				c3.4-4.1,7.5-8.6,11.8-13.3c12.6-13.7,26.8-29.2,30.7-44.4c1.9-7.3-1-16.5-3.8-25.3c-3.6-11.3-7-22-1.1-29.4h0
				c1.9-2.4,4.3-3.7,7.3-3.9c7.4-0.4,17.5,5.9,30.9,19.4c2.8,2.8,6.2,7.2,10.1,12.2c10.5,13.5,24.9,32,37.2,30.9
				c8.5-0.8,12.7-9.8,16.4-17.8c1.2-2.5,2.2-4.8,3.4-6.7c1.1-1.8,2.3-4,3.6-6.3c6.8-12.3,17.2-30.8,31.8-36.7
				c4.8-2,8.5-2.4,11.4-1.4c9.5,3.4,4.9,21.8,2.7,30.7c-0.3,1.1-0.5,2.1-0.7,2.8c-3.6,16.5,4.6,32,13.3,48.3l0.7,1.2
				c8.1,15.2,21.8,19.5,37.7,24.4c4.9,1.5,10,3.1,15.2,5.1c11.9,4.5,19.1,10.3,21.9,17.5c2.8,7.1,1.5,15.8-3.8,26.6
				c-0.3,18.3-12.2,26.5-24.8,35.2c-6.9,4.8-14,9.7-19.5,16.5c-2.5,3-3.6,6.4-4.7,9.9c-1.2,3.5-2.4,7.2-5,10.6c-0.8,1-1.6,2-2.4,3.1
				c-13,16.5-29.3,37.1-23,56.9c3.1,9.7,7.7,18.4,12.1,26.9c6,11.5,12.2,23.3,14.8,37.6c2.1,11.3,0.3,19.8-5.2,23.9
				C480.5,512.1,477.6,512.8,474.6,512.8z"></path>
		</g>
	</g>
	<g>
		<path class="st8 RdXxAQmc_8" d="M478.4,532.2c-5.9,0-12.3-2.5-17.5-5.2c-18.9-9.8-30.3-25.1-41.2-39.9c-5.3-7.1-10.8-14.5-17.1-21.2
			c-10.7-11.4-16.8-10.9-28.7-3.7c-15.4,9.3-25.2,10.6-43.6,6c-30-7.6-57.7-26.8-70.5-48.9c-15.3-26.3-4.9-41.7,7.2-59.4
			c3.7-5.5,7.6-11.1,11-17.5c6-11.3,4.5-20.4-4.4-27c-3.7-2.8-7.9-5.2-11.8-7.5c-4.7-2.8-9.7-5.7-14.1-9.2
			c-7.7-6.2-16.7-17.5-16.4-29.3c0.2-9.8,6.5-18.5,12-24.9c3.9-4.7,8.7-9.6,13.8-14.9c14.3-14.9,30.4-31.7,34.7-48.4
			c2.1-8.1-1.5-18.4-4.9-28.4c-4.3-12.7-8.4-24.8-2.2-33.3l0,0c2.1-2.9,4.9-4.5,8.3-4.8c11.9-1,28.4,15.1,34.6,21.2l0.1,0.1
			c3.1,3.1,6.9,7.8,11.2,13.3c11.7,14.8,27.7,35,41.1,33.1c9.3-1.3,13.9-12,17.9-21.5c1.2-2.8,2.3-5.4,3.5-7.6
			c1-1.9,2.1-4.1,3.3-6.5c7.4-14.7,18.7-36.9,35.1-43.7c5.5-2.3,9.8-2.7,13-1.4c11,4.4,4.8,26.5,1.8,37.1c-0.3,1.1-0.6,2-0.8,2.8
			c-4.9,19.1,3.8,37.2,13,56.3l0.9,1.8c8.7,18.1,24.2,23,42.1,28.7c4.9,1.6,10.1,3.2,15.3,5.2c13,4.9,20,10.6,22.7,18.5
			c2.5,7.2,1.5,16.2-3.4,31c-5.7,17.2-17,27.1-28.9,37.5c-6.2,5.4-12.6,11-18.3,17.8c-2.7,3.2-4.4,6.7-6.1,10.4
			c-1.6,3.5-3.3,7.1-6,10.6l-0.5,0.7c-15.3,19.5-34.2,43.7-25.5,67.3c4,10.8,9.5,20.7,14.9,30.2c7.5,13.4,15.3,27.2,19,43.9
			c2.9,13.1,1,23.4-5.2,28.1C485,531.4,481.8,532.2,478.4,532.2z"></path>
	</g>
	<g>
		<path class="st9 RdXxAQmc_9" d="M480.9,550.3c-4.6,0-10.7-1.5-18.7-5.7c-20.3-10.8-32.4-27.8-44.1-44.2c-5.8-8.1-11.7-16.5-18.7-24.1
			c-12-13.2-18.9-12.6-32.5-4.2c-16.8,10.3-27.3,11.9-47,6.9c-14.9-3.8-30.4-10.7-43.5-19.6c-14.4-9.7-25.7-21.4-32.8-33.9
			c-16.1-28.3-4.9-44.6,8-63.6c4.2-6.2,8.6-12.6,12.4-19.9c4.2-8,7.2-19.4-2.2-27.9c-4.9-4.5-11.1-7.6-17.1-10.6
			c-1-0.5-1.9-1-2.9-1.5c-8.1-4.1-27.5-15.8-32.4-34.4c-3.5-13.4,5.3-25.6,12.3-33.6c4.5-5.1,9.9-10.6,15.8-16.5
			c16.1-16.2,34.3-34.5,39.1-52.9c2.4-9.2-1.8-20.9-5.9-32.3c-5-13.8-9.7-26.8-3.5-36c2-3,4.8-4.7,8.2-5.1
			c12.3-1.3,29.5,15.2,36.8,22.2l0.6,0.6c3.4,3.2,7.5,8.3,12.2,14.3c13.1,16.3,31,38.6,46.3,35.9c11-1.9,16.3-15.4,20.5-26.2
			c1.2-3.1,2.3-6,3.5-8.4c1-2,2-4.3,3.2-6.7c7.9-17,19.9-42.7,37.6-50c5.8-2.4,10.3-2.9,13.6-1.5c11.3,4.9,3.7,29.9,0.1,41.9
			c-0.3,1.1-0.6,2-0.8,2.7c-6.4,22.2,3.4,44.1,12.9,65.3l1,2.3c9.6,21.4,27,27,47.2,33.5c5,1.6,10.3,3.3,15.6,5.3
			c13.4,5,21.1,10.8,24.4,18.4c3.5,8.2,2,18.9-4.8,34.7c-7.2,16.8-19.1,28.1-31.7,40.1c-6,5.7-12.3,11.6-18,18.3
			c-3.2,3.6-5.5,7.4-7.9,11.4c-2,3.3-4.1,6.7-6.6,10c-9.4,12-18.4,23.9-24.2,36.7c-6.8,15.1-7.7,28.4-2.7,40.7
			c4.9,12.1,11.5,23.1,17.8,33.7c9.1,15.2,18.4,30.8,23.1,49.8c3.6,14.6,1.9,25.9-4.7,31C488.4,548.9,485.4,550.3,480.9,550.3z"></path>
	</g>
	<g>
		<path class="st10 RdXxAQmc_10" d="M483.5,571.2c-7.2,0-15.1-3.2-21.4-6.6c-22.4-12-35.4-31-48-49.4c-6.2-9-12.5-18.2-19.9-26.7
			c-12.1-13.7-18.5-13.1-32.6-4.2c-18.9,11.8-30.7,13.7-52.6,8.2c-16.3-4.1-33.3-11.8-47.8-21.7C245.4,460,233,447,225.2,433.1
			c-8.1-14.5-10.5-27.1-7.4-39.6c2.7-11.1,9.3-20.8,16.3-31.1c4.7-6.9,9.6-14,13.7-22.1c4.1-8,5.2-14.5,3.5-19.8
			c-2.8-8.6-13.3-13.8-24.3-19.3c-7.8-3.9-16-8-22.2-13.6c-13.3-12.1-19.7-21.8-21-31.6c-1.4-10.5,3.3-21.4,14.8-34.3
			c5.1-5.7,11.3-11.8,18-18.3c17.6-17.2,37.6-36.7,42.6-56.1c2.5-9.5-2.3-22.2-6.9-34.5c-5.6-14.9-11.4-30.2-4.4-41.1
			c2.5-3.9,5.9-6.1,10.2-6.6c14-1.7,33.2,16.4,41.4,24.1l1,1c3.8,3.5,8.3,9.1,13.6,15.6c14,17.2,33.1,40.8,48.7,37.6
			c11.1-2.3,16.6-17.2,21.1-29.2c1.2-3.3,2.4-6.5,3.6-9.2c0.9-2.1,2-4.5,3.1-7c8.6-19.6,21.5-49.3,41.4-57.6
			c6.9-2.9,12.3-3.4,16.4-1.5c13.8,6.5,4.4,36-0.1,50.1c-0.3,1-0.6,1.8-0.8,2.6c-7.6,24.4,2.7,48.7,12.6,72.3l1.2,2.8
			c10,23.8,28,29.6,50.7,36.9c5.1,1.7,10.4,3.4,15.8,5.4c16,5.9,25.1,13,28.7,22.4c3.7,9.7,1.4,21.9-7.2,38.2
			c-9.2,17.3-22.8,31.1-36,44.5c-5.6,5.6-11.3,11.5-16.7,17.5c-3.9,4.4-7.2,8.8-10.7,13.6c-2,2.7-4,5.5-6.2,8.2
			c-9.2,11.8-19.6,25.6-25.8,40.3c-6.9,16.2-7.4,30.5-1.6,43.8c5.7,13.1,13.3,25.2,20.5,36.8c10.7,17.2,21.8,34.9,27.5,56.5
			c4.6,17.2,2.7,30.6-5.2,36.8C491.6,570.1,487.6,571.2,483.5,571.2z"></path>
	</g>
	<g>
		<g>
			<path class="st11 RdXxAQmc_11" d="M485.9,589c-5.5,0-12.8-1.8-22.4-7.1c-23.7-13-37.4-33.6-50.7-53.5c-6.6-10-13.5-20.3-21.6-29.7
				c-6.8-7.8-11.9-11.4-17.2-12c-5-0.5-10.6,1.6-19.5,7.2c-20.4,13-32.4,15-55.8,9.1c-17.4-4.4-35.6-12.6-51-23.3
				c-17-11.6-30.3-25.7-38.5-40.6c-8.5-15.3-10.9-28.6-7.7-41.8c2.9-11.7,9.9-22,17.4-32.9c5.2-7.6,10.6-15.5,15.1-24.5
				c4.5-9,5.7-16.3,3.6-22.4c-3.4-9.9-15.3-15.6-28-21.7c-8.8-4.2-17.8-8.6-24.7-14.7c-15.9-14-22.9-24.7-23.6-36
				c-0.6-10.4,4.5-21.1,16.1-33.9c5.5-6.1,12.4-12.7,19.7-19.6c19.5-18.6,41.7-39.7,47.3-61c2.8-10.7-2.7-24.9-8-38.5
				c-6.5-16.6-12.6-32.2-5.6-43.6c2.4-3.9,5.7-6.2,10-6.8c6.3-0.9,14.2,2.1,24.2,9.1c7.8,5.5,14.9,12.1,19.2,16
				c0.6,0.5,1.1,1,1.6,1.5c4,3.7,8.9,9.6,14.5,16.6c15.4,18.8,36.5,44.6,54.2,40.5c12.9-3,18.9-20.2,23.7-34c1.3-3.6,2.5-7.1,3.7-10
				c0.9-2.1,1.8-4.4,2.8-6.8c9.1-22,22.7-55.3,43.8-64.1c8.7-3.6,15.1-3.6,19.1,0.2c9,8.3,2.8,31.5-4.4,53c-0.3,0.9-0.6,1.7-0.8,2.4
				c-9,27.5,1.9,54.9,12.4,81.5l1.3,3.3c10.9,27.4,31.8,34.2,56.1,42c5.2,1.7,10.5,3.4,16,5.4c17.6,6.4,27.8,14.6,31.3,24.9
				c3.5,10.4,0.4,23.1-9.7,38.9c-12.1,19.1-28.1,36.1-43.5,52.5c-10.6,11.2-21.5,22.8-30.9,34.9c-10.7,13.7-21.5,28.5-27.9,44.4
				c-7.2,18.1-7.4,34.2-0.5,49.2c6.6,14.4,15.2,27.6,23.4,40.4c12.2,19,24.9,38.6,31.6,62.3c5.2,18.5,3.6,32.8-4.6,39.4
				C494.9,587.3,491.2,589,485.9,589z"></path>
		</g>
	</g>
</g>
<style>.RdXxAQmc_0{stroke-dasharray:447 449;stroke-dashoffset:448;animation:RdXxAQmc_draw_0 11200ms linear 0ms infinite,RdXxAQmc_fade 11200ms linear 0ms infinite;}.RdXxAQmc_1{stroke-dasharray:489 491;stroke-dashoffset:490;animation:RdXxAQmc_draw_1 11200ms linear 0ms infinite,RdXxAQmc_fade 11200ms linear 0ms infinite;}.RdXxAQmc_2{stroke-dasharray:573 575;stroke-dashoffset:574;animation:RdXxAQmc_draw_2 11200ms linear 0ms infinite,RdXxAQmc_fade 11200ms linear 0ms infinite;}.RdXxAQmc_3{stroke-dasharray:677 679;stroke-dashoffset:678;animation:RdXxAQmc_draw_3 11200ms linear 0ms infinite,RdXxAQmc_fade 11200ms linear 0ms infinite;}.RdXxAQmc_4{stroke-dasharray:817 819;stroke-dashoffset:818;animation:RdXxAQmc_draw_4 11200ms linear 0ms infinite,RdXxAQmc_fade 11200ms linear 0ms infinite;}.RdXxAQmc_5{stroke-dasharray:961 963;stroke-dashoffset:962;animation:RdXxAQmc_draw_5 11200ms linear 0ms infinite,RdXxAQmc_fade 11200ms linear 0ms infinite;}.RdXxAQmc_6{stroke-dasharray:1096 1098;stroke-dashoffset:1097;animation:RdXxAQmc_draw_6 11200ms linear 0ms infinite,RdXxAQmc_fade 11200ms linear 0ms infinite;}.RdXxAQmc_7{stroke-dasharray:1244 1246;stroke-dashoffset:1245;animation:RdXxAQmc_draw_7 11200ms linear 0ms infinite,RdXxAQmc_fade 11200ms linear 0ms infinite;}.RdXxAQmc_8{stroke-dasharray:1394 1396;stroke-dashoffset:1395;animation:RdXxAQmc_draw_8 11200ms linear 0ms infinite,RdXxAQmc_fade 11200ms linear 0ms infinite;}.RdXxAQmc_9{stroke-dasharray:1540 1542;stroke-dashoffset:1541;animation:RdXxAQmc_draw_9 11200ms linear 0ms infinite,RdXxAQmc_fade 11200ms linear 0ms infinite;}.RdXxAQmc_10{stroke-dasharray:1704 1706;stroke-dashoffset:1705;animation:RdXxAQmc_draw_10 11200ms linear 0ms infinite,RdXxAQmc_fade 11200ms linear 0ms infinite;}.RdXxAQmc_11{stroke-dasharray:1849 1851;stroke-dashoffset:1850;animation:RdXxAQmc_draw_11 11200ms linear 0ms infinite,RdXxAQmc_fade 11200ms linear 0ms infinite;}@keyframes RdXxAQmc_draw{100%{stroke-dashoffset:0;}}@keyframes RdXxAQmc_fade{0%{stroke-opacity:1;}96.42857142857143%{stroke-opacity:1;}100%{stroke-opacity:0;}}@keyframes RdXxAQmc_draw_0{7.142857142857142%{stroke-dashoffset: 448}48.8095238095238%{ stroke-dashoffset: 0;}100%{ stroke-dashoffset: 0;}}@keyframes RdXxAQmc_draw_1{9.036796536796537%{stroke-dashoffset: 490}50.703463203463194%{ stroke-dashoffset: 0;}100%{ stroke-dashoffset: 0;}}@keyframes RdXxAQmc_draw_2{10.930735930735931%{stroke-dashoffset: 574}52.597402597402585%{ stroke-dashoffset: 0;}100%{ stroke-dashoffset: 0;}}@keyframes RdXxAQmc_draw_3{12.824675324675324%{stroke-dashoffset: 678}54.49134199134198%{ stroke-dashoffset: 0;}100%{ stroke-dashoffset: 0;}}@keyframes RdXxAQmc_draw_4{14.71861471861472%{stroke-dashoffset: 818}56.385281385281374%{ stroke-dashoffset: 0;}100%{ stroke-dashoffset: 0;}}@keyframes RdXxAQmc_draw_5{16.61255411255411%{stroke-dashoffset: 962}58.279220779220765%{ stroke-dashoffset: 0;}100%{ stroke-dashoffset: 0;}}@keyframes RdXxAQmc_draw_6{18.50649350649351%{stroke-dashoffset: 1097}60.17316017316017%{ stroke-dashoffset: 0;}100%{ stroke-dashoffset: 0;}}@keyframes RdXxAQmc_draw_7{20.400432900432904%{stroke-dashoffset: 1245}62.06709956709956%{ stroke-dashoffset: 0;}100%{ stroke-dashoffset: 0;}}@keyframes RdXxAQmc_draw_8{22.294372294372295%{stroke-dashoffset: 1395}63.96103896103895%{ stroke-dashoffset: 0;}100%{ stroke-dashoffset: 0;}}@keyframes RdXxAQmc_draw_9{24.188311688311686%{stroke-dashoffset: 1541}65.85497835497834%{ stroke-dashoffset: 0;}100%{ stroke-dashoffset: 0;}}@keyframes RdXxAQmc_draw_10{26.08225108225108%{stroke-dashoffset: 1705}67.74891774891773%{ stroke-dashoffset: 0;}100%{ stroke-dashoffset: 0;}}@keyframes RdXxAQmc_draw_11{27.976190476190478%{stroke-dashoffset: 1850}69.64285714285714%{ stroke-dashoffset: 0;}100%{ stroke-dashoffset: 0;}}</style></svg>
