<!--?xml version="1.0" encoding="utf-8"?-->
<!-- Generator: Adobe Illustrator 21.0.2, SVG Export Plug-In . SVG Version: 6.00 Build 0)  -->
<svg version="1.1" id="Layer_1" xmlns="http://www.w3.org/2000/svg" xmlns:xlink="http://www.w3.org/1999/xlink" x="0px" y="0px" width="750px" height="600px" viewBox="0 0 750 600" style="" xml:space="preserve">
<style type="text/css">
	.st0{fill:none;stroke:#00ADBB;stroke-width:14;stroke-miterlimit:10;}
	.st1{fill:none;stroke:#C227B9;stroke-width:6;stroke-miterlimit:10;}
	.st2{fill:none;stroke:#C227B9;stroke-width:10;stroke-miterlimit:10;}
	.st3{fill:none;stroke:#FFDD00;stroke-width:7;stroke-miterlimit:10;}
	.st4{fill:none;stroke:#7C2582;stroke-width:3;stroke-miterlimit:10;}
	.st5{fill:none;stroke:#65CBC9;stroke-width:5;stroke-miterlimit:10;}
	.st6{fill:none;stroke:#7C2582;stroke-width:5;stroke-miterlimit:10;}
	.st7{fill:none;stroke:#65CBC9;stroke-width:3;stroke-miterlimit:10;}
	.st8{fill:none;stroke:#00ADBB;stroke-width:13;stroke-miterlimit:10;}
	.st9{fill:none;stroke:#7C2582;stroke-width:10;stroke-miterlimit:10;}
</style>
<g>
	<g>
		<path class="st0 nxjpNjny_0" d="M231.6,533c-2.3,0-4.5-0.4-6.6-1.2c-11.8-4.6-13.7-18.6-14.8-26.1c-3.1-22.2-9.4-43.7-18.8-64.1
			c-5-10.8-14.8-14.9-26.2-19.6c-4.4-1.8-9-3.7-13.5-6.1h0c-1.4-0.7-2.8-1.4-4.2-2.2c-5.3-2.7-10.7-5.5-15.9-9.3
			c-5.9-4.4-4.8-9.5-4.3-11c0.7-2.1,2.1-3.8,4.3-5.1c3.1-1.9,6.4-2.7,9.2-3.3c0.7-0.2,1.4-0.3,2-0.5c6.2-1.6,11.6-5.4,16.5-11.7
			c0.9-1.1,1.8-2.4,2.7-3.7c4.2-6,9.3-13.4,19.1-15.2c10.3-1.8,19.6,1.9,27.8,5.2c4.7,1.9,9.1,3.7,13.3,4.4
			c11,1.8,25.2,0.5,37.9-3.6c24.9-7.9,46.7-8.6,64.7-2c19.4,7.1,35.1,20.9,49.3,34.7c1.5,1.5,3.2,3,4.9,4.5c4.2,3.7,8.6,7.6,12,12.7
			c3.8,5.7,5.3,11.9,4.2,17.7c-1.3,7.1-6.6,13.5-14.2,17.1c-20.8,9.8-39.5,2.1-56.1-4.6c-4.8-2-9.8-4-14.7-5.5
			c-11.2-3.6-22.3-4.1-32.1-1.6c-9.5,2.4-21.1,9-23.8,16.4c-2.5,6.6,0.7,12.3,6,21c2.1,3.4,4.2,6.9,5.8,10.7
			c3.3,7.6,2.7,16.2-1.7,25.1c-3.8,7.7-9.6,14.1-13.8,18C244.6,530,237.9,533,231.6,533z"></path>
	</g>
	<g>
		<g>
			<path class="st1 nxjpNjny_1" d="M251.8,536.9c-4.1,0-8.1-0.9-12-2.7c-10.9-5.2-16.1-16.2-20-27.3c-5.1-14.4-12.2-33.3-21.4-51.5
				c-3-5.9-6.2-11.8-9.5-17.6c-2.9-5.1-6.7-9.3-11.6-13c-7.1-5.3-15.8-8.8-24.3-12.2c-1-0.4-2-0.8-3-1.2c-2.7-1.1-5.5-2.2-8.2-3.4
				c-0.7-0.3-1.4-0.6-2.1-0.9c-3.8-1.7-7.8-3.5-11.7-5.6c-3.8-2.1-7.5-4.4-10.2-7.9c-1.7-2.2-2.5-4.9-2.3-8c0.1-1.5,0.4-3,1.1-4.4
				c1-2.1,2.5-3.6,3.7-4.6c2.8-2.4,5.8-4.3,8.6-5.9c1.8-1.1,3.5-2.2,5-3.2c1.8-1.3,3-2.7,3.8-4.1c4.6-8.6,13.3-17.6,23.3-24.2
				c1.6-1.1,3.2-2.4,4.8-3.8c2.1-1.8,4.3-3.7,6.9-5.2c4.6-2.6,9.3-3.8,14.3-3.6c8.5,0.3,16.2,3.7,23.6,7c1.2,0.5,2.5,1.1,3.8,1.6
				c6.9,3,12.5,4.4,17.5,4.5c6.2,0.1,13.2-1,22.7-3.7c6.6-1.8,13.7-4.3,21.4-7.4c0.6-0.2,1.2-0.5,1.7-0.7c5.7-2.3,11.7-4.3,17.8-6
				l1-0.3c5-1.4,10.2-2.8,15.6-3.5c2.3-0.3,4.5-0.3,6.5-0.1c5,0.6,8.7,2.3,12,3.8l0.6,0.3c4.5,2.1,9.9,4.8,14.9,8.9
				c5.6,4.6,10.9,10.1,16.5,15.8c3.9,4,8,8.2,12.2,12.2c2.8,2.6,5.7,5.2,9,7.1c1.4,0.8,2.8,1.6,4.2,2.4c4,2.2,8.2,4.5,12.2,7.8
				c1.9,1.5,3.7,3.1,5.7,5.1c3.2,3.1,6.3,6.4,9.2,9.7c4.2,4.7,8.5,9.8,12.3,15.6l0,0c3.6,5.6,5.4,11.7,5.2,17.2
				c-0.3,7-4.1,13.7-10.3,18.5c-7.5,5.8-15.2,8.4-24.1,8.1c-11.7-0.4-22.9-4.9-33.8-9.2l-3.2-1.3c-4.6-1.8-9.3-3.7-13.9-5.3
				c-3.1-1-6.3-1.9-9.3-2.5c-9-1.9-18.1-1.7-26.4,0.4c-10.7,2.8-23.6,10-27.7,18.6c-3.7,7.6-1.6,14.1,2.1,24
				c0.5,1.2,0.9,2.5,1.4,3.7c1,2.7,1.7,5,2.2,7.2c2.5,9.9-0.4,21.1-8.4,32.3c-3.4,4.8-7.2,9-11,12.1
				C264.5,534.7,258.2,536.9,251.8,536.9z"></path>
		</g>
	</g>
	<g>
		<path class="st2 nxjpNjny_2" d="M273.1,540.3c-5.6,0-11.5-1.6-17.6-4.9c-11.7-6.3-19-17.6-25.1-28.9c-1.4-2.5-2.7-5-4.1-7.5
			c-8.4-15.5-17-31.6-26.8-47.3c-4.1-6.7-8.3-13.1-12.3-19.1c-4-5.9-8.8-10.9-14.6-15.2c-8.5-6.3-18.9-10.8-27.9-14.3
			c-2.1-0.8-4.3-1.6-6.4-2.4c-2-0.7-4.1-1.5-6.2-2.3l-1.1-0.4c-4.9-1.9-10-3.8-14.7-6.5c-3.9-2.2-8.3-5-10.7-9.4
			c-1.8-3.2-1.3-6.7-0.7-9c0.3-1.4,0.8-2.7,1.5-3.9c1.1-1.9,2.5-3.5,3.8-4.7c2.7-2.7,5.7-5.1,8.5-7.3c3.1-2.5,6-4.8,8.3-7.3
			c2.5-2.7,4-5.4,4.6-8.2c2.9-14.5,14.8-28.1,30.3-34.8c2-0.9,3.9-1.8,5.7-2.8c3.1-1.6,6-3.2,9.4-4.1c4.8-1.3,9.6-1.3,14.8-0.2
			c7.1,1.5,13.9,4.9,20.4,8.2c2.8,1.4,5.8,2.9,8.7,4.2c7.5,3.4,14.4,4.7,20.9,4.1c8.6-0.9,17.6-4.3,26-7.8c7.9-3.2,16-7.1,24.4-11.1
			c0.7-0.3,1.3-0.6,1.9-0.9c6.2-2.9,12.9-5.6,19.9-8c1.1-0.4,2.2-0.8,3.3-1.2c4.9-1.8,10-3.6,15.3-4.5c2.7-0.5,5.2-0.5,7.5,0.1
			c5.6,1.3,9.1,4.5,11.6,6.9c0.3,0.3,0.6,0.5,0.9,0.8c4,3.7,8.3,7.7,12.3,13.2c2.5,3.4,5,7,7.6,10.8c6.8,9.9,13.9,20.2,22.8,29.4
			c3.3,3.5,7.1,7,11.7,9.1c2.2,1,4.4,1.9,6.6,2.7c5.1,2,10.4,4.1,15.6,7.8c2.5,1.8,4.9,3.8,7.3,6.3c3.7,3.6,7.3,7.8,11.4,13
			c4.5,5.7,9.7,12.6,14.5,20.1l0,0c2.4,3.9,5.5,9.9,5.9,16.7c0.4,6.2-1.7,12.5-6.3,18.7c-5.7,7.8-13.3,11.6-23,11.6c0,0,0,0,0,0
			c-12.1,0-24.6-5-35.6-9.4l-2.6-1c-1.1-0.5-2.3-0.9-3.4-1.4c-4.4-1.7-8.9-3.6-13.3-5.1c-3.5-1.2-7-2.2-10.4-3
			c-9.8-2.3-20.1-2.2-29.6,0.3c-11.3,3-26.2,10.8-32.2,21.1c-5.6,9.6-4,18.3-2.3,28.5c0.2,0.9,0.3,1.9,0.5,2.8
			c0.5,2.9,0.8,5.3,1,7.5c0.7,7-0.7,18.3-10.6,32.2c-3.9,5.5-7.9,9.7-11.9,12.7C284,538.7,278.7,540.3,273.1,540.3z"></path>
	</g>
	<g>
		<g>
			<path class="st3 nxjpNjny_3" d="M293.8,543.9c-9.8,0-18.7-5.3-22.5-7.5c-12.9-7.6-22.3-19.5-30.5-31.1c-5.3-7.5-10.7-15.4-15.9-23
				c-7.8-11.4-15.9-23.2-24.4-34.9c-6-8.3-10.7-14.6-15.1-20.5c-5-6.6-10.7-12.3-17.4-17.3c-8.2-6.1-18.6-11.5-31.6-16.5
				c-2.9-1.1-6-2.1-9-3.1c-1.7-0.5-3.4-1.1-5.1-1.7l-0.3-0.1c-5.8-2-11.8-4-17.3-7.1c-5.6-3.1-9.1-6.5-10.7-10.3
				c-1.4-3.3-0.6-6.7,0.4-9.6c0.5-1.4,1.1-2.7,1.8-4c1.2-2.1,2.8-3.9,4.2-5.3c2.8-3,5.9-5.8,8.9-8.6c4.4-4,8.5-7.8,11.7-11.9
				c3.3-4.4,5-8.6,5.3-13c1.1-19.9,15.6-37.4,36.1-43.7c1.5-0.5,3-0.9,4.4-1.4c5-1.6,9.3-3,13.9-3.3c5-0.2,10,0.6,15.5,2.6
				c6.1,2.2,11.8,5.5,17.8,8.9c4.4,2.5,8.9,5.1,13.6,7.3c8.6,4,16.8,5.2,24.9,3.7c9.9-1.9,19.8-7,29.3-12c5-2.6,10.2-5.5,15.2-8.2
				c3.9-2.2,8-4.4,11.9-6.5c0.7-0.4,1.4-0.8,2.1-1.1c6.7-3.4,14-6.7,22.1-10c1.5-0.6,3-1.2,4.6-1.9c5.1-2.2,10.4-4.4,15.9-5.5
				c2-0.4,5-0.7,7.9,0.2c6,1.9,8.9,6.5,11,9.9c0.2,0.3,0.4,0.7,0.6,1c3.3,5.2,6.8,10.7,10,17.2l0.2,0.5c8.4,17.1,18,36.4,32.5,52.5
				c4.1,4.6,8.7,9.1,15,11.5c3,1.1,6,2.1,8.9,2.9c6.2,1.9,12.6,3.8,18.7,8c3,2.1,5.9,4.5,8.8,7.4c4.3,4.3,8.5,9.4,13.4,16.2
				c7,9.7,12.2,17.4,16.9,24.9c2.4,3.9,5.6,10,6.6,16.6c1,6.2-0.1,13-3.1,19.2c-3.2,6.4-8.5,13.9-21.2,14.2
				c-12.4,0.3-25.7-5-37.4-9.7c-1-0.4-2.1-0.8-3.1-1.2c-1.8-0.7-3.6-1.4-5.4-2.1c-4.2-1.7-8.5-3.4-12.8-5c-4-1.4-7.7-2.6-11.4-3.5
				c-10.9-2.7-22-2.7-32.9,0.2c-12.5,3.3-28.7,11.8-36.6,23.4c-7.6,11.1-7.5,22-7.4,33.5l0,0.9c0,2.1,0,5-0.1,7.9
				c-0.4,10.4-4.9,22-12.7,32.7c-4.3,5.9-8.4,10.2-12.7,13.1C303,542.8,298.3,543.9,293.8,543.9z"></path>
		</g>
	</g>
	<g>
		<path class="st4 nxjpNjny_4" d="M313.8,547.7c-9.2,0-18.4-5.1-26.6-10.3c-14.4-9-26-21.6-36.3-33.8c-12.3-14.6-24.3-29.4-36.9-45
			c-4.2-5.2-8.4-10.4-12.6-15.6l-2.3-2.9c-5.1-6.2-10.3-12.7-15.6-19c-6-7.2-12.8-13.6-20.1-19.1c-9.7-7.3-21.6-13.5-35.3-18.6
			c-3.7-1.4-7.6-2.5-11.4-3.6c-1.4-0.4-2.9-0.9-4.3-1.3c-6.5-2-13.2-4-19.3-7.4c-3.9-2.2-8.8-5.8-10.5-10.8
			c-1.2-3.4-0.1-6.9,1.2-10.2c0.6-1.5,1.3-3,2.2-4.3c1.5-2.4,3.3-4.5,4.7-6.1c3-3.4,6.3-6.6,9.5-9.8c5.4-5.3,11-10.8,15-16.7
			c4.1-6.1,6-12,5.8-18.2c-0.3-11.7,3.5-23.3,10.8-32.7c7.6-9.8,18.2-16.4,30.6-19.3c8.3-1.9,14.7-3.2,21.1-2.4
			c5.3,0.6,10.5,2.2,16.4,5.1c5.4,2.6,10.5,5.9,15.9,9.5c5.8,3.8,11.8,7.6,18.3,10.7c9.9,4.7,19.5,5.8,29.2,3.3
			c10.7-2.8,21-9.2,30.9-15.4l1.6-1c2.8-1.7,5.5-3.5,8.3-5.2c7-4.4,14.2-8.9,21.3-13.1c0.8-0.4,1.6-0.9,2.3-1.3
			c7-3.9,14.7-7.7,24.4-11.9c1.9-0.8,3.8-1.7,5.8-2.7c5.4-2.5,10.9-5.2,16.6-6.5c2-0.5,5-0.8,7.9,0.3c6.1,2.3,8.3,8.1,10,12.4
			c0.1,0.4,0.3,0.7,0.4,1c2.5,6.4,5.2,13.5,8,21.5c6.9,19.8,17.2,45.2,35.3,66.2c4.6,5.4,10.5,11.4,18.6,14.1
			c3.7,1.3,7.5,2.2,11.2,3.1c7.6,1.8,14.7,3.6,21.9,8.2c3.5,2.3,6.9,5,10.2,8.4c5,5,9.7,10.9,15.4,19.2
			c7.7,11.3,13.8,20.7,19.3,29.7l0,0c3.6,5.9,6.1,11.6,7.4,16.8c1.5,6.2,1.4,13.2-0.4,19.8c-2,7.3-6,15.7-19,16.3
			c-12.8,0.6-26.9-5-39.3-9.9c-1.2-0.5-2.4-0.9-3.5-1.4c-2.4-0.9-4.8-1.9-7.3-2.9c-4-1.6-8.2-3.3-12.3-4.8
			c-4.4-1.6-8.4-2.9-12.3-3.9c-11.9-3.2-24.1-3.1-36.3,0.1c-16.2,4.3-32.2,14.2-40.8,25.4c-9.2,12-11.4,23.9-13.3,37.3
			c-0.4,2.9-0.8,5.6-1.2,8.3c-1.8,11.1-7,23.1-14.7,33.6c-4.6,6.3-8.8,10.6-13.3,13.5C322.2,546.7,318,547.7,313.8,547.7z"></path>
	</g>
	<g>
		<path class="st5 nxjpNjny_5" d="M175.3,212.7c-3.8,0-8.1,0.4-13.3,1.3c-13.6,2.3-25.5,9.5-33.5,20.2c-7.7,10.3-11.4,23.2-10.4,36.4
			c0.7,8.5-1.5,16.8-6.7,25.3c-4.9,8-11.9,15.2-18.6,22.1c-3.4,3.5-7,7.2-10.1,10.8c-2.3,2.6-3.9,4.7-5.1,6.7
			c-0.9,1.4-1.7,2.9-2.4,4.4c-1.4,3-2.5,6.2-1.8,8.8c0.9,3.3,4.1,6.7,8.8,9.3c6.3,3.6,13.7,5.6,20.2,7.4c1.3,0.3,2.5,0.7,3.8,1
			c4.6,1.2,9.4,2.5,13.9,4.2c14.8,5.4,28.2,12.5,39.8,21.2c8.1,6.1,15.9,13.2,23.2,21.2c4.4,4.9,8.8,9.8,13,14.6
			c2.5,2.9,5.1,5.7,7.6,8.6c21.2,23.8,40.4,44.5,58.7,63.3c12.4,12.7,26,25.9,41.8,36.3l0.8,0.5c11.4,7.5,25.6,16.8,38,9.3
			c4.3-2.6,8.4-6.7,13-13c7.4-10,13.1-22.1,16.2-33.9c0.5-1.7,0.9-3.4,1.3-5.1c0.3-1.2,0.6-2.5,1-3.7c4-15.4,8.9-28.3,19.8-41
			c10.8-12.7,28.6-23.5,46.4-28.2c14-3.7,27.9-3.7,41.3,0.1c4.2,1.2,8.7,2.6,13.6,4.5c4,1.5,8,3.1,11.9,4.7c3,1.2,6,2.4,9,3.6
			c1.3,0.5,2.6,1,4,1.6c12.8,5.1,27.4,10.8,39.8,10c8.9-0.5,12.7-4.8,13.8-15.1c0.7-6.5,0-13.4-2-19.5c-2.4-7.6-6.6-14.4-8-16.7
			c-6.4-10.6-13.5-21.9-21.8-34.5c-4.2-6.4-9.9-14.6-16.8-21.6c-3.6-3.6-7.2-6.5-11-8.9c-7.5-4.7-15.5-6.3-23.9-8
			c-4.4-0.9-9-1.8-13.7-3.2c-10.8-3.3-18.1-10.8-23.9-17.7c-17.2-20.8-30.2-48-38.6-81c-1.9-7.3-3.5-14.2-5-20.9
			c-0.4-1.7-0.8-3.4-1.2-5.1l-0.2-0.9c-1.1-4.9-2.4-10.4-7.1-12.4c-1.4-0.6-3.5-0.7-5.6-0.1c-5.6,1.4-11.3,4.4-16.9,7.3
			c-2.2,1.2-4.5,2.4-6.8,3.4c-10.8,5.2-19,9.4-26.4,13.8c-0.8,0.5-1.7,1-2.5,1.5c-9.7,6-19.3,12.8-28.6,19.4l-3.3,2.4
			c-0.9,0.6-1.8,1.3-2.7,1.9c-10.7,7.6-21.8,15.4-33.9,19.3c-12.1,3.8-23.9,2.8-36-3c-8.5-4.1-16-9.5-23.3-14.7
			c-4.9-3.5-9.5-6.8-14.2-9.6c-6.2-3.7-11.5-6-16.7-7.2C181.6,213,178.7,212.7,175.3,212.7z"></path>
	</g>
	<g>
		<g>
			<path class="st6 nxjpNjny_6" d="M352.1,560.5c-12.5,0-24.6-8.3-34-14.8c-1-0.7-2-1.4-3-2.1c-18.4-12.6-35.2-27.4-49.2-40.3
				c-25.6-23.6-47.9-45.3-68.2-66.3c-3.8-3.9-7.6-8-11.3-11.9c-3.9-4.2-8-8.5-12.1-12.6c-8.2-8.5-16.3-15.7-24.7-21.9
				c-12.4-9.2-26.7-16.9-41.5-22.2c-4.9-1.8-10.2-3.1-15.3-4.3c-1.1-0.3-2.3-0.6-3.4-0.9c-8.7-2.2-16.6-4.3-23.7-8.3
				c-3.9-2.2-10.7-7-12.5-14.7c-1.2-5.3,0.8-10.6,2.9-15.1c1-2,2.1-4,3.3-6c1.7-2.6,3.7-5.3,6.5-8.6c3.5-4.2,7.4-8.3,11.2-12.4
				c7.7-8.2,15.6-16.6,20.7-25.6c5-8.7,6.9-17,5.9-25.5c-2-17.3,2.4-34.3,12.2-47.8c10.3-14.1,25.7-23.1,43.6-25.4
				c11-1.4,20-0.8,28.3,1.9c6.3,2.1,12.5,5.4,20.1,10.6c4.5,3.1,9,6.7,13.4,10.1c8.3,6.5,16.8,13.2,26.5,17.9
				c11.6,5.7,22.8,6.4,34.4,2.2c12-4.4,23.2-13.2,34.1-21.7c1.2-0.9,2.4-1.9,3.6-2.8c10.6-8.2,22.6-17.6,34.9-25.5
				c0.9-0.6,1.9-1.2,2.8-1.8c10.2-6.3,21-11.9,29.2-16.1c2.4-1.2,4.8-2.5,7.4-4c6.4-3.5,12.9-7.2,19.7-9c3.9-1.1,7.7-0.9,10.8,0.6
				c8.5,4.1,9.8,14,10.6,20.5l0.5,4.2c1.1,8.6,2.2,17.5,3.9,26.7c6.7,35.8,20.4,67.3,39.6,91.2c5.7,7.1,13,14.8,23.6,17.7
				c5.1,1.4,10.2,2.3,15.2,3.1c9.8,1.7,20,3.4,29.7,9.4c4.8,3,9.3,6.6,13.8,11c8.4,8.4,15,18.3,19.8,25.9
				c9.1,14.4,17.1,27.4,24.4,39.7l0,0c3.2,5.3,6.8,11.6,9.5,18.9c2.9,7.6,4.6,16.1,4.8,23.8c0.1,5.6,0.5,22.7-19.2,24.2
				c-14.6,1.1-31.6-5.5-45.3-10.9c-1.5-0.6-2.9-1.1-4.3-1.7c-3.7-1.4-7.3-2.9-10.9-4.4c-3.7-1.5-7.6-3.1-11.3-4.5
				c-5.1-1.9-9.6-3.5-13.8-4.7c-13-3.8-26.5-3.8-40.3-0.2c-17.2,4.6-34.5,14.9-46.4,27.5c-10.3,11-17.7,23.5-24,40.3
				c-1.2,3.2-2.3,6.4-3.4,9.3c-5.2,14.5-11.8,27.2-19.6,37.9c-3.5,4.7-8.9,11.4-16,15.5C361.1,559.4,356.6,560.5,352.1,560.5z"></path>
		</g>
	</g>
	<g>
		<path class="st7 nxjpNjny_7" d="M370.3,565.1c-13.1,0-25.6-9-36.2-16.6c-1.6-1.1-3.2-2.3-4.7-3.3c-20.2-14.2-39.3-29.9-55.4-43.4
			c-23.5-19.7-51-43.4-77.4-69.1c-4.8-4.6-9.6-9.4-14.2-14.1c-3.9-3.9-7.9-7.9-11.9-11.8c-9.4-9.2-18.3-16.9-27.2-23.5
			c-13.9-10.4-29.5-18.7-45-24.3c-5.5-2-11.5-3.3-17.3-4.6c-1-0.2-2.1-0.5-3.1-0.7c-9.4-2.2-17.8-4.3-25.4-8.6
			c-6.8-3.8-11.4-9.5-12.6-15.4c-1.1-5.8,1.2-11.5,3.7-16.3c1.1-2.2,2.4-4.4,3.8-6.6c1.9-2.9,4.2-6,7.2-9.6c3.8-4.6,8-9.1,12-13.5
			c8.8-9.7,18-19.7,23.8-30.4c5.6-10.3,7.6-20.2,6.2-30.4c-2.9-20.5,2.4-41.1,14.4-56.5c11.3-14.4,28-23.4,47-25.3
			c11.5-1.1,21.6,0.2,31,4.1c6.7,2.8,13.3,6.8,21.5,13.1c4.2,3.2,8.3,6.7,12.4,10.1c9.5,8,19.3,16.3,30.6,21.9
			c12.9,6.4,25.5,7,38.5,1.7c13-5.3,25-15.4,36.5-25.2c1.4-1.2,2.9-2.4,4.3-3.6c11.7-9.9,24.2-20.2,37.4-29c1-0.7,2-1.3,3-2
			c10.7-6.9,22-13,31.5-18.1c2.6-1.4,5.3-3,8.1-4.6c6.8-4,13.8-8.1,20.9-10.1c4-1.2,7.9-0.9,10.9,0.6c8.8,4.6,9.3,15.8,9.7,23.2
			l0.2,4.1c0.5,10,0.9,20.4,2.4,30.9c5.4,40.3,20,76.4,42.2,104.5c6.5,8.2,14.7,17,27.1,20.2c5.8,1.5,11.7,2.4,17.4,3.2
			c10.9,1.6,22.2,3.2,33,9.7c5.3,3.2,10.3,7.2,15.2,12.1c9.2,9.3,16.5,20.4,21.8,29c10.1,16.5,18.9,31,26.9,44.6l0,0l0.4,0.6
			c2.5,4.2,6.6,11.2,10.1,19c3.7,8.4,6.3,17.3,7.3,25.1c1.1,8.9-0.1,15.4-3.6,19.8c-3,3.7-7.7,5.9-13.9,6.4
			c-15.1,1.3-33-5.6-47.4-11.3c-1.6-0.6-3.1-1.2-4.6-1.8c-4.2-1.6-8.5-3.4-12.6-5.1c-3.6-1.5-7.3-3-11-4.4
			c-5.6-2.2-10.3-3.8-14.7-5.2c-13.8-4.2-28.4-4.3-43.4-0.3c-17.9,4.8-36.2,15.4-50.1,29.2c-12.3,12.2-22.1,26.1-29.8,42.5
			c-1.3,2.8-2.7,5.9-4.4,9.9c-5.4,12.3-12.2,26.5-21.8,39.5c-3.9,5.3-9.4,11.9-16.7,16C379.3,564.1,374.8,565.1,370.3,565.1z"></path>
	</g>
	<g>
		<path class="st8 nxjpNjny_8" d="M387.5,565c-15.1,0-29.2-10.5-40.2-18.8c-2-1.5-3.9-2.9-5.8-4.3c-21.2-15.2-42-31.2-59.5-44.9
			c-28.7-22.4-56.7-44.6-83.7-69.3c-5.3-4.9-10.6-9.9-15.7-14.8c-4-3.8-8.1-7.7-12.1-11.4c-10.3-9.6-19.2-17.2-28.1-23.8
			c-14.5-10.8-30.2-19.3-45.4-24.6c-5.6-2-11.6-3.2-18-4.6c-0.9-0.2-1.8-0.4-2.7-0.6c-9.7-2.1-19-4.3-27.5-9
			c-8.1-4.5-13.4-11.4-14.6-19c-1.2-7.5,1.8-14.6,4.7-19.9c1.3-2.4,2.7-4.9,4.4-7.3c2.2-3.3,4.7-6.7,7.9-10.6
			c4-4.8,8.3-9.7,12.5-14.4c9.4-10.5,19.2-21.4,25.2-32.9c5.5-10.5,7.4-20.6,5.7-30.8c-3.8-23.7,1.9-47.4,15.8-65
			c12.8-16.2,31.7-26,53.2-27.6c12.6-0.9,24,1.1,34.9,6.4c7.3,3.5,14.4,8.3,23.1,15.7c3.8,3.2,7.6,6.6,11.2,9.9
			c10,9,20.3,18.3,32.1,24.2c12.5,6.3,24.2,6.6,36.8,1.1c12.8-5.6,24.7-16.4,36.2-26.8c1.6-1.4,3.1-2.8,4.7-4.2
			c12.1-10.9,25.2-22.2,38.8-31.7c1.1-0.7,2.1-1.5,3.2-2.2c10.9-7.2,22.3-13.7,32.9-19.5c2.7-1.5,5.4-3.2,8.3-4.9
			c7.2-4.4,14.6-8.9,22.5-11.3c5.2-1.6,10.3-1.2,14.4,1c11.3,6.2,11.1,20.6,11,29.2c0,1.4,0,2.9-0.1,4.3
			c-0.2,11.3-0.3,21.9,0.7,32.9c3.9,41.6,18.8,81,42,110.9c6.7,8.7,14.6,17.1,26.7,20.1c6.1,1.5,12.3,2.3,18.2,3
			c12.1,1.5,24.6,3.1,36.8,10.3c5.9,3.5,11.6,8,17,13.4c10.1,10.2,17.9,22.3,23.5,31.7c7.8,13,18,30.1,28.4,47.7l0,0
			c0.4,0.6,0.8,1.4,1.3,2.1c2.5,4.3,6.3,10.7,9.9,17.9c3.3,6.6,7.6,16.7,9.7,26.8c2.2,10.7,1.3,18.7-2.9,24.4
			c-3.5,4.9-9.2,7.7-16.7,8.5c-16.3,1.6-35-5.7-50.1-11.5c-1.6-0.6-3.1-1.2-4.7-1.8c-4.7-1.8-9.4-3.7-13.9-5.6
			c-3.3-1.4-6.7-2.8-10.1-4.1c-5.6-2.2-10.3-3.9-14.7-5.3c-13.3-4.1-27.4-4.3-41.9-0.4c-17,4.6-34.6,14.7-49.7,28.4
			c-13.9,12.9-24.8,26.5-33.2,41.6c-2,3.6-3.8,7.2-5.3,9.9l-0.6,1.3c-6.7,13.1-13.6,26.7-22.9,39.1c-4.3,5.7-10.2,12.8-18.4,17.3
			C397.6,563.9,392.5,565,387.5,565z"></path>
	</g>
	<g>
		<path class="st9 nxjpNjny_9" d="M406.6,579.8c-16.8,0-32.4-12.1-44.5-21.6c-2.5-2-4.9-3.8-7.2-5.5l-68-49.8c-32.3-23.6-65.6-48-96.3-74.9
			c-6.4-5.6-12.8-11.5-19-17.1c-14.2-12.9-28.8-26.2-44.3-37.8c-16.7-12.5-33.8-21.7-50.7-27.6c-6.4-2.2-13.3-3.6-20.6-5
			c-11.2-2.2-22.8-4.5-33-10.2c-8.5-4.8-14.3-12.5-15.4-20.7c-1.2-8.3,2.4-16.2,5.6-22.1c6.9-12.7,17.5-24.8,27.8-36.5
			c20-22.7,40.7-46.2,35.4-75.6c-4.9-27.4,1.5-54.7,17.4-74.9c14.5-18.3,35.8-29,60.2-30.4c13.9-0.8,26.7,2.1,39.2,8.8
			c13.7,7.3,25.2,18.4,36.4,29c11.4,10.9,23.3,22.2,37.2,29.2c32.8,16.6,57.9-7.5,82.2-30.8c1.8-1.7,3.6-3.5,5.4-5.1
			c14.2-13.5,29.6-27.5,46.4-38.9c11.2-7.6,22.7-14.4,36.5-22.3c3-1.7,6.1-3.7,9.4-5.8c7.9-5,16.1-10.2,24.7-12.9
			c5.5-1.7,11.1-1.3,15.3,1.2c12.2,7.1,11.2,23.9,10.7,33c-0.1,1.8-0.2,3.5-0.3,5.3c-0.8,13-1.5,25.3-0.8,37.9
			c2.9,47.7,19.3,93.3,46.2,128.4c7.7,10.1,16.8,19.9,31,23.2c7,1.6,14.2,2.4,21.1,3.2c13.7,1.5,27.9,3.1,41.6,11.1
			c20.8,12.2,34.8,32.7,45.6,51.1l2.9,4.9c9.6,16.2,19.5,33,29.1,49.6c0.7,1.2,1.5,2.6,2.5,4.3c16.5,27.4,30.5,55.1,22.3,71.7
			c-3.3,6.6-9.6,10.5-18.8,11.5c-17.5,1.9-37.9-6-54.4-12.4c-1.8-0.7-3.6-1.4-5.3-2c-5.4-2.1-10.9-4.3-16.1-6.5
			c-8.6-3.6-17.4-7.2-26.3-10.1c-18-5.8-55.2-9.5-101.7,30.6c-17.1,14.8-30.3,29.6-40.3,45.3c-4.3,6.8-8.4,14-12.3,21
			c-6.3,11.2-12.9,22.8-20.8,33.5c-4.6,6.2-11.1,13.9-20,18.5C417.1,578.6,411.8,579.8,406.6,579.8z"></path>
	</g>
</g>
<style>.nxjpNjny_0{stroke-dasharray:774 776;stroke-dashoffset:775;animation:nxjpNjny_draw_0 11200ms linear 0ms infinite,nxjpNjny_fade 11200ms linear 0ms infinite;}.nxjpNjny_1{stroke-dasharray:890 892;stroke-dashoffset:891;animation:nxjpNjny_draw_1 11200ms linear 0ms infinite,nxjpNjny_fade 11200ms linear 0ms infinite;}.nxjpNjny_2{stroke-dasharray:1016 1018;stroke-dashoffset:1017;animation:nxjpNjny_draw_2 11200ms linear 0ms infinite,nxjpNjny_fade 11200ms linear 0ms infinite;}.nxjpNjny_3{stroke-dasharray:1152 1154;stroke-dashoffset:1153;animation:nxjpNjny_draw_3 11200ms linear 0ms infinite,nxjpNjny_fade 11200ms linear 0ms infinite;}.nxjpNjny_4{stroke-dasharray:1294 1296;stroke-dashoffset:1295;animation:nxjpNjny_draw_4 11200ms linear 0ms infinite,nxjpNjny_fade 11200ms linear 0ms infinite;}.nxjpNjny_5{stroke-dasharray:1422 1424;stroke-dashoffset:1423;animation:nxjpNjny_draw_5 11200ms linear 0ms infinite,nxjpNjny_fade 11200ms linear 0ms infinite;}.nxjpNjny_6{stroke-dasharray:1626 1628;stroke-dashoffset:1627;animation:nxjpNjny_draw_6 11200ms linear 0ms infinite,nxjpNjny_fade 11200ms linear 0ms infinite;}.nxjpNjny_7{stroke-dasharray:1784 1786;stroke-dashoffset:1785;animation:nxjpNjny_draw_7 11200ms linear 0ms infinite,nxjpNjny_fade 11200ms linear 0ms infinite;}.nxjpNjny_8{stroke-dasharray:1901 1903;stroke-dashoffset:1902;animation:nxjpNjny_draw_8 11200ms linear 0ms infinite,nxjpNjny_fade 11200ms linear 0ms infinite;}.nxjpNjny_9{stroke-dasharray:2139 2141;stroke-dashoffset:2140;animation:nxjpNjny_draw_9 11200ms linear 0ms infinite,nxjpNjny_fade 11200ms linear 0ms infinite;}@keyframes nxjpNjny_draw{100%{stroke-dashoffset:0;}}@keyframes nxjpNjny_fade{0%{stroke-opacity:1;}96.42857142857143%{stroke-opacity:1;}100%{stroke-opacity:0;}}@keyframes nxjpNjny_draw_0{7.142857142857142%{stroke-dashoffset: 775}48.8095238095238%{ stroke-dashoffset: 0;}100%{ stroke-dashoffset: 0;}}@keyframes nxjpNjny_draw_1{9.457671957671957%{stroke-dashoffset: 891}51.12433862433862%{ stroke-dashoffset: 0;}100%{ stroke-dashoffset: 0;}}@keyframes nxjpNjny_draw_2{11.772486772486774%{stroke-dashoffset: 1017}53.43915343915343%{ stroke-dashoffset: 0;}100%{ stroke-dashoffset: 0;}}@keyframes nxjpNjny_draw_3{14.087301587301587%{stroke-dashoffset: 1153}55.753968253968246%{ stroke-dashoffset: 0;}100%{ stroke-dashoffset: 0;}}@keyframes nxjpNjny_draw_4{16.402116402116405%{stroke-dashoffset: 1295}58.06878306878307%{ stroke-dashoffset: 0;}100%{ stroke-dashoffset: 0;}}@keyframes nxjpNjny_draw_5{18.71693121693122%{stroke-dashoffset: 1423}60.383597883597886%{ stroke-dashoffset: 0;}100%{ stroke-dashoffset: 0;}}@keyframes nxjpNjny_draw_6{21.03174603174603%{stroke-dashoffset: 1627}62.698412698412696%{ stroke-dashoffset: 0;}100%{ stroke-dashoffset: 0;}}@keyframes nxjpNjny_draw_7{23.346560846560845%{stroke-dashoffset: 1785}65.0132275132275%{ stroke-dashoffset: 0;}100%{ stroke-dashoffset: 0;}}@keyframes nxjpNjny_draw_8{25.66137566137566%{stroke-dashoffset: 1902}67.32804232804233%{ stroke-dashoffset: 0;}100%{ stroke-dashoffset: 0;}}@keyframes nxjpNjny_draw_9{27.976190476190478%{stroke-dashoffset: 2140}69.64285714285714%{ stroke-dashoffset: 0;}100%{ stroke-dashoffset: 0;}}</style></svg>
