<!--?xml version="1.0" encoding="utf-8"?-->
<!-- Generator: Adobe Illustrator 21.0.2, SVG Export Plug-In . SVG Version: 6.00 Build 0)  -->
<svg version="1.1" id="Layer_1" xmlns="http://www.w3.org/2000/svg" xmlns:xlink="http://www.w3.org/1999/xlink" x="0px" y="0px" width="750px" height="600px" viewBox="0 0 750 600" style="" xml:space="preserve">
<style type="text/css">
	.st0{fill:none;stroke:#7C2582;stroke-width:16;stroke-miterlimit:10;}
	.st1{fill:none;stroke:#00ADBB;stroke-width:17;stroke-miterlimit:10;}
	.st2{fill:none;stroke:#C227B9;stroke-width:9;stroke-miterlimit:10;}
	.st3{fill:none;stroke:#00ADBB;stroke-width:5;stroke-miterlimit:10;}
	.st4{fill:none;stroke:#65CBC9;stroke-width:5;stroke-miterlimit:10;}
	.st5{fill:none;stroke:#7C2582;stroke-width:6;stroke-miterlimit:10;}
	.st6{fill:none;stroke:#00ADBB;stroke-width:9;stroke-miterlimit:10;}
	.st7{fill:none;stroke:#B21E28;stroke-width:4;stroke-miterlimit:10;}
	.st8{fill:none;stroke:#C227B9;stroke-width:2;stroke-miterlimit:10;}
	.st9{fill:none;stroke:#FF5000;stroke-width:16;stroke-miterlimit:10;}
</style>
<g>
	<g>
		<g>
			<path class="st0 UtBgpPWM_0" d="M400.8,483.9c-6.3,0-12.5-3.7-16.8-10.5l0,0c-0.2-0.4-0.5-0.7-0.7-1.1c-26-42.2-23.5-74.4-19.7-89.8
				c5.5-22.4,20.3-42.7,41.6-57c20.4-13.7,44.4-20.7,67.6-19.7c13,0.6,20.9,15,28.5,28.9c4.4,8.1,9.9,18.2,14.5,20.5
				c11.1,5.5,23.7,4.9,37,4.3c17-0.8,34.5-1.5,49.7,10.5c15.2,12,29.4,25,30.8,39.4c0.6,6-1.2,11.6-5.2,16.2
				c-17.2,20-41.4,14.7-62.7,10c-4-0.9-8.2-1.8-12.2-2.5c-13.5-2.4-26.1-8.9-35.5-18.1c-8-8-16.7-16.1-26.8-20.6
				c-10.3-4.6-20.5-6.8-30.1-6.4c-3.4,0.1-6.6,0.7-9.5,1.8c-15.6,5.6-19.7,27.2-23.6,48.1c-2.2,11.8-4.3,23-8.5,31.8
				c-1.9,3.9-5,9.4-10.8,12.3C405.8,483.3,403.3,483.9,400.8,483.9z"></path>
		</g>
	</g>
	<g>
		<g>
			<path class="st1 UtBgpPWM_1" d="M372.1,489.2c-6.5,0-13.1-3.3-18.4-9.4c-0.1-0.2-0.3-0.3-0.4-0.5c-0.1-0.1-0.1-0.1-0.2-0.2
				c-27.2-28.7-35.5-70.5-21.5-109c5.7-15.8,14.5-29.8,25.5-40.5c3.3-3.2,7.1-5.9,10.8-8.4c2.3-1.6,4.5-3.1,6.4-4.7
				c2.7-2.2,4.9-4.7,7.3-7.4l0.2-0.2c3.1-3.5,6.9-7.6,11.3-11.5c4.2-3.7,8.5-7,12.9-9.9c3.3-2.1,7.7-4.9,13.1-6.7
				c3.9-1.3,8.2-2.2,13.6-2.7c10.2-1,18.4-0.6,25.9,1.1h0c5.9,1.4,10.5,5.1,14.4,8.5c2.5,2.2,5,4.6,7.4,6.9c0.9,0.9,1.8,1.8,2.7,2.6
				l0.1,0.1c0.6,0.6,1.3,1.2,1.9,1.9c3.7,3.9,5.5,9.1,6.8,13.2c0.7,2.2,1.4,4.4,2.1,6.6c1.3,4.1,2.5,8,4,11.8
				c0.5,1.5,1.1,2.6,1.7,3.3c1.2,1.4,2.7,2.3,4.7,3.4c0.3,0.2,0.6,0.3,0.9,0.5c2.3,1.3,4.5,2.1,6.6,2.5c5.9,1,11.7,1,17.4,0.1
				c0.7-0.1,1.4-0.3,2.1-0.4c7.5-1.6,14.5-4.7,22-8c2.5-1.1,5.1-2.3,7.7-3.4c1.2-0.5,2.4-1,3.7-1.6c6.6-3,14.9-6.7,24.8-5.6
				c6,0.6,10.1,4,12.6,5.9c3.8,3.1,7.3,6.8,11.1,11.8l0.4,0.5c0.5,0.6,1,1.3,1.6,2.2c0.5,0.7,1,1.5,1.5,2.2
				c2.5,3.6,5.3,7.6,6.3,13.2c0.8,4.2,2.8,8.5,7.3,15.9c0.9,1.4,1.8,2.8,2.8,4.4c6.6,10.2,15.6,24.1,6.3,36.5
				c-8.5,11.3-22.7,14.5-34.1,17.1c-3.1,0.7-6,1.4-8.5,2.1c-1,0.3-1.9,0.6-2.9,1c-4.4,1.5-9.3,3.1-16.2,2.4
				c-2.6-0.3-4.7-1.1-6.4-1.7c-0.7-0.3-1.8-0.7-2.2-0.7c-2.7-0.2-4.3,0.5-6.2,1.3c-1.2,0.5-2.6,1.1-4.2,1.4
				c-0.9,0.2-1.7,0.2-2.3,0.2l-1.2,0.5l-1.3,0.1c-12.1,0.6-29.5-4.4-38.6-9.4c-2-1.1-3.8-2.2-5.4-3.3c-3.9-2.5-7-4.5-13.1-6.1
				c-2.1-0.5-4-1.2-5.9-1.8c-1.1-0.4-2.2-0.7-3.2-1.1c-3.2-1-6.5-2.1-9.6-3.1c-5.9-2-11.5-3.9-17.2-5.2c-2.6-0.6-5.3-1-8.2-1.3
				c-3.8-0.3-7.4-0.2-10.8,0.5c-17.8,3.6-25.8,22-34.3,41.5c-4.8,11-9.3,21.4-15.8,29.5c-3.2,4-7,8-12.6,10.1
				C376.9,488.8,374.5,489.2,372.1,489.2z"></path>
		</g>
	</g>
	<g>
		<path class="st2 UtBgpPWM_2" d="M343.7,491.4c-6.1,0-12.3-2.7-18.1-7.8c-0.1-0.1-0.3-0.3-0.4-0.4c-0.1-0.1-0.2-0.2-0.3-0.3
			c-18.6-14.7-30-34.7-33.2-57.9c-2.9-20.8,0.9-43.5,10.8-65.7c8.2-18.4,19.2-33.5,31.7-43.9c3.4-2.8,7.5-5,11.5-7
			c3.5-1.8,6.9-3.6,9.5-5.6c3.4-2.7,5.6-6.1,7.7-9.6l0.2-0.3c2.9-4.9,5.9-9.9,9.6-14.6c4.1-5.2,8-9.6,12.1-13.5
			c3.5-3.3,7.8-6.9,13.5-9.3c5.3-2.2,11-2.7,15.4-2.9c12-0.6,20.9,0.4,29,3.3c5.4,1.9,9.8,5.7,14.1,9.3l2.1,1.8
			c3.9,3.3,7.9,6.7,12.1,9.7l0.2,0.2c0.8,0.6,1.7,1.2,2.5,1.9c4.9,4.1,6.4,11.1,7.4,15.8c0.6,2.7,1.1,5.4,1.6,8
			c1.1,5.4,2.2,10.9,3.5,16.2c0.6,2.3,1.5,4.1,2.5,5.2c1.9,2,4.4,2.7,7.1,3.4c0.6,0.2,1.2,0.3,1.9,0.5c3.2,1,6.7,1.5,11,1.7
			c7.5,0.3,15.3-1.1,23.1-4.2c1-0.4,1.8-0.7,2.6-1.1c9.4-4.2,17.7-10.7,25.6-17c2.6-2.1,5.3-4.2,8-6.2c1.2-0.9,2.5-1.9,3.9-3
			c7.1-5.7,15.9-12.8,27.9-11.8c6.9,0.5,10.7,5.6,13,8.6c3.8,5.1,6.5,10.6,9.4,16.4c0.2,0.4,0.4,0.7,0.5,1.1
			c0.4,0.8,0.8,1.6,1.2,2.4c0.4,0.8,0.7,1.6,1.1,2.3c2.5,5.6,4.7,10.4,2.7,17.7c-1.6,5.9-1.4,10.7,4.2,21.1
			c1.7,3.1,4.1,6.6,6.7,10.2c7.8,11.1,16.7,23.6,9.2,34.7c-7.4,10.9-21.8,14.4-34.6,17.5c-6.5,1.6-12.7,3.1-17.1,5.3
			c-1.4,0.7-2.7,1.5-4.1,2.4c-4.5,2.8-9.6,6-17.8,5.4c-3-0.2-5.5-1.4-7.5-2.4c-1.3-0.6-2.7-1.3-3.5-1.3c-4,0.1-5.8,1.7-6.8,3.4
			c0.2,0.4,0.4,0.8,0.5,1.2c0.4,1.6,0,3.3-1.3,5l-0.7,1l-1.2,0.4c-7.9,2.9-22.8,1.4-36.1-0.3c-1.3-0.2-2.4-0.3-3.4-0.4
			c-2.5-0.3-4.2-0.7-5.7-1c-2.7-0.6-5.2-1.2-13.1-1.2c-3.1,0-6.1-0.6-8.9-1.2c-0.6-0.1-1.1-0.2-1.7-0.3c-7.3-1.4-14.4-4.2-21.2-6.9
			c-3-1.2-6.2-2.4-9.3-3.5c-2.9-1-5.9-1.8-9.3-2.5c-4.5-0.9-8.8-1.2-12.9-0.9c-21.8,1.6-34.9,19.4-47.5,36.6
			c-6.9,9.4-14,19.1-22.5,26c-3.1,2.5-7.3,6-13,7.5C347.4,491.2,345.6,491.4,343.7,491.4z"></path>
	</g>
	<g>
		<path class="st3 UtBgpPWM_3" d="M315.5,494.3c-7.6,0-14.3-3.6-18.9-6.9c-0.2-0.1-0.3-0.2-0.5-0.3c-0.2-0.2-0.4-0.3-0.6-0.4
			c-23.9-15.3-37.3-36.7-39.9-63.5c-2.2-22.7,3.7-48.5,17-74.5c10.9-21.2,23.6-37.3,37.9-47.7c3.6-2.6,8.3-4.5,12.7-6.3
			c4.5-1.8,9.1-3.7,12.3-6.2c4.5-3.5,6.7-8.1,8.4-12.3c0.4-1,0.9-2.1,1.3-3.1c2.1-5.1,4.3-10.4,7.1-15.3c3.8-6.7,7.4-12.1,11.4-17
			c3.4-4.1,7.6-8.7,13.7-11.5c5.6-2.5,11.9-3,16.8-3.1c13.4-0.2,23.2,1.4,31.9,5.3c5,2.2,9.2,5.8,13.6,9.5c1.1,0.9,2.2,1.9,3.3,2.8
			c4.8,3.9,10.5,8.4,16.8,12.1l0.3,0.2c1,0.6,2.1,1.2,3.1,1.9c5.3,3.7,6.7,11,7.6,17.6c0.4,3,0.8,6.1,1.2,9c0.9,6.9,1.8,14.1,3.1,21
			c0.4,2.3,1.4,5.5,3.6,7.6c2.9,2.8,6.8,3.3,10.6,3.8c0.8,0.1,1.6,0.2,2.4,0.3c4.9,0.8,9.9,0.9,14.7,0.4c10.6-1.1,20.4-4.1,29-8.8
			c1.1-0.6,2.2-1.2,3.2-1.8c11.6-7.1,20.9-17.2,29.8-27c2.5-2.7,5.1-5.5,7.6-8.2c1.2-1.3,2.4-2.6,3.8-4.1
			c7.5-8.3,16.8-18.7,30.5-17.8c7.3,0.5,10.8,7,12.6,10.4c2.8,5.3,4.7,10.9,6.8,16.8c0.5,1.5,1,3,1.5,4.5c0.2,0.6,0.4,1.1,0.6,1.6
			c0.3,0.9,0.7,1.8,0.9,2.6c0.3,0.8,0.5,1.5,0.7,2.3c2.5,7.6,4.2,12.7-0.4,20.9c-4.9,8.7-5.9,14.9,0.9,28.5
			c2.3,4.5,6.1,9.6,10.2,14.9c9.4,12.2,19.1,24.9,12.4,35.4c-7.1,11.2-22.5,14.8-37.4,18.3c-9.6,2.3-18.6,4.4-24.5,8.4
			c-1.8,1.2-3.4,2.6-5.1,4c-4.9,4.2-9.9,8.5-19,8c-3.1-0.2-5.7-1.7-8-3c-2-1.1-3.8-2.1-5.4-2c-3.8,0.3-6.5,1.6-8.3,4
			c-1.8,2.6-2,5.7-1.6,7.3c0.3,0.2,0.9,0.4,1.3,0.5c1.7,0.6,5.6,2,4.1,6.2l-0.2,0.5l-0.4,0.3c-4.8,4-16.6,4.7-27,5.4
			c-5.9,0.4-11.4,0.7-14.2,1.6c-2.3,0.7-3.3,1.3-4.4,1.8c-2.1,1.1-3.9,2-14.1,3.9c-3.8,0.7-7.6,0.3-11.2-0.1c-9.5-1-18.4-5.2-27-9.3
			c-1.9-0.9-4-1.9-6-2.8c-3.1-1.4-6.5-2.7-10.3-3.8c-5-1.5-10-2.3-14.8-2.5c-25.2-0.9-43.2,15.2-60.5,30.8
			c-9.2,8.2-18.6,16.7-29,22.5c-4,2.2-8.5,4.8-14,5.8C318.5,494.2,317,494.3,315.5,494.3z"></path>
	</g>
	<g>
		<path class="st4 UtBgpPWM_4" d="M287.6,499c-6.8,0-14.1-2.2-21.4-6.6c-0.2-0.1-0.3-0.2-0.5-0.3c-0.3-0.2-0.5-0.3-0.8-0.5
			c-22.9-12.3-37.8-29.6-44-51.2c-8.3-28.7-1.2-65.3,20.1-103.1c13.7-24.4,28.3-41.4,44.6-52.1c4-2.6,9.3-4.3,14.4-6
			c5.5-1.8,11.1-3.6,14.9-6.5c4.8-3.7,7-8.5,8.9-14.7c0.5-1.7,1-3.4,1.5-5.1c1.6-5.6,3.3-11.5,5.7-17c3.5-8.1,7-14.7,11-20.7
			c3.1-4.7,7.6-10.6,14.3-13.9c6.1-3,13.2-3.3,18.6-3.3c14.7,0.1,26,2.5,35.5,7.4c5.1,2.6,9.5,6.4,14.1,10.3c1.7,1.5,3.5,3,5.3,4.5
			c7.5,6,14,10.4,20.5,13.7l0.3,0.2c1.3,0.6,2.6,1.3,3.8,2.1c6,3.8,7.5,11.9,8.2,20.2c0.3,3.3,0.5,6.6,0.8,9.8
			c0.6,8.6,1.3,17.4,2.5,26c0.4,2.9,1.5,6.9,4.3,9.5c3.7,3.4,8.7,3.5,13.5,3.7c1,0,2,0.1,3,0.1c6.1,0.4,12.1,0,18-1
			c12.8-2.3,24.3-6.8,34.1-13.3c1.2-0.8,2.5-1.7,3.6-2.5c13.7-10.2,23.9-24,33.8-37.5c2.4-3.2,4.8-6.5,7.2-9.7
			c1.2-1.5,2.3-3.2,3.6-4.9c8-11.2,18-25.1,34.2-24.3c8.3,0.4,11.7,8.8,13.3,12.8c2.4,6,3.9,12.2,5.5,18.7c0.6,2.5,1.2,5.1,1.9,7.7
			c0.2,0.8,0.4,1.5,0.6,2.3c0.3,1,0.6,2,0.8,2.9c0.2,0.7,0.4,1.4,0.5,2.1c2.6,10.3,3.9,15.4-3.3,25.1c-8.2,11.1-10.4,18.4-2.7,35
			c2.7,5.7,8,12.2,13.5,19c11,13.5,22.4,27.4,15.8,38.5c-7.3,12.2-24.8,16.2-41.7,20.1c-12.4,2.9-24.2,5.6-31.3,11.2
			c-2.1,1.7-4,3.7-5.8,5.6c-5.2,5.5-10.6,11.1-21.3,10.7c-3.5-0.2-6.5-2-9.2-3.6c-2.5-1.5-4.6-2.8-6.7-2.6
			c-4.8,0.5-8.4,2.6-10.2,6.2c-2.2,4.3-1.4,9.3-0.1,11.4c0.4,0.7,2.1,1.3,3.7,1.8c3.1,1,7.4,2.4,6.6,6.9l0,0.2l-0.1,0.2
			c-3.4,5.2-14.7,7.3-25.7,9.4c-7.8,1.5-15.2,2.8-18.2,5.1c-2.5,1.9-3.1,3.2-3.7,4.7c-1.2,2.8-2.2,5.2-13.9,9.1
			c-4.1,1.4-8.2,1.4-12.1,1.3c-11.1-0.3-20.9-5.8-31.2-11.5c-1.4-0.8-2.8-1.5-4.2-2.3c-3.4-1.9-7-3.5-11-5c-5.4-2-10.9-3.4-16.2-4.1
			c-28-3.5-50.6,10.6-72.6,24.3c-11.3,7.1-23.1,14.4-35.4,19.2l-0.1,0.1c-4.8,1.9-9.8,3.8-15.5,4.5C290.2,498.9,288.9,499,287.6,499
			z"></path>
	</g>
	<g>
		<path class="st5 UtBgpPWM_5" d="M260,506.1c-8.1,0-16.6-2.2-25.3-6.7c-0.2-0.1-0.4-0.2-0.6-0.3c-0.3-0.1-0.5-0.3-0.8-0.4
			c-27.3-12.6-44.8-31.2-52.2-55.2c-13.3-43.6,10.7-93.3,26.3-119c16.9-27.9,33.4-46.1,52-57.3c4.6-2.8,10.8-4.4,16.7-6
			c6.2-1.7,12.7-3.4,16.6-6.4c5.1-3.8,7.1-9.1,8.5-15.8c0.5-2.3,0.9-4.6,1.4-6.8c1.3-6.3,2.6-12.9,4.7-19.2
			c3.2-9.6,6.6-17.4,10.7-24.7c3.3-5.9,8-13.1,15.9-17.2c7.1-3.7,15.3-4,21.6-3.8c16.6,0.5,29.4,3.6,40.2,9.7h0
			c5.6,3.2,10.5,7.4,15.2,11.6c2.3,2,4.7,4.1,7.1,6c8.5,6.7,16,11.4,23.7,14.9l0.4,0.2c1.5,0.7,3.1,1.4,4.7,2.3
			c7.9,4.6,9.5,15.1,9.9,24.7c0.2,3.5,0.3,7,0.4,10.5c0.4,10.2,0.8,20.7,1.9,31.1c0.3,3.1,1.4,7.3,4.3,9.9c3.9,3.4,9.4,3.2,14.8,2.9
			c1.2-0.1,2.4-0.1,3.5-0.1c7,0,14-0.9,20.8-2.4c14.3-3.3,27.6-9.4,38.4-17.5c1.4-1,2.7-2.1,4-3.2c15.6-13.1,26.6-30.8,37.3-47.9
			c2.2-3.5,4.5-7.2,6.8-10.7c1.1-1.7,2.2-3.6,3.4-5.5c8.5-13.8,20-32.8,40-31.9c11,0.5,14.6,11.8,16.2,16.6c2.2,7,3.5,14.3,4.7,21.4
			c0.6,3.4,1.2,7,1.9,10.4c0.2,1,0.4,2,0.6,3c0.2,1.1,0.5,2.1,0.7,3.2l0.4,1.8c2.6,12.9,3.9,19.4-6.7,31.5
			c-10.8,12.3-14.6,19.7-6,39c2.9,6.6,9.5,14.2,16.5,22.3c13.3,15.5,27,31.5,19.4,44.7c-8.1,14.2-28.3,18.7-47.7,23
			c-14.9,3.3-29,6.5-36.8,13.5c-2.3,2-4.2,4.4-6.3,6.9c-5.7,6.8-12.2,14.6-25.4,14.1c-4.6-0.2-8.2-2.6-11.5-4.7
			c-2.4-1.6-4.7-3.1-6.5-2.9c-5,0.6-8.4,2.9-10.1,6.7c-2,4.6-0.9,10.6,1.2,13.5c0.5,0.6,3.3,1.5,4.9,2c4.4,1.4,11.9,3.7,10.4,10.6
			c-1.7,8.1-14.1,11.5-27.3,15.1c-8.1,2.2-17.3,4.7-19.9,7.9c-2.2,2.7-2.3,4.5-2.5,6.7c-0.4,5.4-1.7,9.6-14.8,15.5
			c-5.2,2.3-10.3,2.8-13.7,2.9c-13.3,0.5-24.8-6.9-36-14c-1-0.6-2-1.3-3-1.9c-3.5-2.2-7.3-4.2-11.5-6.1c-5.6-2.5-11.3-4.4-17-5.5
			c-30-6.1-56,5.4-83.5,17.5c-13.5,5.9-27.4,12.1-41.8,15.9c-5.6,1.5-11.4,3-17.9,3.5C262.1,506.1,261.1,506.1,260,506.1z"></path>
	</g>
	<g>
		<g>
			<path class="st6 UtBgpPWM_6" d="M466.9,519.7c-14.1,0-26-8.4-37.6-16.6l-2.2-1.6c-3.7-2.6-7.6-4.9-11.9-7.2c-5.8-3-11.8-5.3-17.9-6.9
				c-32.2-8.7-62.7,0.8-95.1,10.9c-15.4,4.8-31.4,9.8-47.5,12.6c-6.6,1.2-13.1,2.2-20,2.4c-10,0.2-20.5-2-31.3-6.7
				c-0.3-0.1-0.5-0.2-0.8-0.3c-0.3-0.1-0.6-0.3-0.9-0.4c-31.7-12.9-52.1-32.8-60.5-59.2c-6.2-19.5-5.8-42.2,1.2-67.4
				c5.9-21.3,16.7-44.6,31.3-67.3c26.1-40.8,46.5-55.3,59.5-62.6c5.3-3,12.3-4.6,19.1-6.1c7-1.6,14.2-3.2,18.2-6.2
				c5.2-3.9,7-9.5,8.1-16.8c0.4-2.8,0.8-5.7,1.2-8.5c0.9-7.1,1.9-14.4,3.8-21.4c2.9-10.9,6.3-20.3,10.3-28.8
				c3.4-7,8.4-15.7,17.5-20.7c8.1-4.4,17.5-4.6,24.7-4.3c18.5,0.8,32.8,4.7,44.9,12.1l0,0c5.9,3.6,11.1,8.2,16.2,12.7
				c2.9,2.5,5.8,5.2,8.9,7.5c9.3,7.2,18.1,12.5,26.8,16.1l0.4,0.1c1.8,0.8,3.8,1.5,5.6,2.6c10,5.5,11.5,18.5,11.7,29.3
				c0.1,3.6,0.1,7.2,0.1,10.8c0.1,11.9,0.3,24.3,1.3,36.4c0.2,2.7,1.1,7.5,4.2,10.1c4,3.4,10.1,2.8,16.1,2.3
				c1.3-0.1,2.7-0.2,4.1-0.3c8-0.4,15.9-1.7,23.5-3.8c16-4.4,30.8-11.9,42.6-21.6c1.5-1.2,3-2.5,4.4-3.8
				c17.4-16.1,29.3-37.7,40.8-58.5c2.1-3.8,4.2-7.7,6.4-11.4c1-1.8,2.1-3.9,3.3-6c9.3-17.2,21.9-40.7,45.8-39.8
				c13.8,0.5,17.6,15.2,19.1,20.7c2.1,8,3.1,16.3,4.1,24.3c0.5,4.3,1.1,8.6,1.8,13c0.2,1.4,0.4,2.7,0.7,3.9c0.2,1.1,0.4,2.2,0.5,3.2
				l0.3,1.5c2.6,15.6,3.9,23.4-10.3,37.8c-13.9,14.3-18.3,21.7-9.2,42.9c3.1,7.3,11.4,16.5,19.3,25.5c15.6,17.5,31.7,35.6,23.1,51
				c-9,16.2-31.8,21.2-53.9,26c-16.6,3.6-33.7,7.4-42.2,15.6c-2.4,2.4-4.5,5.2-6.8,8.2c-6.4,8.5-13.7,18.2-29.7,17.7
				c-5.7-0.2-10.2-3.3-13.8-5.7c-2.3-1.6-4.8-3.3-6.1-3.1c-5.1,0.7-8.5,3.1-10,7.1c-2,5.3-0.4,12.3,2.3,15.6c0.7,0.7,4,1.7,6,2.3
				c6.1,1.9,15.4,4.7,14.6,13.8c-0.9,10.5-14.5,15.3-28.8,20.5c-8.5,3.1-19.1,6.9-21.5,10.8c-2,3.4-1.8,5.8-1.6,8.8
				c0.7,7.5-0.1,13.9-15.5,22.2c-4.7,2.5-9.7,4-15.4,4.5C469.1,519.6,468,519.7,466.9,519.7z"></path>
		</g>
	</g>
	<g>
		<path class="st7 UtBgpPWM_7" d="M461.5,537.5c-13.6,0-25.1-8.8-37.2-18.2l-1.6-1.3c-4.1-3.1-8.5-6-13-8.6c-6.3-3.6-12.9-6.5-19.7-8.8
			c-35.9-11.8-71.8-4.1-109.9,4.1c-17.1,3.7-34.8,7.5-52.3,9.3c-7.8,0.8-14.5,1.3-21.5,1.2c-10.4-0.2-21.2-2.3-32.2-6.4
			c-0.3-0.1-0.6-0.2-0.9-0.3c-0.3-0.1-0.7-0.3-1-0.4c-34.7-12.5-56.8-32.7-65.8-60.1c-6.8-20.6-6-45,2.2-72.4
			c7-23.2,19.4-48.7,36.1-73.6c15.2-22.8,36.4-51,65.1-66.1c5.4-2.8,12.8-4.2,20.1-5.6c8.3-1.6,16.8-3.2,21.8-6.9
			c7.3-5.3,9-13.4,9.8-21.3c0.3-3.3,0.6-6.7,0.9-9.9c0.6-7.7,1.2-15.7,2.8-23.3c2.6-12.3,5.7-22.5,9.7-31.9
			c3.2-7.5,7.9-16.7,16.8-21.7c8-4.5,17.5-4.6,25-4.2c19.4,1.1,34.4,5.5,47.1,13.7l0,0c5.9,3.8,11.3,8.6,16.4,13.3
			c3.5,3.1,7.1,6.4,10.9,9.3c10.6,8.2,20.8,14.1,31.2,18.1l0.3,0.1c2,0.8,4.2,1.6,6.1,2.6c9.8,5,10.8,19.1,10.7,29.3
			c0,3.8-0.1,7.5-0.1,11.2c-0.2,13.7-0.3,27.9,0.6,42c0.2,3.6,1.3,10.2,6,14.1c5.8,4.8,14.1,3.7,21.3,2.8c1.5-0.2,3-0.4,4.4-0.5
			c9.3-0.9,18.5-2.7,27.4-5.4c18.5-5.6,35.3-14.9,48.8-26.8c1.7-1.5,3.4-3.1,5-4.6c19.9-19.8,32.8-45.7,45.3-70.8c2-3.9,4-8,6-11.9
			c1-2,2.1-4.2,3.2-6.5c9.4-19.3,22.2-45.8,46.7-44.9c11.3,0.4,15.1,12,17.1,20.7c1.9,8.8,2.7,17.8,3.4,26.6
			c0.4,5.1,0.9,10.4,1.5,15.6c0.2,1.8,0.5,3.6,0.7,5.2c0.1,1,0.3,1.9,0.4,2.8l0.2,1.2c2.5,18,3.4,24.7-12.3,39.7
			c-16.7,15.9-24.8,25.5-13.5,52.6c3.7,8.8,13.1,19.1,23.1,30c16.6,18.2,33.8,36.9,26.1,51.3c-8.7,16.2-33.1,21.4-56.7,26.5
			c-19.6,4.2-39.9,8.5-50.1,19.2c-2.9,3-5.4,6.6-7.8,10c-6.7,9.6-13.6,19.6-29.5,19.2c-5.3-0.1-9.6-3.2-13.4-5.9
			c-3.5-2.5-6.5-4.6-9.5-4.2c-7.1,1.1-12,4.9-14.1,10.8c-2.9,8.1,0,18.1,4.5,23c1.7,1.8,5.5,3,9.5,4.2c7.1,2.1,15,4.5,15,11.7
			c0,9.5-13.2,15.2-27.2,21.1c-11.1,4.7-22.5,9.6-25.6,16.2c-2.6,5.6-1.9,9.9-1.2,14.1c1.2,7,2.4,13.7-13.5,23.5
			c-4.8,3-9.7,4.8-15.1,5.5C464.4,537.4,462.9,537.5,461.5,537.5z"></path>
	</g>
	<g>
		<g>
			<path class="st8 UtBgpPWM_8" d="M456.3,563.8L456.3,563.8c-16.2,0-29.5-11-42.3-21.6l-1.1-0.9c-4.2-3.5-8.6-6.6-13.1-9.4
				c-6.3-3.9-13.1-7.3-20.1-9.9c-37.5-14.2-77.9-8.6-120.7-2.6c-18.9,2.6-38.3,5.4-57.6,6.3c-6.5,0.3-15,0.6-23.9,0.1
				c-11.9-0.6-24-2.9-35.8-6.7c-0.4-0.1-0.8-0.3-1.3-0.4l-0.9-0.3c-40.2-13-65.9-35.4-76.3-66.3c-7.9-23.4-6.8-51.1,3.1-82.4
				c8.2-26,22.7-54.4,41.9-82c11.6-16.9,21.8-29.7,32.1-40.5c13.7-14.3,27.3-24.7,41.7-31.9c6.5-3.2,15.1-4.6,23.4-5.9
				c8.6-1.4,17.5-2.8,21.9-6c6-4.4,7.6-11.1,8.1-19.8c0.2-3.7,0.4-7.5,0.5-11.1c0.3-8.7,0.6-17.6,2.1-26.3
				c2.4-14.1,5.4-25.7,9.5-36.5c3.2-8.4,8.7-20.3,19.8-26.8c9.7-5.7,21.1-5.7,30-5.1c21.9,1.5,38.9,6.8,53.4,16.7
				c6.5,4.4,12.2,9.6,17.8,14.6c4,3.7,8.2,7.4,12.5,10.7c11.3,8.7,22.2,14.8,33.5,18.9l0.3,0.1c2.4,0.9,4.9,1.8,7.4,3
				c13.5,6.6,14.6,24.2,14.3,36.8c-0.1,3.5-0.2,7-0.3,10.5l0,0.4c-0.5,15.7-0.9,31.8-0.2,47.8c0.2,3.2,1,9,4.7,12
				c4.8,3.9,12.6,2.6,20.1,1.4c1.7-0.3,3.4-0.5,5-0.7c10.2-1.3,20.1-3.5,29.6-6.6c19.7-6.5,37.6-16.9,51.8-30.3
				c1.8-1.7,3.5-3.4,5.2-5.2c21.5-22.5,35-52.2,48.1-80.9l0.1-0.1c1.9-4.1,3.7-8.1,5.6-12.2c1-2.1,2-4.3,3-6.7l0-0.1
				c9.9-22.2,25-55.8,55.5-54.9c17.9,0.5,21.7,20.7,23,27.3c1.9,10,2.4,20.1,2.9,29.8c0.3,5.9,0.7,12,1.3,17.9
				c0.3,2.5,0.5,4.7,0.8,6.9l0.3,2.9c2.5,21.5,3.5,30.4-17,48.9c-9.9,8.9-16.6,15.3-19.5,22.9c-2.9,7.7-1.8,16.7,3.6,30
				c3.6,9,14.7,20.7,25.3,32.1c19.7,21,40.1,42.7,30.3,61.4c-10.3,19.7-38.2,25.5-65.2,31.2c-21.4,4.5-43.5,9.2-53.6,20.3
				c-2.8,3.1-5.3,6.9-7.9,10.8c-7.5,11.4-15.9,24.3-35.5,24.3c-0.4,0-0.7,0-1.1,0c-7.4-0.2-13-4.3-17.5-7.6c-2.3-1.7-5.5-4-6.8-3.8
				c-6.1,1-10,4.1-11.6,9c-2.5,7.5,0.6,17.4,5,22c1.2,1.3,6.1,2.7,9.3,3.7c8.7,2.6,20.7,6.2,21.4,17.8c0.8,14.1-15.3,21.9-30.8,29.5
				c-10.7,5.2-22.8,11.1-25.3,17.5c-2.1,5.5-1.2,9.4,0,14.4c2.1,8.8,4.6,19.7-15.4,33.4c-5.8,4-11.9,6.6-17.9,7.7
				C460.6,563.6,458.4,563.8,456.3,563.8z M456.2,554c-12.6,0-23.5-9.1-36-19.4l-1.1-0.9c-4.5-3.7-9.3-7.2-14.2-10.2
				c-6.9-4.3-14.2-7.9-21.8-10.8c-16.8-6.4-35.6-9.5-57.5-9.5c-22.6,0-45.7,3.2-68.1,6.4c-18.6,2.6-37.9,5.3-56.7,6.2
				c-9.3,0.4-16.3,0.5-22.9,0.1c-11.1-0.6-22.3-2.7-33.3-6.2c-0.4-0.1-0.8-0.3-1.2-0.4l-0.9-0.3c-37.1-12-60.7-32.3-70-60.1
				c-7.2-21.4-6.1-47,3.2-76.3c8-25.1,22-52.5,40.6-79.4c31.9-46.3,54.3-61.3,70.1-69.1c5.2-2.6,13-3.8,20.6-5
				c9.8-1.6,19.8-3.2,26.2-7.8c9.6-7,11.5-17.7,12.1-27.1c0.2-3.8,0.4-7.6,0.5-11.4c0.3-8.3,0.6-16.9,2-25c2.3-13.5,5.2-24.5,9-34.7
				c2.6-7,7.1-16.9,15.5-21.8c7.4-4.3,16.9-4.3,24.3-3.8c20.1,1.4,35.5,6.2,48.6,15c5.9,4,11.1,8.7,16.7,13.8
				c4.2,3.8,8.5,7.7,13.1,11.2c12.1,9.3,23.9,15.9,36.2,20.3l0.3,0.1c2.3,0.8,4.4,1.6,6.3,2.5c9.4,4.6,9,22,8.8,27.7
				c-0.1,3.6-0.2,7.2-0.3,10.8c-0.5,15.8-1,32.2-0.2,48.6c0.4,8.4,3.4,15.2,8.4,19.2c8.2,6.6,19.1,4.9,27.8,3.5
				c1.7-0.3,3.2-0.5,4.7-0.7c10.8-1.3,21.4-3.7,31.4-7c21-6.9,40.2-18.1,55.5-32.4c1.9-1.8,3.8-3.7,5.6-5.6
				c22.6-23.7,36.5-54.2,50-83.6c1.9-4.1,3.7-8.2,5.6-12.2c1-2.2,2-4.5,3.1-6.9c9.4-21,22.3-49.7,46.2-49.1
				c6.9,0.2,11.1,6.1,13.6,19.3c1.7,9.3,2.2,18.7,2.8,28.6c0.3,6,0.7,12.3,1.3,18.4c0.3,2.5,0.5,4.8,0.8,7l0.3,2.9
				c2.3,20,2.9,25.4-13.8,40.4c-10.2,9.2-18.3,17-22.1,26.8c-3.8,10.1-2.7,21.5,3.6,37.2c4.3,10.7,15.5,22.5,27.3,35.1
				c16.5,17.6,35.3,37.6,28.8,50.1c-8.2,15.6-33.7,21-58.5,26.2c-22.9,4.8-46.6,9.8-58.9,23.3c-3.4,3.7-6.1,8-8.8,12.1
				c-3.5,5.3-6.7,10.3-11,14c-4.8,4.1-10.3,6-17.1,5.9c-4.3-0.1-8-2.8-12-5.7c-4.4-3.2-8.9-6.5-14.2-5.5
				c-9.6,1.6-16.5,7.2-19.3,15.6c-3.9,11.8,0.8,25.2,7.2,31.9c3,3.1,8.1,4.7,13.5,6.3c8.3,2.5,14.1,4.6,14.4,8.9
				c0.4,7.6-12.7,14-25.3,20.1c-12.9,6.3-26.3,12.8-30.1,22.7c-3.2,8.3-1.7,14.9-0.4,20.2c1.9,7.9,3.1,13.2-11.4,23.1
				c-4.7,3.2-9.4,5.2-14.2,6.1C459.4,553.9,457.8,554,456.2,554z"></path>
		</g>
	</g>
	<g>
		<path class="st9 UtBgpPWM_9" d="M451.2,586c-17.3,0-31.6-12.6-44.7-24.1l-0.8-0.7c-47.1-41.4-106.3-36.6-168.9-31.5
			c-42.9,3.5-87.2,7.1-128.3-5c-44.4-13.1-72.7-36.5-84.2-69.7c-8.7-25.3-7.4-55.6,4-90c9.4-28.4,25.7-59.3,47.2-89.4
			c20.7-29,46.5-60.9,81-77.2c7.1-3.4,16.5-4.6,25.6-5.9c9.4-1.3,19.2-2.6,23.8-6c6.3-4.6,7.8-11.8,8.1-21.3
			c0.1-4.1,0.1-8.3,0.1-12.4c0-9.5,0-19.3,1.3-28.8c2.1-15.6,5-28.5,9.1-40.4c3.2-9.3,8.8-22.6,20.9-29.9c10.6-6.3,23-6.3,32.6-5.5
			c23.6,1.9,41.9,7.9,57.6,19c6.7,4.7,12.7,10.2,18.5,15.5c4.8,4.4,9.4,8.6,14.3,12.4c12.3,9.4,24.3,16,36.8,20.2l0.4,0.1
			c2.7,0.9,5.4,1.8,8.1,3.1h0c16.9,8,16,32.5,15.6,40.6c-0.2,4-0.3,8-0.5,11.9c-0.8,17.9-1.5,34.9-0.9,52.4c0.2,5.9,2,10.6,5,13
			c5.2,4.1,13.8,2.6,22.1,1c1.8-0.3,3.7-0.7,5.5-0.9c11.2-1.7,22.2-4.4,32.6-8c21.6-7.6,41.1-19.5,56.5-34.6
			c1.9-1.9,3.8-3.8,5.6-5.8c23.5-25.8,37.9-59.6,51.7-92.3c1.8-4.2,3.5-8.3,5.3-12.5c1-2.2,1.9-4.6,3-7.1
			c10.5-25.2,26.4-63.4,60.3-62.5c5.7,0.1,13.6,2.3,19.1,12c3.5,6.2,5,13.6,5.8,18.6c1.8,11.1,2.1,22.2,2.4,33
			c0.2,6.6,0.4,13.5,1,20.1c0.3,3.8,0.7,7.3,1,10.4c2.3,24,3.3,34-20.4,54.4c-23.4,20.2-30.9,28.7-19.3,58.1
			c3.9,9.8,16.3,22.8,28.3,35.4c21.8,22.8,44.3,46.4,33.9,66.6c-11,21.4-41.4,27.7-70.8,33.8c-23.8,4.9-48.4,10-59.3,22.6
			c-3.1,3.5-5.7,7.8-8.5,12.3c-7.7,12.4-17.4,27.9-39.9,27.5c-8.2-0.2-14.4-4.8-19.4-8.5c-2.3-1.7-5.9-4.4-7.1-4.2
			c-6.6,1.2-10.7,4.4-12.4,9.9c-2.7,8.6,1.1,20,6.3,25.3c1.5,1.5,6.7,3.1,10.9,4.3c9.9,3,23.4,7,24.7,19.7
			c1.7,15.9-15.4,25.1-32,34.1c-11.5,6.2-24.5,13.2-27,20.8c-2.1,6.5-0.8,11.5,0.8,17.3c3.5,13,4.7,24.1-15.4,39
			C468.4,583.1,459.5,586,451.2,586z"></path>
	</g>
</g>
<style>.UtBgpPWM_0{stroke-dasharray:795 797;stroke-dashoffset:796;animation:UtBgpPWM_draw_0 11200ms linear 0ms infinite,UtBgpPWM_fade 11200ms linear 0ms infinite;}.UtBgpPWM_1{stroke-dasharray:911 913;stroke-dashoffset:912;animation:UtBgpPWM_draw_1 11200ms linear 0ms infinite,UtBgpPWM_fade 11200ms linear 0ms infinite;}.UtBgpPWM_2{stroke-dasharray:1043 1045;stroke-dashoffset:1044;animation:UtBgpPWM_draw_2 11200ms linear 0ms infinite,UtBgpPWM_fade 11200ms linear 0ms infinite;}.UtBgpPWM_3{stroke-dasharray:1208 1210;stroke-dashoffset:1209;animation:UtBgpPWM_draw_3 11200ms linear 0ms infinite,UtBgpPWM_fade 11200ms linear 0ms infinite;}.UtBgpPWM_4{stroke-dasharray:1401 1403;stroke-dashoffset:1402;animation:UtBgpPWM_draw_4 11200ms linear 0ms infinite,UtBgpPWM_fade 11200ms linear 0ms infinite;}.UtBgpPWM_5{stroke-dasharray:1620 1622;stroke-dashoffset:1621;animation:UtBgpPWM_draw_5 11200ms linear 0ms infinite,UtBgpPWM_fade 11200ms linear 0ms infinite;}.UtBgpPWM_6{stroke-dasharray:1844 1846;stroke-dashoffset:1845;animation:UtBgpPWM_draw_6 11200ms linear 0ms infinite,UtBgpPWM_fade 11200ms linear 0ms infinite;}.UtBgpPWM_7{stroke-dasharray:2039 2041;stroke-dashoffset:2040;animation:UtBgpPWM_draw_7 11200ms linear 0ms infinite,UtBgpPWM_fade 11200ms linear 0ms infinite;}.UtBgpPWM_8{stroke-dasharray:4517 4519;stroke-dashoffset:4518;animation:UtBgpPWM_draw_8 11200ms linear 0ms infinite,UtBgpPWM_fade 11200ms linear 0ms infinite;}.UtBgpPWM_9{stroke-dasharray:2516 2518;stroke-dashoffset:2517;animation:UtBgpPWM_draw_9 11200ms linear 0ms infinite,UtBgpPWM_fade 11200ms linear 0ms infinite;}@keyframes UtBgpPWM_draw{100%{stroke-dashoffset:0;}}@keyframes UtBgpPWM_fade{0%{stroke-opacity:1;}96.42857142857143%{stroke-opacity:1;}100%{stroke-opacity:0;}}@keyframes UtBgpPWM_draw_0{7.142857142857142%{stroke-dashoffset: 796}48.8095238095238%{ stroke-dashoffset: 0;}100%{ stroke-dashoffset: 0;}}@keyframes UtBgpPWM_draw_1{9.457671957671957%{stroke-dashoffset: 912}51.12433862433862%{ stroke-dashoffset: 0;}100%{ stroke-dashoffset: 0;}}@keyframes UtBgpPWM_draw_2{11.772486772486774%{stroke-dashoffset: 1044}53.43915343915343%{ stroke-dashoffset: 0;}100%{ stroke-dashoffset: 0;}}@keyframes UtBgpPWM_draw_3{14.087301587301587%{stroke-dashoffset: 1209}55.753968253968246%{ stroke-dashoffset: 0;}100%{ stroke-dashoffset: 0;}}@keyframes UtBgpPWM_draw_4{16.402116402116405%{stroke-dashoffset: 1402}58.06878306878307%{ stroke-dashoffset: 0;}100%{ stroke-dashoffset: 0;}}@keyframes UtBgpPWM_draw_5{18.71693121693122%{stroke-dashoffset: 1621}60.383597883597886%{ stroke-dashoffset: 0;}100%{ stroke-dashoffset: 0;}}@keyframes UtBgpPWM_draw_6{21.03174603174603%{stroke-dashoffset: 1845}62.698412698412696%{ stroke-dashoffset: 0;}100%{ stroke-dashoffset: 0;}}@keyframes UtBgpPWM_draw_7{23.346560846560845%{stroke-dashoffset: 2040}65.0132275132275%{ stroke-dashoffset: 0;}100%{ stroke-dashoffset: 0;}}@keyframes UtBgpPWM_draw_8{25.66137566137566%{stroke-dashoffset: 4518}67.32804232804233%{ stroke-dashoffset: 0;}100%{ stroke-dashoffset: 0;}}@keyframes UtBgpPWM_draw_9{27.976190476190478%{stroke-dashoffset: 2517}69.64285714285714%{ stroke-dashoffset: 0;}100%{ stroke-dashoffset: 0;}}</style></svg>
