<!--?xml version="1.0" encoding="utf-8"?-->
<!-- Generator: Adobe Illustrator 21.0.2, SVG Export Plug-In . SVG Version: 6.00 Build 0)  -->
<svg version="1.1" id="Layer_1" xmlns="http://www.w3.org/2000/svg" xmlns:xlink="http://www.w3.org/1999/xlink" x="0px" y="0px" width="750px" height="600px" viewBox="0 0 750 600" style="" xml:space="preserve">
<style type="text/css">
	.st0{fill:none;stroke:#7C2582;stroke-width:10;stroke-miterlimit:10;}
	.st1{fill:none;stroke:#00ADBB;stroke-width:4;stroke-miterlimit:10;}
	.st2{fill:none;stroke:#FF5000;stroke-width:3;stroke-miterlimit:10;}
	.st3{fill:none;stroke:#C227B9;stroke-width:8;stroke-miterlimit:10;}
	.st4{fill:none;stroke:#65CBC9;stroke-width:4;stroke-miterlimit:10;}
	.st5{fill:none;stroke:#C227B9;stroke-width:4;stroke-miterlimit:10;}
	.st6{fill:none;stroke:#7C2582;stroke-width:4;stroke-miterlimit:10;}
	.st7{fill:none;stroke:#FF5000;stroke-width:5;stroke-miterlimit:10;}
	.st8{fill:none;stroke:#7C2582;stroke-width:3;stroke-miterlimit:10;}
	.st9{fill:none;stroke:#00ADBB;stroke-width:5;stroke-miterlimit:10;}
	.st10{fill:none;stroke:#00ADBB;stroke-width:8;stroke-miterlimit:10;}
</style>
<g>
	<g>
		<g>
			<path class="st0 nawGjYrO_0" d="M395.3,347.2c-1.2,0-2.4-0.2-3.7-0.5c-8.9-2.5-9.9-3.1-14.5-8.9c-0.5-0.7-1.1-1.4-1.8-2.3
				c-1-1.3-2.1-2.9-3.1-4.5c-1.2-1.8-2.4-3.7-3.5-4.9c-5.5-6.2-10.3-11.9-13.2-19.3c-3.8-10-4.3-21.7-1.6-35.8
				c3.2-16.3,9.5-32.6,18.3-47.2c9-14.8,20.5-28,33.5-38c8.1-6.3,16.9-11.1,25.5-14.1c10.1-3.5,20-4.5,29.3-2.9
				c17.8,3.1,34.1,14.9,48.4,35c10.1,14.3,16.9,26,20.2,34.9c3.4,9.1,3.3,15.6-0.2,20c-2.9,3.6-7.5,5.1-13.7,5.1
				c-15,0-39-9.2-67.3-20.9c-12.5-5.2-28.1-11.6-31.4-11.1c-0.7,0.4-0.9,0.8-0.9,1.4c-0.5,4.9,7.5,16.5,21.3,31
				c11.5,12.1,24.3,23.5,27.3,25.7l0,0c2,1.5,4.5,3.3,5.7,6.2c1.8,4.2,0.2,6.8-1,8c-4,4.2-13.7,3-17.1,1.8
				c-9.2-3.4-17.7-9.4-25.8-15.3c-1.8-1.3-3.5-2.5-5.2-3.7c-5.9-4.1-8.3-5.3-9.4-5.5c-0.6,2.1-0.1,8.3,0.4,14.4
				c0.6,7.7,1.4,18.3,1.4,31.4c0,5.7-3.9,12.9-9,16.8C401.4,346.1,398.4,347.2,395.3,347.2z M416.5,231.9L416.5,231.9L416.5,231.9z"></path>
		</g>
	</g>
	<g>
		<g>
			<path class="st1 nawGjYrO_1" d="M378.7,366.9c-3.7,0-6.5-0.6-8.8-2c-1.4-0.8-2.6-1.9-3.7-3.4c-1.9-2.4-3.4-4.9-4.9-7.9
				c-2.8-5.6-3.8-13.4-4.3-19c-0.2-2.9-0.2-4.9,0.1-6.8c0.2-1.6,0.5-3,0.9-4.5l0-0.1c0.9-4,1-9.1,0.1-14.4c-0.2-1.2-0.4-2.5-0.7-4.1
				c-0.4-1.9-0.8-3.9-1.2-5.9c-0.5-2.3-1-4.8-1.5-7.2c-0.5-2.4-1.1-4.1-1.8-5c-0.8-1-1.7-1.7-2.7-2.3c-0.4-0.3-0.8-0.5-1.1-0.8
				c-0.8-0.6-1.7-1.2-2.5-1.8c-1.4-1-2.9-2.1-4.3-3.4c-0.4-0.4-0.9-0.8-1.3-1.2c-2.1-1.8-4.7-3.9-6.1-7.6c-0.5-1.4-0.6-2.8-0.7-4.2
				l0-0.2c-0.2-2.5,0.1-5.4,0.8-8.4c0.6-2.5,1.4-4.8,2.3-7.1l0.1-0.2c4.1-11.2,11.4-26.8,22.9-37.3c3.9-3.5,8-6.8,12.4-9.6
				c2.2-1.5,4.4-2.8,6.8-4.2c1.2-0.7,2.3-1.4,3.5-2.2l0.3-0.2c0.4-0.2,0.7-0.5,1.1-0.7c0.5-0.3,1.1-0.7,1.6-1c2.4-1.5,5-3.1,6.1-5.5
				c2.5-5.4,5.6-12.2,12.5-17.4c6.5-5,14.6-8.9,22.1-10.7c5.6-1.3,10.6-1.7,16.9-1.3c5.7,0.4,11.6,1.3,17.6,2.8
				c3.4,0.8,6.9,1.9,10.3,3.1c7,2.5,14,6,20.9,10.3c10.3,6.4,17.8,12.7,23.7,19.7c13.4,15.8,21.9,30.8,24,42.4
				c1.1,6,0.3,10.8-2.3,14.2c-2.9,3.7-7.8,5.7-15,6.2c-9.4,0.6-22.8-1.3-40.8-5.7c-9.5-2.4-18.2-5.1-25.9-7.6
				c-7.2-2.3-13.4-4.3-17.8-5.1c-3.9-0.7-5.5-0.3-5.7,0.3l-0.3,0.7l-0.6,0.4c-4.2,3.1,2.5,14.9,8.9,24.2
				c5.9,8.6,13.1,17.7,18.8,25.1c7.3,9.2,11.1,14.2,12.2,16.9c1.3,1.4,2.9,3.2,3.5,5.6c0.9,3.3-0.3,5.4-1.5,6.5
				c-4.3,4.3-14.3,2.9-16.7,2.3c-9.7-2.4-18.7-7.7-27.4-12.8c-2-1.2-4-2.3-5.9-3.4c-0.3-0.2-0.6-0.4-1-0.5l-0.6-0.3
				c-7.2-4-9.2-4.2-9.7-3.9c-1,0.5-1.3,5.7-1.5,9.9c-0.4,7.4-1.1,18.5-4.8,32.9c-0.3,1.3-1.1,2.5-1.9,3.6c-0.4,0.6-0.8,1.2-1.2,1.9
				c-0.2,0.4-0.4,0.7-0.6,1.1c-0.3,0.5-0.6,1.1-0.9,1.6c-4.7,8.2-11.2,13.6-17.7,14.9c-0.9,0.2-1.8,0.2-2.7,0.3
				C380,366.9,379.3,366.9,378.7,366.9z"></path>
		</g>
	</g>
	<g>
		<g>
			<path class="st2 nawGjYrO_2" d="M362.5,387.2c-2.1,0-4-0.4-5.8-1.4c-1.5-0.9-2.7-2.1-3.9-3.9c-2.1-3-3.6-6.1-5-9.8
				c-3.2-8.5-2.9-19.9-1.3-27.4c0.8-3.8,1.9-6.8,3.5-9.2c1-1.6,2.2-3,3.3-4.3c0.4-0.5,0.8-0.9,1.2-1.4c4.1-5,6.2-12.5,5.7-20.7
				c-0.1-1.9-0.3-3.8-0.6-6c-0.6-4.5-1.5-9.2-2.4-13.7c-0.3-1.7-0.7-3.3-1-5c-0.7-3.8-1.9-6.4-3.5-7.7c-1.9-1.6-4.5-1.9-6.6-2.1
				c-0.4,0-0.7-0.1-1-0.1c-1.9-0.2-3.8-0.4-5.6-0.5c-2.6-0.2-5.3-0.3-8.1-0.9c-0.6-0.1-1.1-0.2-1.7-0.3c-4.5-0.8-10.1-1.8-13.8-6.3
				c-1.1-1.3-1.7-3.1-2.1-4.6c-0.8-2.8-0.8-6.4,0-10c0.6-2.8,1.7-5.5,2.7-8.1l0.3-0.8c5.7-14.4,15.8-33.6,31.5-43
				c5.4-3.2,11.1-5.9,17.1-7.9c2-0.7,4.1-1.3,6-1.8c2.5-0.7,5.2-1.5,7.9-2.5l0.1,0c0.6-0.2,1.2-0.4,1.8-0.7c0.6-0.2,1.2-0.5,1.8-0.7
				c3.7-1.4,7.5-2.8,8.4-6.8l0.3-1.3c1.6-7.2,3.4-15.4,11.3-21.4l0.6,0.9l-0.6-0.9c7-5.3,16.3-8.9,24.3-9.4c6.4-0.4,10.8,0.9,16,2.5
				l0.1,0c1.3,0.4,2.8,0.8,4.2,1.3c4,1.2,8.6,2.6,13.4,4.1c3.8,1.2,7.5,2.4,11,3.6c7.6,2.7,15.3,6,23.1,9.8
				c9.6,4.7,19.5,9.6,27.5,17.7c14.4,14.6,23.9,30.5,25.9,43.6c1.9,12-3.3,18.7-16.2,21.2c-9.8,1.8-23.5,1.6-41.8-0.8
				c-9.1-1.2-17-2.8-23.3-4.1c-9.8-2-16.8-3.5-19.5-1.4c-0.9,0.7-1.4,1.9-1.5,3.7l0,0.4l-0.3,0.3c-4.3,4.7,1.9,17,8.5,28.4
				c2.5,4.4,5.1,8.7,7.7,13c10.2,17,16.5,27.9,15.6,32.6c0.9,1.5,1.7,3.1,1.9,5.1c0.2,2-0.4,3.6-1.8,4.9c-3.7,3.5-12.2,3.3-16.1,2.6
				c-10.1-1.6-19.8-6.1-29.1-10.4c-2.1-1-4.3-2-6.3-2.9l-0.8-0.3c-0.3-0.1-0.6-0.3-0.9-0.4c-7.9-3.6-12.6-4.4-15.6-2.8
				c-4.7,2.5-6.1,11.7-8.6,26.8c-0.6,3.6-1.2,7.7-2,12.1l-0.1,0.3l-0.2,0.2c-0.4,0.4-0.8,0.7-1.2,1.1c-1.1,1-2.3,2.1-3.4,3.6
				c-0.6,0.8-1.1,1.7-1.7,2.6l-0.4,0.6c-3.3,5.3-10.2,14.8-19.4,18.5c-0.9,0.4-1.9,0.8-3,0.9C366.6,386.8,364.5,387.2,362.5,387.2z"></path>
		</g>
	</g>
	<g>
		<g>
			<path class="st3 nawGjYrO_3" d="M348.4,410.9c-2.2,0-4.4-0.5-6.5-1.7c-1.9-1.2-3.6-2.8-5-5.2c-2.3-3.6-4.1-7.6-5.4-12.3
				c-3.2-10.9-2.6-25.9,1.5-37.2c1.8-5.1,4.2-9.2,7.2-12.3c1.9-2,4-3.6,5.9-5.2c0.7-0.6,1.5-1.2,2.3-1.8
				c6.8-5.6,10.7-14.9,10.8-25.5c0-2.4-0.1-4.9-0.4-7.7c-0.6-6.6-1.9-13.3-3.1-19.8c-0.3-1.5-0.6-3-0.8-4.4
				c-0.8-4.5-2.3-7.5-4.2-8.7c-2.6-1.6-6.5-1.2-9.4-0.9c-0.3,0-0.6,0.1-0.8,0.1c-2.7,0.3-5.4,0.7-8,1.1c-4.1,0.6-8.4,1.3-12.8,1.4
				l-1.3,0c-7.1,0.2-16.7,0.5-23.7-5.3c-1.6-1.3-3-3.2-4-5.6c-1.6-3.6-1.9-8.2-0.9-13c0.7-3.5,2.1-6.7,3.4-9.7l0.5-1.1
				c13.6-32.4,30-45.1,41.3-50c7.1-3.1,14.6-5.2,22.5-6.3c2.3-0.3,4.6-0.6,6.8-0.8c3.4-0.4,7-0.7,10.7-1.5c0.8-0.2,1.5-0.3,2.3-0.5
				c0.7-0.2,1.4-0.3,2.1-0.5c5.2-1.2,8.6-2.2,8.9-6c0.1-0.9,0.1-1.7,0.2-2.6c0.7-9.1,1.5-19.4,11.5-26.9l0,0
				c8.1-6.1,19.1-9.5,28.1-8.7c6.2,0.5,10.2,2.9,14,5.2c0.7,0.5,1.5,0.9,2.3,1.4c4.5,2.6,10.4,5.3,17.6,7.9c3.7,1.3,7.6,2.7,11.3,4
				l0.5,0.2c8.2,2.9,16.6,6,25.6,9.5c1.5,0.6,2.9,1.1,4.4,1.7c9.5,3.6,19.4,7.4,27.6,14.6c16,14,26.7,31.4,28.6,46.4
				c1.7,12.9-4.1,21.2-17.5,25.3c-12.2,3.7-27.7,5.2-43.7,4.3c-5.9-0.4-11-0.8-15.5-1.2c-10.1-0.9-17.4-1.6-19.5,0.5
				c-1,1-1.3,3.3-0.9,7.1l0.1,0.9l-0.5,0.8c-3.1,5.2,3.9,19.7,8.6,29.3c11.7,24.1,19.7,42,15.8,50.2c0.3,1.3,0.5,2.9,0.4,4.9
				c-0.3,3-2.1,6.9-9.3,8.7c-4.9,1.2-10.3,0.9-11.8,0.8c-11-0.9-21.6-4.7-31.8-8.4c-2.1-0.8-4.4-1.6-6.5-2.3l-0.7-0.2
				c-0.4-0.1-0.7-0.3-1.1-0.4c-8.4-3-13.8-3.5-17.4-1.7c-6,3.1-9,13.6-14.1,31l-1,3.3l-0.9,0.6c-0.4,0.2-0.8,0.4-1.2,0.7
				c-1.6,0.9-3.3,1.9-4.7,3.5c-0.8,0.9-1.5,2-2.2,3.2l-0.2,0.3c-4.9,7.6-12.9,17.8-22.7,23.4l-0.1,0.1c-1,0.6-2.2,1.2-3.5,1.6
				C354.9,409.9,351.7,410.9,348.4,410.9z"></path>
		</g>
	</g>
	<g>
		<g>
			<path class="st4 nawGjYrO_4" d="M334.8,431.2c-2,0-3.9-0.5-5.8-1.6c-1.9-1.2-3.5-2.9-5-5.4c-2.4-4-4.2-8.5-5.5-13.9
				c-3.4-14-1.7-31.6,4.2-44.9c2.7-5.9,6.1-10.7,10.2-14.3c2.6-2.2,5.4-4,8.2-5.8c1.1-0.7,2.3-1.5,3.4-2.2
				c10.3-6.9,16.6-19,17.2-32.9c0.1-3.1,0.1-6.2-0.2-9.7c-0.6-8.6-2.3-17.4-3.9-25.9c-0.3-1.4-0.5-2.8-0.8-4.2
				c-1.2-6.3-3.4-10.4-6.5-12.1c-4.3-2.3-10.5-1-14.5-0.1l-0.5,0.1c-3.4,0.7-6.9,1.6-10.2,2.5c-5.6,1.4-11.4,2.9-17.4,3.7l-0.1,0
				c-9.4,1.3-22.4,3-32-3.1c-1.9-1.2-3.7-3.1-4.9-5.4c-2-3.6-2.6-8.6-1.6-13.8c0.8-3.9,2.3-7.4,3.9-10.8c0.2-0.5,0.4-1,0.6-1.5
				c9-20.8,24.9-47.2,49.3-55.2c8.4-2.7,17.7-4.3,26.9-4.5c2.6-0.1,5.2,0,7.8,0c4.3,0.1,8.8,0.1,13.5-0.3c0.9-0.1,1.9-0.2,2.9-0.3
				c0.7-0.1,1.4-0.2,2.2-0.3c6.9-0.9,12.3-2.1,12.2-8.3c0-1.2,0-2.5-0.1-3.8c-0.2-10.3-0.5-22,10.4-30.1c8.4-6.3,20.5-9.3,29.5-7.3
				c5.8,1.3,9.1,4.5,12.2,7.6c0.9,0.9,1.9,1.8,2.9,2.7c4.4,3.8,10.5,7.4,18.1,10.6c3.6,1.5,7.8,3.1,12.7,4.8
				c9.2,3.2,18.6,6.3,28,9.1c2.4,0.7,4.9,1.4,7.2,2.1c9.7,2.8,19.8,5.6,28.3,12.1c16.9,13,28.5,31.1,30.1,47.1
				c1.3,12.3-3.9,20.5-16.5,25.7c-10.8,4.5-25.3,7.5-44.4,9.1c-5.1,0.4-9.4,0.7-13.1,0.9c-10.4,0.7-16.2,1-18.2,3.6
				c-1.7,2.1-1.3,6.4,0.1,13.9l0.1,0.3l-0.1,0.3c-2.3,6.5,2.6,18.9,8.4,33.2l0.1,0.2c11.6,28.9,14.1,45.7,7.6,52.8
				c-0.1,1.7-0.3,3.2-0.8,5c-2.1,7.3-14.5,7.9-20.4,8.2c-10.8,0.5-21.5-2.6-31.9-5.5c-2.8-0.8-5.7-1.6-8.5-2.4l-0.7-0.2
				c-0.4-0.1-0.8-0.2-1.2-0.3c-12.5-3.4-20-2.9-25.9,1.8c-5.9,4.5-10.2,12.9-16.8,27.6l-0.2,0.4l-0.4,0.2c-0.4,0.1-0.7,0.3-1.1,0.4
				c-2.3,0.9-4.9,1.8-6.8,4c-1.1,1.2-2,2.5-2.9,4l-0.1,0.2c-8.2,12.3-16.6,21.4-24.8,27.1l-0.2,0.1c-1.1,0.7-2.2,1.5-3.4,2.1
				C341.9,429.7,338.3,431.2,334.8,431.2z"></path>
		</g>
	</g>
	<g>
		<g>
			<path class="st5 nawGjYrO_5" d="M321.3,453.2c-2.1,0-4.1-0.5-6.1-1.7c-2.2-1.3-3.9-3.3-5.6-6.2c-2.6-4.5-4.4-9.7-5.7-16
				c-3.5-17.3-0.8-38.3,7-53.5c3.6-7,8.1-12.7,13.5-16.8c3.3-2.6,7-4.6,10.5-6.5c1.5-0.8,3.1-1.7,4.6-2.6
				c13.3-7.8,21.9-22.4,23-39.1c0.2-3.7,0.2-7.5,0-11.6c-0.6-10.6-2.6-21.4-4.5-31.8c-0.3-1.4-0.5-2.7-0.8-4.1
				c-1.4-7.6-4.1-12.4-8.1-14.4c-5.5-2.7-13.4-0.5-18.7,1l-0.3,0.1c-4.1,1.2-8.2,2.5-12.2,3.7c-7.2,2.3-14.6,4.7-22.3,6.2
				c-10.2,2-27.4,5.4-40.2-1.4c-2.5-1.3-4.7-3.3-6.3-5.7c-2.6-4-3.5-9.7-2.3-15.7c0.9-4.4,2.7-8.4,4.4-12.2c0.3-0.6,0.5-1.2,0.8-1.7
				c6.8-15.1,14.5-27.8,22.9-37.6c10.7-12.4,22.5-20.4,35.2-23.6c9.9-2.5,20.9-3.5,31.8-2.8c3,0.2,6,0.5,8.9,0.8
				c5.1,0.5,10.5,1.1,16,0.9c0.9,0,2.2-0.1,3.4-0.2c0.7-0.1,1.5-0.1,2.3-0.2c4.5-0.3,10.2-0.7,12.8-3.6c1.2-1.3,1.7-3.1,1.5-5.4
				c-0.1-1.6-0.3-3.1-0.4-4.8c-1.1-11.9-2.3-25.4,10.1-34.6c9.1-6.8,22.6-9.4,32.1-6.2c6,2.1,8.9,6.2,11.7,10.2
				c0.9,1.3,1.9,2.7,2.9,3.9c4.1,5,10.4,9.4,18.4,13.2c4,1.8,8.4,3.6,13.6,5.4c9.7,3.4,20,6.3,30.4,8.8c3.1,0.7,6.3,1.4,9.3,2
				c10.3,2.1,21,4.3,30.1,10.5c18.1,12.3,30.8,31.5,32.3,48.8c1.1,12.3-4.4,21.5-16.6,28c-11.1,5.9-26.1,10.5-45.7,14l-3.2,0.6
				c-14.7,2.6-22,3.9-24.2,7.2c-1.7,2.7-0.6,7.2,1.4,15.5c0.4,1.6,0.8,3.3,1.3,5.2l0.1,0.2l0,0.2c-1.2,6.7,2.5,17.9,6.8,30.8
				c0.6,1.7,1.1,3.4,1.7,5.1c4.3,13.1,6.7,24.5,6.9,33.8c0.2,10.4-2.2,18-7.3,22.5c-0.5,1.6-1.2,3.1-2.2,5c-3.2,6.6-15,8.1-21.7,8.5
				c-12.4,0.6-24.8-1.8-36.8-4.1c-2-0.4-4-0.8-5.9-1.1l-0.7-0.1c-0.5-0.1-0.9-0.2-1.3-0.2c-13.2-2.6-22-1.9-29.5,2.2
				c-7.9,4.4-14.3,12.7-21.5,23.8l-0.2,0.3l-0.4,0.1c-0.4,0.1-0.8,0.2-1.2,0.3c-2.9,0.7-6.1,1.6-8.5,4c-1.3,1.3-2.4,2.9-3.5,4.5
				l-0.1,0.1c-9.6,14-18.6,24.3-27.5,31.4l-0.1,0.1c-1.2,1-2.4,2-3.8,2.7C329.5,451.3,325.3,453.2,321.3,453.2z"></path>
		</g>
	</g>
	<g>
		<g>
			<path class="st6 nawGjYrO_6" d="M307.9,475.3c-2.4,0-4.5-0.6-6.5-1.9c-2.4-1.5-4.3-3.7-6.1-7c-2.8-5-4.7-10.9-6-18.1
				c-3.6-20.9,0.1-44.8,9.7-62.2c4.5-8.1,10.2-14.7,16.8-19.4c4.1-2.9,8.6-5.2,13-7.4c1.9-0.9,3.8-1.9,5.7-2.9
				c16.4-8.8,27.2-25.7,28.8-45.3c0.3-4.3,0.4-8.7,0.2-13.5c-0.5-12.5-2.9-25.2-5.2-37.5c-0.3-1.4-0.5-2.7-0.8-4.1
				c-1.6-8.8-4.9-14.4-9.7-16.6c-6.7-3.1-16.8,0.2-22.8,2.2c-4.7,1.6-9.5,3.3-14.1,4.9c-8.8,3.2-17.9,6.5-27.3,8.7
				c-16.8,4-34.2,6.8-48.4,0.3c-3.1-1.4-5.7-3.6-7.6-6.1c-3.2-4.4-4.4-10.8-3.1-17.6c0.9-4.9,3-9.3,5-13.6c0.3-0.7,0.6-1.3,0.9-2
				c7.8-17,16.7-31.2,26.3-42c12.3-13.8,26-22.3,40.7-25.3c11.5-2.3,24.1-2.7,36.6-1.2c3.4,0.4,6.8,1,10.1,1.5
				c6.2,1,12.1,2,18.5,2.2c1.1,0,2.5,0.1,3.9,0c0.8,0,1.6,0,2.4-0.1c5.3-0.1,12-0.2,14.9-3.6c1.3-1.5,1.8-3.6,1.5-6.3
				c-0.2-1.9-0.5-3.8-0.8-5.9c-1.9-13.5-4.1-28.8,9.9-39.1c9.8-7.3,24.7-9.5,34.6-5.1c6.2,2.8,8.8,7.9,11.3,12.9
				c0.9,1.8,1.7,3.5,2.8,5.1c3.9,6.2,10.1,11.4,18.8,15.7c4.2,2.1,8.9,4,14.4,5.9c10.4,3.6,21.5,6.4,32.9,8.5
				c3.7,0.7,7.5,1.2,11.1,1.7c11,1.5,22.4,3.1,32.3,9.1c19.3,11.7,33.1,32,34.4,50.6c0.9,12.6-4.6,22.5-16.8,30.3
				c-11.6,7.4-26.6,13.5-47.1,19c-12.2,3.3-19.3,5.6-21.9,8.4c-2.3,2.4-1.6,5.4,0.2,12.1c1.2,4.4,2.7,10.4,3.6,18.4
				c1,9.4,4.9,24.7,8.6,38.5c7.5,28.1,4.5,49.9-8.3,59.7c-0.8,1.3-1.6,2.4-2.6,3.8c-0.3,0.4-0.6,0.9-1,1.3c-3.3,4.6-11,7.6-22.9,8.8
				c-13.4,1.4-27-0.3-40.1-1.9c-1.7-0.2-3.3-0.4-5-0.6l-0.7-0.1c-0.5-0.1-1-0.1-1.5-0.2c-13.8-1.8-24.1-1-33.1,2.6
				c-8.6,3.4-16.5,9.4-26.3,20.1l-0.2,0.3l-0.3,0.1c-0.4,0.1-0.9,0.2-1.3,0.2c-3.5,0.6-7.4,1.3-10.2,3.9c-1.5,1.4-2.8,3.3-4.1,5l0,0
				c-11.2,15.9-20.8,27.3-30.2,35.8c-1.3,1.2-2.7,2.4-4.2,3.4c-2.6,1.7-6,3.8-9.7,4.7C310.6,475.1,309.2,475.3,307.9,475.3z"></path>
		</g>
	</g>
	<g>
		<g>
			<path class="st7 nawGjYrO_7" d="M294.5,498.2c-2.5,0-4.9-0.6-7.4-2.1c-2.7-1.7-4.9-4.3-7-8.1c-3-5.6-5.1-12.3-6.3-20.4
				c-3.7-24.5,1.2-51.9,12.6-71.5c5.5-9.4,12.3-16.8,20.4-22.2c4.9-3.3,10.3-5.8,15.5-8.3c2.2-1,4.6-2.1,6.8-3.3
				c19.3-9.7,32-28.7,34.1-50.8c0.5-4.8,0.6-9.8,0.4-15.3c-0.5-14.4-3.2-29-5.8-43.1c-0.3-1.4-0.5-2.7-0.8-4.1
				c-1.2-6.8-4.1-15.4-10.8-18.2c-7.7-3.3-19.2,0.9-26,3.3c-5.3,1.9-10.7,4-15.9,6.1c-10.5,4.1-21.3,8.4-32.5,11.4
				c-18.5,5-39.7,9.1-57.1,1.9c-3.9-1.6-7-3.9-9.3-6.8c-3.9-4.9-5.4-12.4-4-20.1c1-5.5,3.4-10.5,5.6-15.2c0.4-0.8,0.7-1.5,1.1-2.3
				c8.9-19,18.9-34.7,29.9-46.6c14.1-15.4,29.8-24.5,46.6-27.3c13-2.1,27.5-1.9,41.7,0.5c3.8,0.7,7.6,1.5,11.2,2.3
				c7.1,1.5,13.7,3,21,3.5c1.7,0.1,3.1,0.2,4.4,0.2c0.8,0,1.6,0,2.5,0c5.7,0.1,13.4,0.3,16.5-3.2c1.3-1.5,1.7-3.6,1.3-6.4
				c-0.3-2.2-0.8-4.5-1.2-6.8c-2.8-15.3-6-32.7,9.9-44.5c11-8.1,27.3-9.9,38.1-4c6.8,3.7,9.2,10.3,11.4,16.1
				c0.8,2.2,1.6,4.2,2.5,6.1c3.6,7.2,9.8,13.1,18.9,18c4.4,2.4,9.4,4.5,15.2,6.4c11,3.7,22.9,6.5,35.2,8.2c4.2,0.6,8.5,0.9,12.7,1.3
				c11.9,1,24.1,2,35.1,7.9c20.7,11.2,35.9,33,37,53c0.7,13-5.1,24.2-17.3,33.3c-11.9,8.9-27.3,16.5-48.6,24
				c-13.3,4.7-19.1,7.8-20.7,11.3c-1.3,2.9,0.2,6.8,2.5,12.8c2.2,5.7,5.2,13.4,7.1,24c1,5.7,2.6,13,4.5,21.5
				c1.3,5.8,2.7,12.4,4.2,19.3c2.9,13.7,2.8,26.3-0.3,37.4c-2.9,10.5-8.3,19.4-16.2,26.5c-1,0.9-2,2-3,3.1c-0.6,0.7-1.2,1.3-1.9,2
				c-4.3,4.5-12.4,7.6-24.7,9.4c-14.8,2.2-29.8,1.3-44.4,0.4l-4.1-0.2c-0.5,0-1.1-0.1-1.6-0.1c-28.1-1.9-45.6,3.1-67.2,19.1
				l-0.4,0.3l-0.5,0.1c-0.5,0.1-1,0.1-1.4,0.2c-3.9,0.5-8.4,1-11.4,3.7c-1.7,1.5-3,3.4-4.5,5.4c-9.3,13-20.4,27.9-33.1,40.2
				c-1.4,1.4-3,2.9-4.7,4.1C306.1,494.6,300.4,498.2,294.5,498.2z"></path>
		</g>
	</g>
	<g>
		<g>
			<path class="st8 nawGjYrO_8" d="M281.1,519.4c-2.6,0-5.1-0.7-7.4-2.2c-2.8-1.8-5.1-4.5-7.2-8.5c-3.2-6.1-5.3-13.3-6.4-22.2
				c-3.6-27.7,2.2-58.2,15.2-79.6c6.3-10.3,14.2-18.6,23.4-24.5c5.7-3.6,11.9-6.4,17.9-9c2.6-1.2,5.3-2.4,7.9-3.6
				c22.6-10.8,37.7-32.4,40.4-57.6c0.6-5.5,0.8-11.1,0.6-17.3c-0.5-16.4-3.5-32.9-6.5-49c-0.3-1.4-0.5-2.7-0.8-4.1
				c-1.4-7.9-4.8-17.9-12.9-21.2c-9.3-3.7-23.1,1.6-30.5,4.5c-5.9,2.3-11.9,4.8-17.7,7.2c-12.1,5-24.6,10.2-37.6,14
				c-8.7,2.5-20.2,5.6-32,6.8c-12.8,1.3-23.5,0.3-32.7-3.2c-4.3-1.6-7.8-4-10.3-6.9c-4.4-5.1-6.1-13.1-4.5-21.3
				c1.1-5.9,3.7-11.3,6.2-16.5c0.4-0.8,0.8-1.7,1.2-2.6c9.9-20.9,21-38,33.1-50.8c15.6-16.6,33-26.2,51.5-28.6
				c14.4-1.9,30.5-1.2,46.3,2.2c4.2,0.9,8.4,2,12.4,3c7.9,2,15.3,3.9,23.5,4.8c1.8,0.2,3.4,0.3,4.9,0.4c0.8,0,1.6,0.1,2.5,0.1
				c6.6,0.3,15.7,0.8,19.4-3.4c1.6-1.8,2.1-4.5,1.4-8c-0.5-2.5-1-5.1-1.6-7.8c-3.6-16.7-7.7-35.6,9.4-48.2v0
				c11.4-8.4,28.8-9.7,39.7-2.9c6.8,4.3,8.8,11.4,10.7,18.3c0.7,2.6,1.4,5,2.3,7.3c3.4,8.6,9.9,15.4,19.6,21
				c4.6,2.6,10.1,5,16.2,7.1c11.8,4,24.5,6.6,37.8,7.9c4.7,0.4,9.5,0.6,14.2,0.8c12.6,0.5,25.5,0.9,37.2,6.6
				c10.4,5,20.1,13.1,27.1,22.8c7.1,9.8,11.2,20.9,11.6,31.2c0.5,13-5.3,24.8-17.1,34.9c-11.9,10.2-27.7,19.4-49.7,28.8
				c-12.5,5.4-18.5,9.5-20.2,13.9c-1.6,4.3,0.8,9.2,4.4,16.6c3.5,7.1,7.8,16,10.8,28.6c2.2,9.3,5.9,24.8,8.7,43.2
				c2.2,14.3,1.1,27.4-3.4,39c-4.2,10.8-11.1,20-20.7,27.4c-1.3,1-2.5,2-3.8,3.1c-0.8,0.7-1.6,1.4-2.5,2.1c-5,4.1-13.3,7.3-25.4,9.5
				c-16.3,3.1-33.1,3-49.3,2.9l-1.4,0c-0.6,0-1.1,0-1.7,0c-30.3-0.4-52.3,4.2-76.2,15.9l-0.2,0.1l-0.2,0c-0.5,0-1,0.1-1.6,0.1
				c-4.7,0.4-9.9,0.8-13.5,3.9c-2,1.7-3.6,3.9-5.1,6C326,480.1,315.1,494.4,303,507c-1.5,1.6-3.1,3.2-4.9,4.6
				c-4.2,3.4-7.8,5.6-11.3,6.7C284.8,519.1,282.9,519.4,281.1,519.4z"></path>
		</g>
	</g>
	<g>
		<g>
			<path class="st9 nawGjYrO_9" d="M267.7,543.6c-3.2,0-6.2-0.9-8.9-2.7c-3.3-2.1-6.1-5.4-8.5-10.1c-3.5-6.8-5.7-15-6.9-25
				c-3.6-32.2,3.2-65.7,18.3-89.6c7.3-11.7,16.6-21,27.4-27.7c6.6-4.1,13.7-7.1,20.6-10c2.9-1.3,6-2.5,8.9-3.9
				c25.1-11.5,41.9-34.7,45-62.1c0.7-6,0.9-12.2,0.8-18.9c-0.4-18.1-3.8-36.5-7.1-54.3l-0.8-4.2c-1.5-8.2-5-18.7-13.2-21.8
				c-9.6-3.7-24.7,2.3-32.8,5.6c-6.3,2.6-12.7,5.3-18.9,8c-14,6-28.5,12.3-43.5,16.9c-22.1,6.8-50.5,13.5-74.2,5.2
				c-5.3-1.9-9.5-4.5-12.5-7.9c-5.4-6-7.5-15.3-5.8-25c1.2-6.8,4.1-12.7,6.9-18.4c0.5-0.9,0.9-1.9,1.4-2.8
				c11-23,23.4-41.8,36.9-55.8c17.6-18.3,37.2-28.8,58.3-31c16.3-1.7,34.2-0.4,51.9,3.9c4.7,1.2,9.3,2.5,13.8,3.8
				c8.6,2.5,16.8,4.8,25.6,6c1.9,0.2,3.6,0.4,5.3,0.5c0.8,0.1,1.6,0.1,2.5,0.2c6.6,0.5,16.6,1.3,19.9-2.5c1.3-1.5,1.6-3.8,0.9-7
				c-0.6-2.8-1.3-5.7-2-8.8c-2.3-9.4-4.6-19.1-4.1-28.6c0.6-11.2,5.2-19.8,14.1-26.4c6.1-4.5,13.9-7.2,22.2-7.6
				c8.5-0.5,16.5,1.6,22.5,5.8c7.8,5.6,9.6,14.5,11.3,22.4c0.6,2.9,1.2,5.6,2,8.1c3,9.2,9.3,16.5,19.1,22.4
				c4.7,2.8,10.3,5.3,16.7,7.5c12.3,4.1,25.6,6.6,39.7,7.5c5.1,0.3,10.4,0.3,15.5,0.3c13.6,0,27.6-0.1,40.7,5.5
				c23.8,10.2,41.5,34.5,42,57.7c0.3,13.8-5.9,27.2-17.9,38.8c-15.8,15.2-35.9,26.2-51.6,34.1c-11.2,5.6-17,10.3-18.4,14.7
				c-1.4,4.6,1.7,10.2,6.4,18.6c4.7,8.4,10.5,18.9,14.7,33.6c4.2,14.7,7.2,30.2,8.9,45.9c1.7,15.4-0.6,29.7-6.8,42.3
				c-5.7,11.6-14.5,21.5-26.1,29.5c-1,0.7-2,1.4-3,2.1c-1.5,1.1-3.1,2.2-4.8,3.3c-6.2,4.1-15.1,7.5-27.3,10.2
				c-17.1,3.8-34.7,4.9-52.7,5.7l-0.7,0c-0.6,0-1.3,0.1-1.9,0.1c-23.1,0.8-42.7,4.6-63.5,8.6c-6.8,1.3-13.8,2.7-21,3.9
				c-1.6,0.3-3.4,0.4-5.1,0.6c-4.1,0.3-8.3,0.7-10.9,2.9c-2,1.6-3.7,3.9-5.3,6.1c-13.1,18-25.1,34.1-38.6,49
				c-1.5,1.7-3.3,3.6-5.4,5.4C280.4,540.5,273.7,543.6,267.7,543.6z"></path>
		</g>
	</g>
	<g>
		<g>
			<path class="st7 nawGjYrO_10" d="M254.4,564.7c-3.1,0-6.1-0.9-8.9-2.7c-3.4-2.2-6.1-5.5-8.7-10.5c-3.7-7.4-5.9-15.9-7-26.7
				c-3.5-35.5,4.3-71.9,20.9-97.6c8.2-12.7,18.4-22.7,30.4-29.9c7.3-4.4,15.2-7.6,22.9-10.8c3.3-1.4,6.7-2.8,10-4.2
				c28.5-12.7,47.7-38.5,51.4-69.1c0.8-6.7,1.1-13.5,1-20.9c-0.4-20.1-4.1-40.5-7.7-60.2l-0.8-4.2c-1.7-9.4-5.8-21.3-15.4-24.9
				c-11.3-4.2-28.3,2.9-37.5,6.7c-7,3-14.1,6.1-20.9,9.2c-15.5,6.9-31.6,14.1-48.3,19.5c-15.6,5-28.4,8.1-40.3,9.6
				c-15.9,2-29.8,1.1-41.4-2.7c-5.8-1.9-10.2-4.5-13.4-7.9c-5.7-6.1-8.1-15.8-6.3-25.9c1.3-7.1,4.4-13.5,7.4-19.6c0.5-1,1-2,1.5-3.1
				c12-24.8,25.4-44.9,40.1-59.9c19.1-19.5,40.3-30.4,63.1-32.3c17.7-1.5,37.2,0.4,56.4,5.5c5.1,1.4,10.2,3,15,4.5
				c9.5,3,18.4,5.8,28.2,7.3c2,0.3,4,0.5,5.9,0.7c0.8,0.1,1.6,0.1,2.5,0.2c7.6,0.7,19,1.8,23-2.8c1.7-1.9,2.1-4.8,1.2-8.8
				c-0.7-3.2-1.6-6.4-2.5-9.8c-5.3-20.2-11.4-43.1,9.4-58.4c13.3-9.8,33.9-10.1,46-0.7c7.7,6.1,9.2,15.8,10.5,24.4
				c0.5,3.3,1,6.4,1.8,9.3c2.9,10.6,9.4,19,20,25.6c5,3.1,11,5.8,17.7,8.1c13,4.4,27.3,6.8,42.5,7.2c5.5,0.2,11.3,0,16.9-0.2
				c14.3-0.5,29.1-1,42.9,4.2c11.6,4.5,22.5,12.7,30.5,23.2c8.3,10.9,12.9,23.4,13,35.3c0.2,17.5-9.6,31.5-17.8,40.2
				c-15.8,16.7-36.4,29.5-52.6,38.8c-11.2,6.4-17.1,11.9-18.4,17.3c-1.6,6.4,2.7,13.5,8.8,23.4c5.8,9.5,13,21.3,18.3,37.6
				c4.8,14.9,7.8,31,8.9,48.1c1.1,16-2.3,30.7-9.9,43.8c-6.9,11.9-17.1,22.1-30.4,30.4c-3.5,2.2-6.4,3.9-9.2,5.5
				c-7.3,4-16.5,7.4-28.1,10.5c-18.7,4.8-38.2,6.9-55,8.4l-0.9,0.1c-0.6,0.1-1.2,0.1-1.8,0.2c-16.5,1.4-32.5,3-48,4.7
				c-14.7,1.5-29.9,3.1-45.1,4.4c-1.3,0.1-2.6,0.2-3.9,0.2c-5.2,0.2-10.7,0.5-14.3,3.3c-2.3,1.8-4.2,4.4-6,6.8l-1.6,2.2
				c-12.6,17.1-25.6,34.8-39.7,51c-2.1,2.4-3.9,4.3-5.7,5.9C267.6,561.2,260.7,564.7,254.4,564.7z"></path>
		</g>
	</g>
	<g>
		<g>
			<path class="st10 nawGjYrO_11" d="M241.1,588.7c-4.2,0-7.7-1.4-10.4-3.1c-3.9-2.5-7.1-6.4-9.9-12c-4-8.1-6.4-17.5-7.4-29.5
				c-2.3-27,1.1-54.9,9.6-78.6c10-27.8,26.8-49.2,48.6-62c8.2-4.8,17.1-8.3,25.6-11.8c3.6-1.5,7.4-3,11.1-4.5c31-13.4,52-41,56-73.7
				c3.6-29.1-1.9-59.1-7.2-88.1l-0.8-4.3c-1.8-9.7-6-22.1-15.8-25.7c-11.9-4.3-30.8,3.9-39.9,7.8c-7.7,3.3-15.4,6.9-22.9,10.3
				c-17.2,7.9-34.9,16-53.4,22.1c-24.6,8.2-60.8,18-91,8.5c-6.7-2.1-11.8-5-15.5-8.8c-6.8-7-9.6-18-7.5-29.4
				c1.4-7.9,4.8-14.8,8.2-21.5c0.5-1.1,1.1-2.2,1.6-3.3c13.1-26.9,27.8-48.7,43.8-64.8c21.1-21.2,44.5-32.9,69.7-34.6
				c19.5-1.3,40.9,1.2,61.9,7.3c5.6,1.6,11.1,3.5,16.4,5.3c10.2,3.4,19.8,6.7,30.3,8.5c2.1,0.4,4.2,0.7,6.3,0.9
				c0.7,0.1,1.5,0.2,2.3,0.3c7.5,0.9,20,2.3,23.8-2c1.4-1.5,1.6-4.2,0.7-7.9c-0.8-3.4-1.8-7-2.9-10.7c-3.1-11.1-6.4-22.6-6.1-33.7
				c0.3-13.3,5.5-23.6,16-31.3c6.8-5,16.1-7.9,25.4-8c9.9-0.1,18.9,2.9,25.5,8.5c8.6,7.3,9.8,18.5,10.9,28.5
				c0.4,3.6,0.8,7.1,1.5,10.2c3.7,16.7,16.1,28.3,37.8,35.5c13.5,4.5,28.4,6.8,44.3,6.8c5.9,0,11.8-0.4,18.1-0.8
				c15.4-1,31.2-2,46.3,3.1c12.5,4.3,24.2,12.7,32.9,23.8c9.1,11.6,14.1,25.2,14.1,38.2c-0.1,18.5-10,34-18.4,43.7
				c-15.8,18.4-36.3,32.6-54.3,44.1c-10.6,6.8-16.1,12.5-17.2,18c-1.5,7,3.8,15,11,26c6.1,9.3,13.7,20.8,19.8,35.9
				c7.2,17.6,11,36.4,11.5,57.3c0.5,19.1-5.2,36.5-16.8,51.7c-10.2,13.3-25.1,24.7-43.1,33.1c-28.9,13.5-60.4,18.7-90,22.4
				c-36.6,4.6-73.6,5.4-101.7,5.6c-0.7,0-1.4,0-2.1,0c-5.9,0-12.6,0-16.6,3.1c-2.3,1.8-4.2,4.4-6.1,6.9c-2.1,2.9-4.2,5.7-6.4,8.6
				c-12,16.3-24.5,33.2-37.8,49c-2.1,2.5-4.1,4.7-6.1,6.7C255.2,585.7,247.4,588.7,241.1,588.7z"></path>
		</g>
	</g>
</g>
<style>.nawGjYrO_0{stroke-dasharray:734 736;stroke-dashoffset:735;animation:nawGjYrO_draw_0 11200ms linear 0ms infinite,nawGjYrO_fade 11200ms linear 0ms infinite;}.nawGjYrO_1{stroke-dasharray:785 787;stroke-dashoffset:786;animation:nawGjYrO_draw_1 11200ms linear 0ms infinite,nawGjYrO_fade 11200ms linear 0ms infinite;}.nawGjYrO_2{stroke-dasharray:877 879;stroke-dashoffset:878;animation:nawGjYrO_draw_2 11200ms linear 0ms infinite,nawGjYrO_fade 11200ms linear 0ms infinite;}.nawGjYrO_3{stroke-dasharray:1002 1004;stroke-dashoffset:1003;animation:nawGjYrO_draw_3 11200ms linear 0ms infinite,nawGjYrO_fade 11200ms linear 0ms infinite;}.nawGjYrO_4{stroke-dasharray:1119 1121;stroke-dashoffset:1120;animation:nawGjYrO_draw_4 11200ms linear 0ms infinite,nawGjYrO_fade 11200ms linear 0ms infinite;}.nawGjYrO_5{stroke-dasharray:1257 1259;stroke-dashoffset:1258;animation:nawGjYrO_draw_5 11200ms linear 0ms infinite,nawGjYrO_fade 11200ms linear 0ms infinite;}.nawGjYrO_6{stroke-dasharray:1403 1405;stroke-dashoffset:1404;animation:nawGjYrO_draw_6 11200ms linear 0ms infinite,nawGjYrO_fade 11200ms linear 0ms infinite;}.nawGjYrO_7{stroke-dasharray:1561 1563;stroke-dashoffset:1562;animation:nawGjYrO_draw_7 11200ms linear 0ms infinite,nawGjYrO_fade 11200ms linear 0ms infinite;}.nawGjYrO_8{stroke-dasharray:1714 1716;stroke-dashoffset:1715;animation:nawGjYrO_draw_8 11200ms linear 0ms infinite,nawGjYrO_fade 11200ms linear 0ms infinite;}.nawGjYrO_9{stroke-dasharray:1890 1892;stroke-dashoffset:1891;animation:nawGjYrO_draw_9 11200ms linear 0ms infinite,nawGjYrO_fade 11200ms linear 0ms infinite;}.nawGjYrO_10{stroke-dasharray:2047 2049;stroke-dashoffset:2048;animation:nawGjYrO_draw_10 11200ms linear 0ms infinite,nawGjYrO_fade 11200ms linear 0ms infinite;}.nawGjYrO_11{stroke-dasharray:2225 2227;stroke-dashoffset:2226;animation:nawGjYrO_draw_11 11200ms linear 0ms infinite,nawGjYrO_fade 11200ms linear 0ms infinite;}@keyframes nawGjYrO_draw{100%{stroke-dashoffset:0;}}@keyframes nawGjYrO_fade{0%{stroke-opacity:1;}96.42857142857143%{stroke-opacity:1;}100%{stroke-opacity:0;}}@keyframes nawGjYrO_draw_0{7.142857142857142%{stroke-dashoffset: 735}48.8095238095238%{ stroke-dashoffset: 0;}100%{ stroke-dashoffset: 0;}}@keyframes nawGjYrO_draw_1{9.036796536796537%{stroke-dashoffset: 786}50.703463203463194%{ stroke-dashoffset: 0;}100%{ stroke-dashoffset: 0;}}@keyframes nawGjYrO_draw_2{10.930735930735931%{stroke-dashoffset: 878}52.597402597402585%{ stroke-dashoffset: 0;}100%{ stroke-dashoffset: 0;}}@keyframes nawGjYrO_draw_3{12.824675324675324%{stroke-dashoffset: 1003}54.49134199134198%{ stroke-dashoffset: 0;}100%{ stroke-dashoffset: 0;}}@keyframes nawGjYrO_draw_4{14.71861471861472%{stroke-dashoffset: 1120}56.385281385281374%{ stroke-dashoffset: 0;}100%{ stroke-dashoffset: 0;}}@keyframes nawGjYrO_draw_5{16.61255411255411%{stroke-dashoffset: 1258}58.279220779220765%{ stroke-dashoffset: 0;}100%{ stroke-dashoffset: 0;}}@keyframes nawGjYrO_draw_6{18.50649350649351%{stroke-dashoffset: 1404}60.17316017316017%{ stroke-dashoffset: 0;}100%{ stroke-dashoffset: 0;}}@keyframes nawGjYrO_draw_7{20.400432900432904%{stroke-dashoffset: 1562}62.06709956709956%{ stroke-dashoffset: 0;}100%{ stroke-dashoffset: 0;}}@keyframes nawGjYrO_draw_8{22.294372294372295%{stroke-dashoffset: 1715}63.96103896103895%{ stroke-dashoffset: 0;}100%{ stroke-dashoffset: 0;}}@keyframes nawGjYrO_draw_9{24.188311688311686%{stroke-dashoffset: 1891}65.85497835497834%{ stroke-dashoffset: 0;}100%{ stroke-dashoffset: 0;}}@keyframes nawGjYrO_draw_10{26.08225108225108%{stroke-dashoffset: 2048}67.74891774891773%{ stroke-dashoffset: 0;}100%{ stroke-dashoffset: 0;}}@keyframes nawGjYrO_draw_11{27.976190476190478%{stroke-dashoffset: 2226}69.64285714285714%{ stroke-dashoffset: 0;}100%{ stroke-dashoffset: 0;}}</style></svg>
