<?xml version="1.0" encoding="utf-8"?>
<!-- Generator: Adobe Illustrator 21.0.2, SVG Export Plug-In . SVG Version: 6.00 Build 0)  -->
<svg version="1.1" id="Layer_1" xmlns="http://www.w3.org/2000/svg" xmlns:xlink="http://www.w3.org/1999/xlink" x="0px" y="0px"
	 width="600px" height="180px" viewBox="0 0 600 180" style="enable-background:new 0 0 600 180;" xml:space="preserve">
<style type="text/css">
	.st0{fill:none;stroke:#FFFFFF;stroke-width:0.4983;stroke-miterlimit:3.8637;}
	.st1{fill:#FFFFFF;}
</style>
<line class="st0" x1="224.2" y1="12.2" x2="224.2" y2="165.5"/>
<g>
	<path class="st1" d="M115.8,34v28.7c0,5.2-4.2,9.4-9.4,9.4c-5.2,0-9.4-4.2-9.4-9.4l0-17.8l-6.3,3.6v14.2c0,8.7,7,15.7,15.7,15.7
		c8.7,0,15.8-7.1,15.8-15.7l0-32.2L115.8,34z"/>
	<path class="st1" d="M103.2,62.6c0,1.7,1.4,3.1,3.1,3.1c1.7,0,3.1-1.4,3.1-3.1v-25l-6.3,3.6V62.6z"/>
	<path class="st1" d="M71.6,12.2v50.4c0,19.1,15.6,34.6,34.7,34.6c19.1,0,34.6-15.5,34.6-34.6V12.2H71.6z M128.4,26.7v35.9
		c0,12.2-9.9,22-22,22s-22-9.9-22-22l0-17.8l6.3-3.6l6.3,3.7l0-7.3l6.3-3.6l6.3,3.7v-7.3l6.3-3.6l6.3,3.7l0-7.3l6.3-3.6l6.3,3.7
		L128.4,26.7z"/>
</g>
<path class="st1" d="M21.1,146.9c-1.4-0.5-2.9-0.7-4.5-0.7c-3.3,0-6.6,1.5-6.6,5.8c0,6.3,8.3,4.8,8.3,8.4c0,1.7-1.9,2.4-3.4,2.4
	c-1.5,0-3-0.5-4.3-1.2l-0.4,3.4c1.9,0.5,2.8,0.7,4.9,0.7c3.8,0,7.1-1.6,7.1-5.7c0-6.4-8.3-5-8.3-8.3c0-2.1,1.7-2.6,3-2.6
	c1.3,0,2.7,0.3,3.9,0.8L21.1,146.9L21.1,146.9z M24.3,158.6c0,4,2.7,7.2,7.3,7.2c4.6,0,7.3-3.2,7.3-7.2c0-4.6-3.2-7.4-7.3-7.4
	C27.4,151.2,24.3,154,24.3,158.6L24.3,158.6z M28.1,158.2c0-2.1,1.1-4.2,3.5-4.2c2.4,0,3.5,2,3.5,4.2c0,2.3-0.7,4.8-3.5,4.8
	C28.8,163,28.1,160.5,28.1,158.2L28.1,158.2z M54.5,151.5h-3.6v6.9c0,1.8-0.6,4.6-3.2,4.6c-2.3,0-2.4-2.3-2.4-4v-7.5h-3.6v8.8
	c0,3.2,1.4,5.5,4.8,5.5c1.9,0,3.5-0.9,4.6-2.2H51v1.9h3.5V151.5L54.5,151.5z M59.3,161.3c0,2.8,1.6,4.5,4.4,4.5
	c1.1,0,1.9-0.1,2.7-0.3l-0.1-2.9c-0.4,0.2-1,0.4-1.7,0.4c-1.4,0-1.7-1.1-1.7-2.3v-6.5h3.2v-2.7H63v-4l-3.6,1.2v2.8h-2.7v2.7h2.7
	V161.3L59.3,161.3z M68.6,165.5h3.6v-6.8c0-1.8,0.6-4.7,3.2-4.7c2.3,0,2.4,2.3,2.4,4v7.5h3.6v-8.8c0-3.1-1.4-5.5-4.8-5.5
	c-1.9,0-3.5,0.9-4.4,2.2h-0.1v-8.3h-3.6V165.5L68.6,165.5z M103,158.2h-5.5l2.7-7.8h0.1L103,158.2L103,158.2z M90.8,165.5h3.9
	l1.7-4.3h7.7l1.6,4.3h4.2l-7.4-19h-4.3L90.8,165.5L90.8,165.5z M124.8,151.5h-3.6v6.9c0,1.8-0.6,4.6-3.2,4.6c-2.3,0-2.4-2.3-2.4-4
	v-7.5h-3.6v8.8c0,3.2,1.4,5.5,4.8,5.5c1.9,0,3.5-0.9,4.6-2.2h0.1v1.9h3.4V151.5L124.8,151.5z M137,151.7c-1.1-0.2-2.3-0.5-4-0.5
	c-2.9,0-5.5,1.3-5.5,4.3c0,5.1,6.3,3.2,6.3,5.9c0,1.4-1.5,1.7-2.4,1.7c-1.3,0-2.4-0.3-3.6-0.9l-0.2,3c1.3,0.4,2.7,0.6,4.1,0.6
	c3,0,5.9-1.3,5.9-4.6c0-5.1-6.3-3.6-6.3-5.9c0-1.2,1.2-1.5,2.1-1.5c1.3,0,2.2,0.2,3.3,0.6L137,151.7L137,151.7z M141.5,161.3
	c0,2.8,1.6,4.5,4.4,4.5c1.1,0,1.9-0.1,2.7-0.3l-0.1-2.9c-0.4,0.2-1,0.4-1.7,0.4c-1.4,0-1.7-1.1-1.7-2.3v-6.5h3.2v-2.7h-3.2v-4
	l-3.6,1.2v2.8h-2.7v2.7h2.7V161.3L141.5,161.3z M150.9,165.5h3.6v-5.1c0-2,0-5.7,3-5.7c0.7,0,1.3,0.1,1.6,0.3v-3.7
	c-0.4-0.1-0.8-0.1-1.1-0.1c-2.2,0-3.7,2.2-3.8,3.5h-0.1v-3.2h-3.2V165.5L150.9,165.5z M161.9,155.4c1.2-0.9,2.8-1.5,4.3-1.5
	c2.1,0,3.2,0.8,3.2,3h-2c-1.5,0-3.3,0.1-4.7,0.8c-1.4,0.7-2.4,1.9-2.4,4c0,2.7,2.4,4.2,4.9,4.2c1.7,0,3.5-0.9,4.3-2.4h0.1
	c0,0.4,0,1.4,0.2,2.1h3.2c-0.1-1.1-0.1-2.1-0.2-3.1c0-1-0.1-2.1-0.1-3.5v-1.8c0-4.1-1.8-5.9-6-5.9c-1.5,0-3.5,0.4-4.9,1.1
	L161.9,155.4L161.9,155.4z M163.8,161.5c0-2.1,2.4-2.4,4-2.4h1.6c0,1.1-0.2,2.1-0.8,2.9c-0.6,0.8-1.4,1.2-2.6,1.2
	C164.8,163.2,163.8,162.7,163.8,161.5L163.8,161.5z M176.3,165.5h3.6v-20.4h-3.6V165.5L176.3,165.5z M183.7,165.5h3.6v-14h-3.6
	V165.5L183.7,165.5z M183.7,149h3.6v-3.5h-3.6V149L183.7,149z M191.8,155.4c1.2-0.9,2.8-1.5,4.3-1.5c2.1,0,3.2,0.8,3.2,3h-2
	c-1.5,0-3.3,0.1-4.7,0.8c-1.4,0.7-2.4,1.9-2.4,4c0,2.7,2.4,4.2,4.9,4.2c1.7,0,3.5-0.9,4.3-2.4h0.1c0,0.4,0,1.4,0.2,2.1h3.2
	c-0.1-1.1-0.1-2.1-0.2-3.1c0-1-0.1-2.1-0.1-3.5v-1.8c0-4.1-1.8-5.9-6-5.9c-1.5,0-3.4,0.4-4.9,1.1L191.8,155.4L191.8,155.4z
	 M193.6,161.5c0-2.1,2.4-2.4,4-2.4h1.6c0,1.1-0.2,2.1-0.8,2.9c-0.6,0.8-1.4,1.2-2.6,1.2C194.6,163.2,193.6,162.7,193.6,161.5
	L193.6,161.5z"/>
<path class="st1" d="M26.9,126.1c0,5.1,2.9,7.2,7.7,7.2c4.9,0,7.7-2.1,7.7-7.2v-12.1h-3.8v11c0,3.2-1,5.4-3.9,5.4
	c-2.9,0-3.9-2.1-3.9-5.4v-11h-3.8V126.1L26.9,126.1z M46.1,132.9h3.6v-6.9c0-1.8,0.6-4.6,3.2-4.6c2.3,0,2.4,2.3,2.4,4v7.5H59v-8.8
	c0-3.2-1.4-5.5-4.8-5.5c-1.9,0-3.5,0.6-4.6,2.2h-0.1v-1.9h-3.5V132.9L46.1,132.9z M62.7,132.9h3.6v-14h-3.6V132.9L62.7,132.9z
	 M62.7,116.4h3.6v-3.5h-3.6V116.4L62.7,116.4z M73.7,132.9h4.1l5.2-14h-3.6l-3.4,10.2h-0.1l-3.5-10.2h-3.9L73.7,132.9L73.7,132.9z
	 M87.6,124.5c0.2-1.9,1.2-3.3,3.2-3.3c2,0,2.9,1.5,3,3.3H87.6L87.6,124.5z M96.2,129.2c-1.4,0.8-2.9,1.4-4.6,1.4
	c-2.3,0-3.8-1.3-4-3.5h9.7c0-4.9-1.5-8.5-6.7-8.5c-4.3,0-6.5,3.3-6.5,7.4c0,4.6,2.7,7.3,7.3,7.3c2,0,3.5-0.4,4.8-1.1V129.2
	L96.2,129.2z M100.1,132.9h3.6v-5.1c0-2,0-5.7,3-5.7c0.7,0,1.3,0.1,1.6,0.3v-3.7c-0.4-0.1-0.8-0.1-1.1-0.1c-2.2,0-3.7,2.2-3.8,3.5
	h-0.1v-3.2h-3.2V132.9L100.1,132.9z M119,119.1c-1.1-0.2-2.3-0.5-4-0.5c-2.9,0-5.5,1.3-5.5,4.3c0,5.1,6.3,3.2,6.3,5.9
	c0,1.4-1.5,1.7-2.4,1.7c-1.3,0-2.4-0.4-3.6-0.9l-0.2,3c1.3,0.4,2.7,0.6,4.1,0.6c3,0,5.9-1.3,5.9-4.6c0-5.1-6.3-3.6-6.3-5.9
	c0-1.2,1.2-1.6,2.1-1.6c1.3,0,2.1,0.2,3.3,0.6L119,119.1L119,119.1z M122.5,132.9h3.6v-14h-3.6V132.9L122.5,132.9z M122.5,116.4h3.6
	v-3.5h-3.6V116.4L122.5,116.4z M131,128.7c0,2.8,1.6,4.5,4.4,4.5c1.1,0,1.9-0.1,2.7-0.3L138,130c-0.4,0.2-1,0.4-1.7,0.4
	c-1.4,0-1.7-1.1-1.7-2.3v-6.5h3.2v-2.7h-3.2v-4l-3.6,1.2v2.8h-2.7v2.7h2.7V128.7L131,128.7z M142.7,118.9h-4l5.4,14.7
	c0,1.5-0.9,2.5-2.4,2.5c-0.9,0-1.4-0.1-1.9-0.2l-0.2,2.7c0.8,0.2,1.7,0.4,2.6,0.4c3.8,0,4.6-3,5.8-6.1l5.2-13.9h-3.7l-3.4,10.2H146
	L142.7,118.9L142.7,118.9z M161.7,126c0,4,2.7,7.2,7.3,7.2c4.6,0,7.3-3.2,7.3-7.2c0-4.6-3.2-7.4-7.3-7.4
	C164.9,118.6,161.7,121.4,161.7,126L161.7,126z M165.5,125.6c0-2.1,1.1-4.2,3.5-4.2c2.4,0,3.5,2,3.5,4.2c0,2.3-0.7,4.8-3.5,4.8
	C166.3,130.4,165.5,127.9,165.5,125.6L165.5,125.6z M180.4,132.9h3.6v-11.3h3.2v-2.7h-3.2v-1.7c0-1.1,0.4-2.1,1.6-2.1
	c0.8,0,1.2,0.3,1.6,0.5l0.3-3c-0.7-0.2-1.7-0.3-2.7-0.3c-2.9,0-4.5,2-4.5,4.8v2h-2.7v2.7h2.7V132.9L180.4,132.9z"/>
<g>
	<path class="st1" d="M361,165.7h-21.4v-47.8l-25.2,47.8h-10.2l-25.3-48v48h-21.4V76h21.7l30.1,56.9L339.5,76H361V165.7z"/>
	<path class="st1" d="M466.8,120.9c0,26.1-21,46.7-47.8,46.7c-26.8,0-47.8-20.6-47.8-46.7c0-26.2,21-47,47.8-47
		C445.8,74,466.8,94.7,466.8,120.9z M444.8,120.9c0-15.4-11.1-26.8-25.7-26.8c-14.6,0-25.7,11.4-25.7,26.8
		c0,15.3,11.1,26.5,25.7,26.5C433.7,147.5,444.8,136.2,444.8,120.9z"/>
	<path class="st1" d="M512.6,76c29.6,0,49.1,18.2,49.1,44.8s-19.5,44.8-49.1,44.8h-35.5V76H512.6z M511.8,146.5
		c16.7,0,27.7-10.2,27.7-25.7s-11-25.7-27.7-25.7h-12.6v51.4H511.8z"/>
	<path class="st1" d="M589,154.3c0,6.8-5.2,12-12.3,12c-7.1,0-12.2-5.2-12.2-12c0-6.4,5.1-12,12.2-12
		C583.8,142.2,589,147.9,589,154.3z"/>
</g>
</svg>
