<svg id="Layer_1" data-name="Layer 1" xmlns="http://www.w3.org/2000/svg" viewBox="0 0 179.6 143.1"><defs><style>.cls-1{fill:#fff;}</style></defs><title>UniSA</title><path class="cls-1" d="M109,28.4V55a8.8,8.8,0,1,1-17.6,0V38.5l-5.8,3.3V55a14.7,14.7,0,0,0,29.4,0V25Z" transform="translate(-10.4 -8.1)"/><path class="cls-1" d="M97.3,55a2.9,2.9,0,1,0,5.8,0V31.7l-5.8,3.3Z" transform="translate(-10.4 -8.1)"/><path class="cls-1" d="M67.8,8.1V55a32.3,32.3,0,0,0,64.6,0V8.1Zm52.9,13.5V55a20.5,20.5,0,1,1-41,0V38.5l5.9-3.4,5.9,3.4V31.7l5.9-3.4,5.9,3.4V25l5.9-3.4,5.9,3.4V18.2l5.9-3.4,5.9,3.4Z" transform="translate(-10.4 -8.1)"/><path class="cls-1" d="M20.8,133.5a13.3,13.3,0,0,0-4.2-.6c-3.1,0-6.2,1.4-6.2,5.4,0,5.9,7.7,4.5,7.7,7.8,0,1.6-1.8,2.3-3.1,2.3a8.6,8.6,0,0,1-4-1.1l-.3,3.2a15.7,15.7,0,0,0,4.5.7c3.6,0,6.6-1.5,6.6-5.3,0-5.9-7.7-4.6-7.7-7.7s1.6-2.5,2.8-2.5a9.1,9.1,0,0,1,3.6.8l.3-2.9Zm3,10.9a6.4,6.4,0,0,0,6.8,6.7,6.4,6.4,0,0,0,6.8-6.7,6.5,6.5,0,0,0-6.8-6.9,6.5,6.5,0,0,0-6.8,6.9Zm3.5-.4c0-1.9,1.1-3.9,3.3-3.9s3.3,1.9,3.3,3.9-.7,4.5-3.3,4.5-3.3-2.4-3.3-4.5Zm24.6-6.2H48.5v6.4c0,1.7-.5,4.3-3,4.3s-2.2-2.2-2.2-3.7v-7H39.9v8.2c0,2.9,1.3,5.1,4.4,5.1a5.4,5.4,0,0,0,4.3-2.1h.1v1.8h3.2v-13Zm4.5,9.1c0,2.6,1.5,4.2,4.1,4.2a8.9,8.9,0,0,0,2.5-.3v-2.7a3,3,0,0,1-1.5.4c-1.3,0-1.6-1-1.6-2.2v-6.1h3v-2.5h-3v-3.7l-3.4,1.1v2.6H53.9v2.5h2.5V147Zm8.6,3.9h3.4v-6.4c0-1.7.5-4.3,3-4.3s2.2,2.2,2.2,3.7v7H77v-8.2c0-2.9-1.3-5.1-4.4-5.1a4.9,4.9,0,0,0-4.1,2.1h0v-7.7H65v19Zm32.1-6.8H91.9l2.6-7.3h.1l2.6,7.3Zm-11.4,6.8h3.7l1.5-4.1h7.2l1.5,4.1h3.9l-6.9-17.7h-4l-6.9,17.7Zm31.6-13H114v6.4c0,1.7-.5,4.3-3,4.3s-2.2-2.2-2.2-3.7v-7h-3.4v8.2c0,2.9,1.3,5.1,4.4,5.1a5.4,5.4,0,0,0,4.3-2.1h.1v1.8h3.2v-13Zm11.3.2a15.5,15.5,0,0,0-3.7-.5c-2.7,0-5.1,1.2-5.1,4.1,0,4.7,5.9,3,5.9,5.5s-1.4,1.6-2.2,1.6a7.4,7.4,0,0,1-3.3-.9l-.2,2.8a15.3,15.3,0,0,0,3.8.6c2.8,0,5.5-1.2,5.5-4.3,0-4.7-5.9-3.4-5.9-5.5s1.1-1.4,2-1.4a8.5,8.5,0,0,1,3,.6l.2-2.6ZM133,147c0,2.6,1.5,4.2,4.1,4.2a8.9,8.9,0,0,0,2.5-.3v-2.7a3,3,0,0,1-1.5.4c-1.3,0-1.6-1-1.6-2.2v-6.1h3v-2.5h-3v-3.7l-3.4,1.1v2.6h-2.5v2.5H133V147Zm8.7,3.9H145v-4.8c0-1.9,0-5.3,2.8-5.3a3.5,3.5,0,0,1,1.5.3v-3.4h-1a4,4,0,0,0-3.6,3.3h-.1v-3h-3v13Zm10.3-9.4a6.8,6.8,0,0,1,4-1.4c2,0,2.9.7,2.9,2.8h-1.9a10.3,10.3,0,0,0-4.4.8,3.8,3.8,0,0,0-2.2,3.7c0,2.5,2.3,3.9,4.6,3.9a4.6,4.6,0,0,0,4-2.3h0a16,16,0,0,0,.2,2h3c-.1-1-.1-1.9-.2-2.9s-.1-2-.1-3.3V143c0-3.8-1.6-5.5-5.6-5.5a11.6,11.6,0,0,0-4.5,1v2.9Zm1.7,5.7c0-2,2.3-2.3,3.8-2.3h1.5a4.4,4.4,0,0,1-.7,2.7,2.9,2.9,0,0,1-2.4,1.2c-1.2,0-2.1-.5-2.1-1.6Zm11.6,3.8h3.4v-19h-3.4v19Zm6.9,0h3.4v-13h-3.4v13Zm0-15.4h3.4v-3.2h-3.4v3.2Zm7.5,6a6.8,6.8,0,0,1,4-1.4c2,0,2.9.7,2.9,2.8h-1.9a10.3,10.3,0,0,0-4.4.8,3.8,3.8,0,0,0-2.2,3.7c0,2.5,2.3,3.9,4.6,3.9a4.7,4.7,0,0,0,4-2.3h.1a15.9,15.9,0,0,0,.2,2h3c-.1-1-.1-1.9-.2-2.9s0-2,0-3.3V143c0-3.8-1.6-5.5-5.6-5.5a11.6,11.6,0,0,0-4.5,1v2.9Zm1.7,5.7c0-2,2.3-2.3,3.8-2.3h1.5a4.4,4.4,0,0,1-.7,2.7,2.9,2.9,0,0,1-2.4,1.2c-1.2,0-2.2-.5-2.2-1.6Z" transform="translate(-10.4 -8.1)"/><path class="cls-1" d="M26.1,114.1c0,4.7,2.7,6.7,7.2,6.7s7.2-1.9,7.2-6.7V102.8H37V113c0,3-1,5-3.7,5s-3.7-2-3.7-5V102.8H26.1v11.3Zm18,6.4h3.4v-6.4c0-1.7.5-4.3,3-4.3s2.2,2.2,2.2,3.7v7h3.4v-8.2c0-2.9-1.3-5.1-4.4-5.1a4.9,4.9,0,0,0-4.3,2.1h0v-1.8H44.1v13Zm15.4,0h3.4v-13H59.5v13Zm0-15.4h3.4v-3.2H59.5v3.2Zm10.2,15.4h3.8l4.8-13H75L71.9,117h0l-3.2-9.5H64.9l4.8,13Zm13-7.8c.2-1.7,1.1-3.1,3-3.1s2.7,1.4,2.8,3.1Zm8.1,4.3a8.8,8.8,0,0,1-4.3,1.3,3.4,3.4,0,0,1-3.7-3.3h9c0-4.6-1.4-7.9-6.2-7.9s-6.1,3.1-6.1,6.9,2.5,6.8,6.8,6.8a9,9,0,0,0,4.5-1V117Zm3.6,3.5h3.4v-4.8c0-1.9,0-5.3,2.8-5.3a3.5,3.5,0,0,1,1.5.3v-3.4h-1a4,4,0,0,0-3.6,3.3h-.1v-3h-3v13ZM112,107.6a15.8,15.8,0,0,0-3.7-.5c-2.7,0-5.1,1.2-5.1,4,0,4.7,5.9,3,5.9,5.5s-1.4,1.6-2.2,1.6a7.4,7.4,0,0,1-3.3-.9l-.2,2.8a15,15,0,0,0,3.8.6c2.8,0,5.5-1.2,5.5-4.3,0-4.7-5.9-3.4-5.9-5.5s1.1-1.4,2-1.4a8.3,8.3,0,0,1,3,.6l.2-2.6Zm3.2,12.9h3.4v-13h-3.4v13Zm0-15.4h3.4v-3.2h-3.4v3.2Zm7.9,11.5c0,2.6,1.5,4.2,4.1,4.2a9.2,9.2,0,0,0,2.5-.3v-2.7a3.1,3.1,0,0,1-1.5.4c-1.3,0-1.6-1-1.6-2.2v-6.1h3v-2.5h-3v-3.7l-3.4,1.1v2.6h-2.5v2.5h2.5v6.6Zm10.9-9.1h-3.7l5,13.7a2.1,2.1,0,0,1-2.2,2.3,5.1,5.1,0,0,1-1.7-.2l-.2,2.5a8.6,8.6,0,0,0,2.4.3c3.5,0,4.3-2.8,5.4-5.7l4.9-12.9h-3.4l-3.1,9.5h-.1l-3.1-9.5Zm17.7,6.6a6.8,6.8,0,0,0,13.6,0,6.8,6.8,0,1,0-13.6,0Zm3.5-.4c0-2,1.1-3.9,3.3-3.9s3.3,1.9,3.3,3.9-.7,4.5-3.3,4.5-3.3-2.4-3.3-4.5Zm13.9,6.8h3.4V109.9h3v-2.5h-3v-1.6c0-1,.4-2,1.5-2a2.6,2.6,0,0,1,1.5.5l.3-2.8-2.5-.3c-2.7,0-4.2,1.8-4.2,4.4v1.8h-2.5v2.5h2.5v10.6Z" transform="translate(-10.4 -8.1)"/></svg>